<?xml version="1.0" encoding="utf-8"?>
<!-- Generator: Adobe Illustrator 23.0.3, SVG Export Plug-In . SVG Version: 6.00 Build 0)  -->
<svg version="1.1" id="Layer_1" xmlns="http://www.w3.org/2000/svg" xmlns:xlink="http://www.w3.org/1999/xlink" x="0px" y="0px"
	 viewBox="0 0 305.7 211.4" style="enable-background:new 0 0 305.7 211.4;" xml:space="preserve">
<style type="text/css">
	.st0{fill:#084E8A;}
	.st1{fill:#231F20;}
	.st2{font-family:'UntitledSans-Light';}
	.st3{font-size:12px;}
	.st4{enable-background:new    ;}
	.st5{fill:#838FB6;}
	.st6{fill:#BABED5;}
	.st7{fill:#636466;}
	.st8{fill:#ACAEB1;}
	.st9{fill:none;stroke:#084E8A;stroke-width:1.03;stroke-miterlimit:10;}
</style>
<rect x="223.4" y="92.1" class="st0" width="7.8" height="7.8"/>
<text transform="matrix(1 0 0 1 231.244 99.9122)" class="st1 st2 st3"> </text>
<g class="st4">
	<path class="st1" d="M238.8,92.6c1.5,0,2-0.4,2.2-1.3h0.4v8.6h-0.7v-6.8h-1.8V92.6z"/>
	<path class="st1" d="M249.1,93.5c0,1-0.6,1.7-1.5,2c0.9,0.2,1.8,1,1.8,2c0,1.5-1.2,2.5-3.1,2.5c-1.9,0-3.1-1-3.1-2.5
		c0-1,0.9-1.8,1.8-2c-0.9-0.3-1.5-1-1.5-2c0-1.5,1.2-2.3,2.7-2.3C247.9,91.2,249.1,92.1,249.1,93.5z M248.8,97.6
		c0-1.1-0.9-1.8-2.4-1.8c-1.5,0-2.4,0.7-2.4,1.8c0,1.1,0.9,1.8,2.4,1.8C247.9,99.4,248.8,98.7,248.8,97.6z M248.4,93.5
		c0-1.1-0.9-1.7-2-1.7c-1.1,0-2,0.5-2,1.7c0,1.2,0.9,1.7,2,1.7C247.5,95.2,248.4,94.7,248.4,93.5z"/>
	<path class="st1" d="M251.2,96.3h3.3v0.6h-3.3V96.3z"/>
	<path class="st1" d="M259.2,100.1c-1.8,0-2.9-1-3-2.6h0.7c0.1,1.2,0.9,2,2.3,2c1.3,0,2.2-0.7,2.2-1.8c0-1.1-0.8-1.7-2-1.7h-1v-0.7
		h0.9c0.9,0,1.8-0.4,1.8-1.6c0-1-0.6-1.8-1.9-1.8c-1.3,0-2.1,0.9-2.1,2.1h-0.7c0.1-1.5,1.1-2.7,2.8-2.7c1.8,0,2.7,1.2,2.7,2.4
		c0,1.1-0.7,1.8-1.5,1.9c1,0.1,1.7,1,1.7,2.1C262.1,98.9,261,100.1,259.2,100.1z"/>
	<path class="st1" d="M268.8,95.1c-0.3,1-1.1,1.9-2.5,1.9c-1.7,0-2.8-1.3-2.8-2.9c0-1.7,1.1-3,2.9-3c1.8,0,3.1,1.7,3.1,4.3
		c0,2.7-1.4,4.6-3.3,4.6c-1.5,0-2.5-0.9-2.7-2.3h0.7c0.2,1.1,0.9,1.6,2,1.6C267.9,99.4,268.8,97.6,268.8,95.1z M264.2,94.1
		c0,1.3,0.8,2.3,2.2,2.3c1.3,0,2.2-1,2.2-2.3c0-1.3-0.9-2.3-2.2-2.3C265,91.9,264.2,92.8,264.2,94.1z"/>
</g>
<g class="st4">
	<path class="st0" d="M275.9,92.6c1.5,0,2.1-0.4,2.3-1.3h1.9v8.6h-2.5v-5.6h-1.7V92.6z"/>
	<path class="st0" d="M285.6,91.2c2.5,0,4,1.9,4,4.4c0,2.6-1.5,4.4-4,4.4c-2.5,0-4-1.9-4-4.4C281.5,93.1,283.1,91.2,285.6,91.2z
		 M285.6,98.2c1,0,1.5-0.9,1.5-2.6c0-1.7-0.5-2.6-1.5-2.6c-1,0-1.5,0.9-1.5,2.6C284.1,97.3,284.6,98.2,285.6,98.2z"/>
	<path class="st0" d="M292.7,91.2c1.2,0,2.1,1,2.1,2.1c0,1.2-1,2.1-2.1,2.1c-1.2,0-2.1-1-2.1-2.1C290.5,92.2,291.5,91.2,292.7,91.2z
		 M298.9,91.3l-6,8.6h-1.4l6-8.6H298.9z M292.7,94.2c0.5,0,0.9-0.4,0.9-0.9c0-0.5-0.4-0.9-0.9-0.9c-0.5,0-0.9,0.4-0.9,0.9
		C291.8,93.8,292.2,94.2,292.7,94.2z M297.8,95.8c1.2,0,2.1,1,2.1,2.1c0,1.2-0.9,2.1-2.1,2.1c-1.2,0-2.1-1-2.1-2.1
		C295.7,96.8,296.6,95.8,297.8,95.8z M297.8,98.8c0.5,0,0.9-0.4,0.9-0.9c0-0.5-0.4-0.9-0.9-0.9s-0.9,0.4-0.9,0.9
		C296.9,98.4,297.3,98.8,297.8,98.8z"/>
</g>
<rect x="223.4" y="109.9" class="st5" width="7.8" height="7.8"/>
<text transform="matrix(1 0 0 1 231.244 117.7785)" class="st1 st2 st3"> </text>
<g class="st4">
	<path class="st1" d="M243.9,114.7h1.9v0.6h-1.9v2.5h-0.7v-2.5H239v-0.6l4.1-5.5h0.9V114.7z M239.8,114.7h3.5V110L239.8,114.7z"/>
	<path class="st1" d="M250.3,109.1c2,0,3.3,1.9,3.3,4.4c0,2.6-1.3,4.4-3.3,4.4c-2,0-3.3-1.9-3.3-4.4
		C247,110.9,248.3,109.1,250.3,109.1z M250.3,117.2c1.7,0,2.5-1.5,2.5-3.7c0-2.2-0.9-3.7-2.5-3.7c-1.7,0-2.5,1.5-2.5,3.7
		C247.7,115.7,248.6,117.2,250.3,117.2z"/>
	<path class="st1" d="M255.3,114.1h3.3v0.6h-3.3V114.1z"/>
	<path class="st1" d="M265.1,114.7h1.9v0.6h-1.9v2.5h-0.7v-2.5h-4.3v-0.6l4.1-5.5h0.9V114.7z M260.9,114.7h3.5V110L260.9,114.7z"/>
	<path class="st1" d="M273.4,113c-0.3,1-1.1,1.9-2.5,1.9c-1.7,0-2.8-1.3-2.8-2.9c0-1.7,1.1-3,2.9-3c1.8,0,3.1,1.7,3.1,4.3
		c0,2.7-1.4,4.6-3.3,4.6c-1.5,0-2.5-0.9-2.7-2.3h0.7c0.2,1.1,0.9,1.6,2,1.6C272.6,117.3,273.4,115.5,273.4,113z M268.8,112
		c0,1.3,0.8,2.3,2.2,2.3c1.3,0,2.2-1,2.2-2.3c0-1.3-0.9-2.3-2.2-2.3C269.6,109.7,268.8,110.7,268.8,112z"/>
</g>
<g class="st4">
	<path class="st0" d="M284.7,114.8c-1.1,0.5-1.4,0.8-1.5,1.1h4.1v1.9h-6.9v-0.9c0-1.9,1.5-2.9,2.8-3.6c1.2-0.7,1.8-0.9,1.8-1.5
		c0-0.6-0.4-0.8-0.9-0.8c-0.6,0-1.1,0.5-1.1,1.2h-2.4c0.1-1.7,1.4-3.1,3.5-3.1c1.9,0,3.3,1,3.3,2.8
		C287.3,113.3,286.4,114,284.7,114.8z"/>
</g>
<g class="st4">
	<path class="st0" d="M288,111.1v-1.9h6.7v2c-1.9,2.4-2.4,4-2.4,6.5h-2.6c0-2.7,1.1-4.7,2.6-6.6H288z"/>
</g>
<g class="st4">
	<path class="st0" d="M297.9,109.1c1.2,0,2.1,1,2.1,2.1c0,1.2-1,2.1-2.1,2.1c-1.2,0-2.1-1-2.1-2.1
		C295.8,110,296.8,109.1,297.9,109.1z M304.2,109.2l-6,8.6h-1.4l6-8.6H304.2z M297.9,112.1c0.5,0,0.9-0.4,0.9-0.9
		c0-0.5-0.4-0.9-0.9-0.9c-0.5,0-0.9,0.4-0.9,0.9C297.1,111.7,297.5,112.1,297.9,112.1z M303.1,113.7c1.2,0,2.1,1,2.1,2.1
		c0,1.2-0.9,2.1-2.1,2.1c-1.2,0-2.1-1-2.1-2.1C300.9,114.6,301.9,113.7,303.1,113.7z M303.1,116.7c0.5,0,0.9-0.4,0.9-0.9
		c0-0.5-0.4-0.9-0.9-0.9s-0.9,0.4-0.9,0.9C302.2,116.3,302.6,116.7,303.1,116.7z"/>
</g>
<rect x="223.4" y="127.8" class="st6" width="7.8" height="7.8"/>
<text transform="matrix(1 0 0 1 231.244 135.6447)" class="st1 st2 st3"> </text>
<g class="st4">
	<path class="st1" d="M240.1,131.7h-0.6l0.5-4.6h4.7v0.7h-4.1l-0.3,3.2c0.4-0.5,1.2-0.9,2-0.9c1.8,0,2.9,1.3,2.9,2.9
		c0,1.6-1.1,2.9-2.9,2.9c-1.6,0-2.9-1-3-2.7h0.7c0.1,1.2,1,2,2.3,2c1.5,0,2.2-1.1,2.2-2.3c0-1.2-0.7-2.3-2.2-2.3
		C241.2,130.6,240.5,131.1,240.1,131.7z"/>
	<path class="st1" d="M249.6,126.9c2,0,3.3,1.9,3.3,4.4c0,2.6-1.3,4.4-3.3,4.4c-2,0-3.3-1.9-3.3-4.4
		C246.4,128.8,247.7,126.9,249.6,126.9z M249.6,135.1c1.7,0,2.5-1.5,2.5-3.7c0-2.2-0.9-3.7-2.5-3.7s-2.5,1.5-2.5,3.7
		C247.1,133.6,248,135.1,249.6,135.1z"/>
	<path class="st1" d="M254.7,132h3.3v0.6h-3.3V132z"/>
	<path class="st1" d="M260.7,131.7H260l0.5-4.6h4.7v0.7H261l-0.3,3.2c0.4-0.5,1.2-0.9,2-0.9c1.8,0,2.9,1.3,2.9,2.9
		c0,1.6-1.1,2.9-2.9,2.9c-1.6,0-2.9-1-3-2.7h0.7c0.1,1.2,1,2,2.3,2c1.5,0,2.2-1.1,2.2-2.3c0-1.2-0.7-2.3-2.2-2.3
		C261.7,130.6,261,131.1,260.7,131.7z"/>
	<path class="st1" d="M272.2,130.9c-0.3,1-1.1,1.9-2.5,1.9c-1.7,0-2.8-1.3-2.8-2.9c0-1.7,1.1-3,2.9-3c1.8,0,3.1,1.7,3.1,4.3
		c0,2.7-1.4,4.6-3.3,4.6c-1.5,0-2.5-0.9-2.7-2.3h0.7c0.2,1.1,0.9,1.6,2,1.6C271.3,135.1,272.2,133.3,272.2,130.9z M267.6,129.9
		c0,1.3,0.8,2.3,2.2,2.3c1.3,0,2.2-1,2.2-2.3c0-1.3-0.9-2.3-2.2-2.3C268.4,127.6,267.6,128.6,267.6,129.9z"/>
</g>
<g class="st4">
	<path class="st0" d="M282.7,135.8c-2.1,0-3.5-1.2-3.7-2.8h2.4c0,0.6,0.6,1,1.3,1c0.8,0,1.2-0.3,1.2-0.9c0-0.6-0.5-0.8-1.2-0.8h-0.8
		v-1.7h0.8c0.7,0,1.1-0.3,1.1-0.9c0-0.5-0.4-0.9-1-0.9c-0.6,0-1.1,0.4-1.1,1h-2.3c0.1-1.5,1.3-2.8,3.5-2.8c2.1,0,3.2,1.2,3.2,2.6
		c0,0.9-0.6,1.7-1.5,1.8c1.1,0.2,1.7,0.9,1.7,1.9C286.2,134.6,285,135.8,282.7,135.8z"/>
</g>
<g class="st4">
	<path class="st0" d="M289.5,132.1h-2.3l0.5-5h5.7v1.9h-3.8l-0.1,1.2c0.3-0.2,0.8-0.4,1.6-0.4c1.7,0,2.9,1.2,2.9,3
		c0,1.7-1.3,3-3.5,3c-2.3,0-3.5-1.2-3.7-2.8h2.5c0,0.6,0.4,1,1.1,1c0.7,0,1.1-0.5,1.1-1.2c0-0.7-0.4-1.2-1.1-1.2
		C290,131.6,289.7,131.8,289.5,132.1z"/>
</g>
<g class="st4">
	<path class="st0" d="M296.8,126.9c1.2,0,2.1,1,2.1,2.1c0,1.2-1,2.1-2.1,2.1c-1.2,0-2.1-1-2.1-2.1
		C294.7,127.9,295.6,126.9,296.8,126.9z M303.1,127.1l-6,8.6h-1.4l6-8.6H303.1z M296.8,130c0.5,0,0.9-0.4,0.9-0.9
		c0-0.5-0.4-0.9-0.9-0.9c-0.5,0-0.9,0.4-0.9,0.9C295.9,129.6,296.4,130,296.8,130z M301.9,131.5c1.2,0,2.1,1,2.1,2.1
		c0,1.2-0.9,2.1-2.1,2.1c-1.2,0-2.1-1-2.1-2.1C299.8,132.5,300.8,131.5,301.9,131.5z M301.9,134.6c0.5,0,0.9-0.4,0.9-0.9
		c0-0.5-0.4-0.9-0.9-0.9s-0.9,0.4-0.9,0.9C301,134.2,301.5,134.6,301.9,134.6z"/>
</g>
<rect x="223.4" y="145.7" class="st7" width="7.8" height="7.8"/>
<text transform="matrix(1 0 0 1 231.244 153.5109)" class="st1 st2 st3"> </text>
<g class="st4">
	<path class="st1" d="M239.9,149.7c0.3-1,1.1-1.9,2.5-1.9c1.7,0,2.8,1.3,2.8,2.9c0,1.7-1.1,3-2.9,3c-1.8,0-3.1-1.7-3.1-4.3
		c0-2.7,1.4-4.6,3.3-4.6c1.5,0,2.5,0.9,2.7,2.3h-0.7c-0.2-1.1-0.9-1.6-2-1.6C240.8,145.5,239.9,147.3,239.9,149.7z M244.5,150.7
		c0-1.3-0.8-2.3-2.2-2.3c-1.3,0-2.2,1-2.2,2.3c0,1.3,0.9,2.3,2.2,2.3C243.7,153,244.5,152,244.5,150.7z"/>
	<path class="st1" d="M249.9,144.8c2,0,3.3,1.9,3.3,4.4c0,2.6-1.3,4.4-3.3,4.4c-2,0-3.3-1.9-3.3-4.4
		C246.6,146.7,247.9,144.8,249.9,144.8z M249.9,153c1.7,0,2.5-1.5,2.5-3.7c0-2.2-0.9-3.7-2.5-3.7c-1.7,0-2.5,1.5-2.5,3.7
		C247.3,151.4,248.2,153,249.9,153z"/>
	<path class="st1" d="M254.9,149.9h3.3v0.6h-3.3V149.9z"/>
</g>
<g class="st4">
	<path class="st1" d="M260.7,149.7c0.3-1,1.1-1.9,2.5-1.9c1.7,0,2.8,1.3,2.8,2.9c0,1.7-1.1,3-2.9,3c-1.8,0-3.1-1.7-3.1-4.3
		c0-2.7,1.4-4.6,3.3-4.6c1.5,0,2.5,0.9,2.7,2.3h-0.7c-0.2-1.1-0.9-1.6-2-1.6C261.6,145.5,260.7,147.3,260.7,149.7z M265.3,150.7
		c0-1.3-0.8-2.3-2.2-2.3c-1.3,0-2.2,1-2.2,2.3c0,1.3,0.9,2.3,2.2,2.3C264.5,153,265.3,152,265.3,150.7z"/>
</g>
<g class="st4">
	<path class="st1" d="M272.7,148.7c-0.3,1-1.1,1.9-2.5,1.9c-1.7,0-2.8-1.3-2.8-2.9c0-1.7,1.1-3,2.9-3c1.8,0,3.1,1.7,3.1,4.3
		c0,2.7-1.4,4.6-3.3,4.6c-1.5,0-2.5-0.9-2.7-2.3h0.7c0.2,1.1,0.9,1.6,2,1.6C271.8,153,272.7,151.2,272.7,148.7z M268.1,147.7
		c0,1.3,0.8,2.3,2.2,2.3c1.3,0,2.2-1,2.2-2.3c0-1.3-0.9-2.3-2.2-2.3C268.9,145.5,268.1,146.4,268.1,147.7z"/>
</g>
<g class="st4">
	<path class="st0" d="M284.1,150.5c-1.1,0.5-1.4,0.8-1.5,1.1h4.1v1.9h-6.9v-0.9c0-1.9,1.5-2.9,2.8-3.6c1.2-0.7,1.8-0.9,1.8-1.5
		c0-0.6-0.4-0.8-0.9-0.8c-0.6,0-1.1,0.5-1.1,1.2h-2.4c0.1-1.7,1.4-3.1,3.5-3.1c1.9,0,3.3,1,3.3,2.8
		C286.6,149,285.7,149.8,284.1,150.5z"/>
</g>
<g class="st4">
	<path class="st0" d="M287.6,146.2c1.5,0,2.1-0.4,2.3-1.3h1.9v8.6h-2.5v-5.6h-1.7V146.2z"/>
	<path class="st0" d="M295.5,144.8c1.2,0,2.1,1,2.1,2.1c0,1.2-1,2.1-2.1,2.1c-1.2,0-2.1-1-2.1-2.1
		C293.4,145.8,294.4,144.8,295.5,144.8z M301.8,144.9l-6,8.6h-1.4l6-8.6H301.8z M295.5,147.8c0.5,0,0.9-0.4,0.9-0.9
		c0-0.5-0.4-0.9-0.9-0.9c-0.5,0-0.9,0.4-0.9,0.9C294.7,147.4,295.1,147.8,295.5,147.8z M300.7,149.4c1.2,0,2.1,1,2.1,2.1
		c0,1.2-0.9,2.1-2.1,2.1c-1.2,0-2.1-1-2.1-2.1C298.5,150.4,299.5,149.4,300.7,149.4z M300.7,152.4c0.5,0,0.9-0.4,0.9-0.9
		c0-0.5-0.4-0.9-0.9-0.9s-0.9,0.4-0.9,0.9C299.8,152,300.2,152.4,300.7,152.4z"/>
</g>
<rect x="223.4" y="163.5" class="st8" width="7.8" height="7.8"/>
<text transform="matrix(1 0 0 1 231.244 171.3771)" class="st1 st2 st3"> </text>
<g class="st4">
	<path class="st1" d="M238.8,163.5v-0.7h5.9v0.5c-2.1,2.5-2.8,5.1-2.9,8.1h-0.8c0-3.1,1.1-5.8,2.8-7.9H238.8z"/>
</g>
<g class="st4">
	<path class="st1" d="M249.1,162.7c2,0,3.3,1.9,3.3,4.4c0,2.6-1.3,4.4-3.3,4.4s-3.3-1.9-3.3-4.4
		C245.8,164.5,247.1,162.7,249.1,162.7z M249.1,170.8c1.7,0,2.5-1.5,2.5-3.7c0-2.2-0.9-3.7-2.5-3.7c-1.7,0-2.5,1.5-2.5,3.7
		C246.5,169.3,247.4,170.8,249.1,170.8z"/>
	<path class="st1" d="M257.4,167.7v2.8h-0.6v-2.8h-2.8v-0.6h2.8v-2.8h0.6v2.8h2.8v0.6H257.4z"/>
</g>
<g class="st4">
	<path class="st0" d="M266.5,164.7v-1.9h6.7v2c-1.9,2.4-2.4,4-2.4,6.5h-2.6c0-2.7,1.1-4.7,2.6-6.6H266.5z"/>
</g>
<g class="st4">
	<path class="st0" d="M276.4,162.7c1.2,0,2.1,1,2.1,2.1c0,1.2-1,2.1-2.1,2.1c-1.2,0-2.1-1-2.1-2.1
		C274.3,163.6,275.2,162.7,276.4,162.7z M282.6,162.8l-6,8.6h-1.4l6-8.6H282.6z M276.4,165.7c0.5,0,0.9-0.4,0.9-0.9
		c0-0.5-0.4-0.9-0.9-0.9c-0.5,0-0.9,0.4-0.9,0.9C275.5,165.3,275.9,165.7,276.4,165.7z M281.5,167.3c1.2,0,2.1,1,2.1,2.1
		c0,1.2-0.9,2.1-2.1,2.1c-1.2,0-2.1-1-2.1-2.1C279.4,168.2,280.3,167.3,281.5,167.3z M281.5,170.3c0.5,0,0.9-0.4,0.9-0.9
		c0-0.5-0.4-0.9-0.9-0.9s-0.9,0.4-0.9,0.9C280.6,169.9,281,170.3,281.5,170.3z"/>
</g>
<line class="st9" x1="218.3" y1="63.1" x2="278.8" y2="63.1"/>
<g class="st4">
	<path class="st1" d="M218.9,49.9c1.7,0,1.9-0.1,1.9-0.6V38.2c0-0.5-0.3-0.6-1.9-0.6v-0.9h6.1c2.7,0,5.1,0.9,5.1,3.5
		c0,1.7-1.5,3-3.2,3.2v0.1c2.1,0.1,3.9,1.3,3.9,3.3c0,2.6-2.1,4-5.8,4h-6.2V49.9z M224.5,43.2c2.1,0,3.5-1,3.5-2.8
		c0-1.8-1.5-2.6-3.5-2.6h-1.7v5.4H224.5z M225,49.9c2.3,0,3.8-0.8,3.8-3c0-1.7-1.5-2.7-3.8-2.7h-2.1v5.7H225z"/>
	<path class="st1" d="M233.5,55.6c-0.9,0-1.6-0.5-1.6-1.3c0-0.7,0.5-1,1-1c0.8,0,1.1,1,1.5,1c0.6,0,1.4-1.2,2.3-3.4l-3.6-8.8
		c-0.1-0.3-0.3-0.4-1.3-0.4v-0.9h4.6v0.9c-1.2,0-1.4,0.1-1.4,0.3c0,0.1,0,0.2,0.1,0.3l2.4,6.2h0.1l2.4-6.2c0-0.1,0.1-0.2,0.1-0.3
		c0-0.2-0.1-0.2-1.4-0.3v-0.9h3.8v0.9c-1.1,0-1.2,0.1-1.3,0.4l-3.7,9.2C236.5,53.7,235.3,55.6,233.5,55.6z"/>
</g>
<g class="st4">
	<path class="st1" d="M253.6,49.3c-0.7,1-2.1,1.8-3.4,1.8c-1.4,0-2.5-0.9-2.5-2.3c0-1.9,1.8-3.2,5.8-4v-1.3c0-1.2-0.6-1.8-1.8-1.8
		c-0.9,0-1.7,0.5-1.7,0.9c0,0.3,0.2,0.4,0.2,0.9c0,0.6-0.5,1-1.1,1c-0.6,0-1.1-0.5-1.1-1.2c0-1.5,2.1-2.6,4.1-2.6
		c1.9,0,3.2,0.7,3.2,2.8v5.4c0,0.8,0.5,1.1,0.9,1.1c0.4,0,0.7-0.2,1-0.4l0.3,0.7c-0.5,0.5-1.2,1-1.9,1
		C254.6,51.1,253.8,50.3,253.6,49.3z M249.5,48.4c0,0.9,0.6,1.4,1.4,1.4c1,0,1.8-0.5,2.6-1.3v-2.9C250.9,46.3,249.5,47,249.5,48.4z"
		/>
	<path class="st1" d="M262.4,55.6c-2.8,0-4.7-0.9-4.7-2.7c0-1.1,1.1-1.8,2.4-2.1c-0.9-0.3-1.4-1-1.4-1.8c0-1.1,0.9-1.8,1.8-2.1
		c-1.2-0.6-1.9-1.7-1.9-2.9c0-1.9,1.9-3.4,4.1-3.4c1.2,0,2.3,0.5,3,1.2c0.6-0.8,1.4-1.6,2.3-1.6c0.8,0,1.3,0.5,1.3,1.2
		c0,0.7-0.6,1.1-1,1.1c-0.8,0-0.9-0.7-1.2-0.7c-0.3,0-0.6,0.2-0.9,0.5c0.4,0.5,0.6,1.1,0.6,1.7c0,1.8-1.8,3.4-4,3.4
		c-0.5,0-1-0.1-1.4-0.2c-0.8,0.4-1.3,0.8-1.3,1.3c0,0.4,0.3,0.8,0.8,0.8h4c1.9,0,3.4,0.7,3.4,2.6C268.1,54.3,265.4,55.6,262.4,55.6z
		 M260.7,51.1c-0.8,0.3-1.3,0.8-1.3,1.7c0,1.2,1.4,1.8,3.2,1.8c2.2,0,3.9-0.9,3.9-2.2c0-1-0.6-1.3-2-1.3H260.7z M262.6,46.5
		c1.3,0,2.1-1,2.1-2.5c0-1.5-0.8-2.5-2.1-2.5c-1.3,0-2.1,1-2.1,2.5C260.5,45.5,261.3,46.5,262.6,46.5z"/>
</g>
<g class="st4">
	<path class="st1" d="M273.9,51.1c-2.4,0-4.7-1.9-4.7-5.1c0-3.1,2.2-5.4,4.6-5.4c2.6,0,3.8,1.9,3.8,4.3v0.7h-6.7v0.1
		c0,2.8,1.5,4.2,3.2,4.2c1.1,0,1.8-0.4,2.7-1.5l0.8,0.6C277,50.3,275.5,51.1,273.9,51.1z M271.1,44.6h4.8c0-1.8-0.6-3-2.1-3
		C272.5,41.6,271.4,42.7,271.1,44.6z"/>
</g>
<g>
	<path class="st8" d="M105.8,63.5V0C89.5,0,74.2,3.5,59.5,10.7l27.8,57.1C92.9,65,99.2,63.5,105.8,63.5z"/>
	<path class="st7" d="M63.6,105.7c0-16.7,9.7-31.1,23.7-37.9L59.5,10.7C15.4,32.2-7.3,77.7,2.1,125.9l62.3-12.1
		C63.9,111.2,63.6,108.5,63.6,105.7z"/>
	<path class="st6" d="M105.8,147.9c-20.5,0-37.7-14.7-41.4-34.1L2.1,125.9c0,0,0,0,0,0l-0.1,0c4.5,22.9,14.6,41.2,31.7,57.1
		c42.7,39.8,109.6,37.5,149.4-5.2l-46.4-43.3C128.9,142.7,118,147.9,105.8,147.9z"/>
	<path class="st6" d="M64.4,113.8C64.4,113.8,64.4,113.8,64.4,113.8L2.1,125.9c0,0,0,0,0,0L64.4,113.8z"/>
	<path class="st5" d="M168,20.2l-37.4,51.4c10.5,7.7,17.4,20.1,17.4,34.1c0,11.1-4.3,21.2-11.3,28.8l46.5,43.3
		c3.2-3.5,5.5-6.2,8.2-10C225.7,120.6,215.2,54.5,168,20.2z"/>
	<path class="st0" d="M130.6,71.6l37.3-51.4C149,6.5,129.1,0,105.8,0v63.5C115.1,63.5,123.6,66.5,130.6,71.6z"/>
</g>
</svg>
