<?xml version="1.0" encoding="utf-8"?>
<!-- Generator: Adobe Illustrator 23.0.3, SVG Export Plug-In . SVG Version: 6.00 Build 0)  -->
<svg version="1.1" id="Layer_1" xmlns="http://www.w3.org/2000/svg" xmlns:xlink="http://www.w3.org/1999/xlink" x="0px" y="0px"
	 viewBox="0 0 341.1 211.4" style="enable-background:new 0 0 341.1 211.4;" xml:space="preserve">
<style type="text/css">
	.st0{clip-path:url(#SVGID_2_);fill:#BABED5;}
	.st1{fill:none;stroke:#084E8A;stroke-width:1.03;stroke-miterlimit:10;}
	.st2{fill:#231F20;}
	.st3{fill:#084E8A;}
	.st4{font-family:'UntitledSans-Light';}
	.st5{font-size:12px;}
	.st6{fill:#BABED5;}
</style>
<g>
	<defs>
		<rect id="SVGID_1_" width="341.1" height="211.4"/>
	</defs>
	<clipPath id="SVGID_2_">
		<use xlink:href="#SVGID_1_"  style="overflow:visible;"/>
	</clipPath>
	<path class="st0" d="M63.5,105.7c0-23.3,18.9-42.2,42.2-42.2c0,0,0,0,0,0V0c-14,0-26.6,2.4-39.6,7.7C12,29.6-14.1,91.2,7.7,145.3
		l58.9-23.8C64.6,116.6,63.5,111.3,63.5,105.7z"/>
</g>
<line class="st1" x1="222.1" y1="88.8" x2="314.7" y2="88.8"/>
<g>
	<path class="st2" d="M222.8,75.7c1.7,0,1.9-0.1,1.9-0.6V64c0-0.5-0.3-0.6-1.9-0.6v-0.9h6.1c2.7,0,5.1,0.9,5.1,3.5
		c0,1.7-1.5,3-3.2,3.2v0.1c2.1,0.1,3.9,1.3,3.9,3.3c0,2.6-2.1,4-5.8,4h-6.2V75.7z M228.4,68.9c2.1,0,3.5-1,3.5-2.8
		c0-1.8-1.5-2.6-3.5-2.6h-1.7v5.4H228.4z M228.9,75.7c2.3,0,3.8-0.8,3.8-3c0-1.7-1.5-2.7-3.8-2.7h-2.1v5.7H228.9z"/>
	<path class="st2" d="M237.1,81.4c-0.9,0-1.6-0.5-1.6-1.3c0-0.7,0.5-1,1-1c0.8,0,1.1,1,1.5,1c0.6,0,1.4-1.2,2.3-3.4l-3.6-8.8
		c-0.1-0.3-0.3-0.4-1.3-0.4v-0.9h4.6v0.9c-1.2,0-1.4,0.1-1.4,0.3c0,0.1,0,0.2,0.1,0.3l2.4,6.2h0.1l2.4-6.2c0-0.1,0.1-0.2,0.1-0.3
		c0-0.2-0.1-0.2-1.4-0.3v-0.9h3.8v0.9c-1.1,0-1.2,0.1-1.3,0.4l-3.7,9.2C240.2,79.5,239,81.4,237.1,81.4z"/>
	<path class="st2" d="M255.5,81.4c-2.8,0-4.7-0.9-4.7-2.7c0-1.1,1.1-1.8,2.4-2.1c-0.9-0.3-1.4-1-1.4-1.8c0-1.1,0.9-1.8,1.8-2.1
		c-1.2-0.6-1.9-1.7-1.9-2.9c0-1.9,1.9-3.4,4.1-3.4c1.2,0,2.3,0.5,3,1.2c0.6-0.8,1.4-1.6,2.3-1.6c0.8,0,1.3,0.5,1.3,1.2
		c0,0.7-0.6,1.1-1,1.1c-0.8,0-0.9-0.7-1.2-0.7c-0.3,0-0.6,0.2-0.9,0.5c0.4,0.5,0.6,1.1,0.6,1.7c0,1.8-1.8,3.4-4,3.4
		c-0.5,0-1-0.1-1.4-0.2c-0.8,0.4-1.3,0.8-1.3,1.3c0,0.4,0.3,0.8,0.8,0.8h4c1.9,0,3.4,0.7,3.4,2.6C261.3,80.1,258.5,81.4,255.5,81.4z
		 M253.8,76.9c-0.8,0.3-1.3,0.8-1.3,1.7c0,1.2,1.4,1.8,3.2,1.8c2.2,0,3.9-0.9,3.9-2.2c0-1-0.6-1.3-2-1.3H253.8z M255.7,72.3
		c1.3,0,2.1-1,2.1-2.5c0-1.5-0.8-2.5-2.1-2.5c-1.3,0-2.1,1-2.1,2.5C253.6,71.3,254.5,72.3,255.7,72.3z"/>
	<path class="st2" d="M267.3,76.9c-2.4,0-4.7-1.9-4.7-5.1c0-3.1,2.2-5.4,4.6-5.4c2.6,0,3.8,1.9,3.8,4.3v0.7h-6.7v0.1
		c0,2.8,1.5,4.2,3.2,4.2c1.1,0,1.8-0.4,2.7-1.5l0.8,0.6C270.4,76,268.9,76.9,267.3,76.9z M264.5,70.4h4.8c0-1.8-0.6-3-2.1-3
		C265.9,67.4,264.8,68.4,264.5,70.4z"/>
	<path class="st2" d="M277.3,76.6h-4.6v-0.9c1.3,0,1.4,0,1.4-0.4v-6.5c0-0.5-0.1-0.5-0.5-0.7l-1-0.5v-0.5l3-0.9h0.3v1.9
		c0.6-0.8,2-1.9,3.5-1.9c2.1,0,2.9,1.7,2.9,3.6v5.4c0,0.4,0.1,0.4,1.4,0.4v0.9H279v-0.9c1.3,0,1.4,0,1.4-0.4v-5.2
		c0-1.5-0.6-2.4-2-2.4c-1,0-2,0.6-2.6,1.3v6.3c0,0.4,0.1,0.4,1.4,0.4V76.6z"/>
	<path class="st2" d="M292.3,76.9H292V75c-0.6,0.9-1.8,1.9-3.2,1.9c-2.4,0-4-2.2-4-4.9c0-3.5,2.1-5.6,4.7-5.6c0.9,0,1.9,0.4,2.5,0.9
		V63c0-0.5-0.1-0.5-0.5-0.7l-1-0.5v-0.5l3-0.9h0.3v14.2c0,0.5,0.1,0.5,0.5,0.7l1,0.5v0.5L292.3,76.9z M289.5,75.5
		c1.1,0,1.8-0.6,2.4-1.3v-5.7c-0.5-0.8-1.3-1.2-2.2-1.2c-1.8,0-3.1,1.7-3.1,4.2C286.7,73.8,287.8,75.5,289.5,75.5z"/>
	<path class="st2" d="M301.1,76.9c-2.4,0-4.7-1.9-4.7-5.1c0-3.1,2.2-5.4,4.6-5.4c2.6,0,3.8,1.9,3.8,4.3v0.7h-6.7v0.1
		c0,2.8,1.5,4.2,3.2,4.2c1.1,0,1.8-0.4,2.7-1.5l0.8,0.6C304.3,76,302.7,76.9,301.1,76.9z M298.4,70.4h4.8c0-1.8-0.6-3-2.1-3
		C299.8,67.4,298.6,68.4,298.4,70.4z"/>
	<path class="st2" d="M311.8,76.6h-5.3v-0.9c1.3,0,1.4,0,1.4-0.4v-6.5c0-0.5-0.1-0.5-0.5-0.7l-1-0.5v-0.5l3-0.9h0.3v2.9
		c0.6-1.1,2-2.9,3.2-2.9c0.9,0,1.4,0.6,1.4,1.3c0,0.8-0.5,1.2-1.2,1.2c-0.6,0-0.9-0.6-1.4-0.6c-0.6,0-1.5,1.1-2.1,2v5.1
		c0,0.4,0.1,0.5,2,0.5V76.6z"/>
</g>
<rect x="223.3" y="113.2" class="st3" width="7.8" height="7.8"/>
<text transform="matrix(1 0 0 1 231.1143 121.0169)" class="st2 st4 st5"> </text>
<g>
	<path class="st2" d="M243.3,121l-3-7.9h0v7.9h-0.7v-8.6h1.2l2.8,7.7h0l2.8-7.7h1.2v8.6h-0.7v-7.9h0l-3,7.9H243.3z"/>
	<path class="st2" d="M253.6,120c-0.3,0.7-1.1,1.2-2.1,1.2c-1,0-1.9-0.6-1.9-1.7c0-1.1,0.8-1.6,2-1.8l2-0.3V117
		c0-1.1-0.7-1.5-1.6-1.5c-0.9,0-1.4,0.5-1.5,1.2h-0.7c0.1-1.2,1.1-1.8,2.2-1.8c1.4,0,2.2,0.6,2.2,2v3c0,0.4,0,0.8,0.2,1.1h-0.7
		C253.6,120.7,253.6,120.2,253.6,120z M253.6,118.6V118l-1.8,0.2c-0.8,0.1-1.5,0.3-1.5,1.2c0,0.6,0.4,1.1,1.3,1.1
		C252.5,120.6,253.6,119.9,253.6,118.6z"/>
	<path class="st2" d="M256.5,121v-8.8h0.7v8.8H256.5z"/>
	<path class="st2" d="M261.8,121.2c-1.7,0-2.8-1.2-2.8-3.1c0-2,1.2-3.2,2.7-3.2c1.7,0,2.5,1.4,2.5,2.9v0.3h-4.5
		c0,1.6,0.9,2.4,2.1,2.4c0.9,0,1.4-0.4,1.7-1.2h0.7C263.9,120.6,262.8,121.2,261.8,121.2z M259.7,117.6h3.8c0-1.2-0.6-2.1-1.8-2.1
		C260.7,115.5,259.9,116.1,259.7,117.6z"/>
</g>
<g>
	<path class="st3" d="M272.8,116.1c0.4-0.5,1-0.8,1.8-0.8c1.8,0,3.1,1.2,3.1,2.9c0,1.7-1.4,3-3.5,3c-2.2,0-3.8-1.6-3.8-4.3
		c0-2.8,1.6-4.6,3.9-4.6c1.8,0,3,1.1,3.2,2.5h-2.3c-0.1-0.4-0.4-0.7-1-0.7C273.4,114.2,272.8,115,272.8,116.1z M275.5,118.2
		c0-0.7-0.5-1.2-1.2-1.2c-0.7,0-1.2,0.5-1.2,1.2s0.5,1.2,1.2,1.2C275,119.4,275.5,118.9,275.5,118.2z"/>
	<path class="st3" d="M283.5,117.4c-0.4,0.5-1,0.8-1.8,0.8c-1.8,0-3.1-1.2-3.1-2.9c0-1.7,1.4-3,3.5-3c2.2,0,3.8,1.6,3.8,4.3
		c0,2.8-1.6,4.6-3.9,4.6c-1.8,0-3-1.1-3.2-2.5h2.3c0.1,0.4,0.4,0.7,1,0.7C282.9,119.3,283.5,118.5,283.5,117.4z M280.8,115.3
		c0,0.7,0.5,1.2,1.2,1.2c0.7,0,1.2-0.5,1.2-1.2s-0.5-1.2-1.2-1.2C281.3,114,280.8,114.6,280.8,115.3z"/>
	<path class="st3" d="M288.8,112.3c1.2,0,2.1,1,2.1,2.1c0,1.2-1,2.1-2.1,2.1c-1.2,0-2.1-1-2.1-2.1
		C286.7,113.3,287.6,112.3,288.8,112.3z M295,112.5l-6,8.6h-1.4l6-8.6H295z M288.8,115.3c0.5,0,0.9-0.4,0.9-0.9
		c0-0.5-0.4-0.9-0.9-0.9c-0.5,0-0.9,0.4-0.9,0.9C287.9,114.9,288.3,115.3,288.8,115.3z M293.9,116.9c1.2,0,2.1,1,2.1,2.1
		c0,1.2-0.9,2.1-2.1,2.1c-1.2,0-2.1-1-2.1-2.1C291.8,117.9,292.7,116.9,293.9,116.9z M293.9,119.9c0.5,0,0.9-0.4,0.9-0.9
		c0-0.5-0.4-0.9-0.9-0.9s-0.9,0.4-0.9,0.9C293,119.5,293.4,119.9,293.9,119.9z"/>
</g>
<rect x="223.3" y="131" class="st6" width="7.8" height="7.8"/>
<text transform="matrix(1 0 0 1 231.1143 138.8831)" class="st2 st4 st5"> </text>
<g>
	<path class="st2" d="M239.6,130.3h5.2v0.6h-4.5v3.4h4.1v0.6h-4.1v3.9h-0.7V130.3z"/>
	<path class="st2" d="M248.7,139c-1.7,0-2.8-1.2-2.8-3.1c0-2,1.2-3.2,2.7-3.2c1.7,0,2.5,1.4,2.5,2.9v0.3h-4.5c0,1.6,0.9,2.4,2.1,2.4
		c0.9,0,1.4-0.4,1.7-1.2h0.7C250.7,138.5,249.7,139,248.7,139z M246.6,135.4h3.8c0-1.2-0.6-2.1-1.8-2.1
		C247.6,133.4,246.7,134,246.6,135.4z"/>
	<path class="st2" d="M259.3,132.7c1.4,0,2,0.9,2,2.3v3.9h-0.7v-3.7c0-1.2-0.4-1.8-1.4-1.8c-1,0-1.8,0.7-1.8,2.2v3.3h-0.7v-3.7
		c0-1.2-0.4-1.8-1.4-1.8c-1,0-1.8,0.7-1.8,2.2v3.3h-0.7v-6h0.7v1.2c0.3-0.8,1-1.3,1.9-1.3c1,0,1.6,0.5,1.8,1.3
		C257.6,133.2,258.4,132.7,259.3,132.7z"/>
	<path class="st2" d="M267.1,137.8c-0.3,0.7-1.1,1.2-2.1,1.2c-1,0-1.9-0.6-1.9-1.7c0-1.1,0.8-1.6,2-1.8l2-0.3v-0.4
		c0-1.1-0.7-1.5-1.6-1.5c-0.9,0-1.4,0.5-1.5,1.2h-0.7c0.1-1.2,1.1-1.8,2.2-1.8c1.4,0,2.2,0.6,2.2,2v3c0,0.4,0,0.8,0.2,1.1h-0.7
		C267.1,138.5,267.1,138.1,267.1,137.8z M267.1,136.5v-0.6l-1.8,0.2c-0.8,0.1-1.5,0.3-1.5,1.2c0,0.6,0.4,1.1,1.3,1.1
		C266.1,138.4,267.1,137.8,267.1,136.5z"/>
	<path class="st2" d="M270,138.9v-8.8h0.7v8.8H270z"/>
	<path class="st2" d="M275.3,139c-1.7,0-2.8-1.2-2.8-3.1c0-2,1.2-3.2,2.7-3.2c1.7,0,2.5,1.4,2.5,2.9v0.3h-4.5c0,1.6,0.9,2.4,2.1,2.4
		c0.9,0,1.4-0.4,1.7-1.2h0.7C277.4,138.5,276.4,139,275.3,139z M273.3,135.4h3.8c0-1.2-0.6-2.1-1.8-2.1
		C274.3,133.4,273.4,134,273.3,135.4z"/>
</g>
<g>
	<path class="st3" d="M287.5,139c-2.1,0-3.5-1.2-3.7-2.8h2.4c0,0.6,0.6,1,1.3,1c0.8,0,1.2-0.3,1.2-0.9c0-0.6-0.5-0.8-1.2-0.8h-0.8
		v-1.7h0.8c0.7,0,1.1-0.3,1.1-0.9c0-0.5-0.4-0.9-1-0.9c-0.6,0-1.1,0.4-1.1,1h-2.3c0.1-1.5,1.3-2.8,3.5-2.8c2.1,0,3.2,1.2,3.2,2.6
		c0,0.9-0.6,1.7-1.5,1.8c1.1,0.2,1.7,0.9,1.7,1.9C291,137.9,289.8,139,287.5,139z"/>
	<path class="st3" d="M291.8,131.6c1.5,0,2.1-0.4,2.3-1.3h1.9v8.6h-2.5v-5.6h-1.7V131.6z"/>
	<path class="st3" d="M299.7,130.2c1.2,0,2.1,1,2.1,2.1c0,1.2-1,2.1-2.1,2.1c-1.2,0-2.1-1-2.1-2.1
		C297.6,131.1,298.5,130.2,299.7,130.2z M305.9,130.3l-6,8.6h-1.4l6-8.6H305.9z M299.7,133.2c0.5,0,0.9-0.4,0.9-0.9
		c0-0.5-0.4-0.9-0.9-0.9c-0.5,0-0.9,0.4-0.9,0.9C298.8,132.8,299.2,133.2,299.7,133.2z M304.8,134.8c1.2,0,2.1,1,2.1,2.1
		c0,1.2-0.9,2.1-2.1,2.1c-1.2,0-2.1-1-2.1-2.1C302.7,135.7,303.6,134.8,304.8,134.8z M304.8,137.8c0.5,0,0.9-0.4,0.9-0.9
		c0-0.5-0.4-0.9-0.9-0.9s-0.9,0.4-0.9,0.9C303.9,137.4,304.3,137.8,304.8,137.8z"/>
</g>
<path class="st3" d="M105.7,0v63.5c23.3,0,42.2,18.9,42.2,42.2c0,23.3-18.9,42.2-42.2,42.2c-17.7,0-32.8-10.9-39.1-26.4L7.7,145.3
	c16.6,41.1,53.6,66.1,98,66.1c58.4,0,105.7-47.3,105.7-105.7S164.1,0,105.7,0z"/>
</svg>
