<?xml version="1.0" encoding="utf-8"?>
<!-- Generator: Adobe Illustrator 23.0.3, SVG Export Plug-In . SVG Version: 6.00 Build 0)  -->
<svg version="1.1" id="Layer_1" xmlns="http://www.w3.org/2000/svg" xmlns:xlink="http://www.w3.org/1999/xlink" x="0px" y="0px"
	 viewBox="0 0 410.8 211.4" style="enable-background:new 0 0 410.8 211.4;" xml:space="preserve">
<style type="text/css">
	.st0{fill:none;stroke:#084E8A;stroke-width:1.03;stroke-miterlimit:10;}
	.st1{fill:#231F20;}
	.st2{fill:#084E8A;}
	.st3{font-family:'UntitledSans-Light';}
	.st4{font-size:12px;}
	.st5{fill:#838FB6;}
	.st6{fill:#BABED5;}
	.st7{fill:#636466;}
	.st8{fill:#ACAEB1;}
	.st9{fill:#474749;}
	.st10{fill:#D1D3D4;}
</style>
<line class="st0" x1="222.3" y1="48.6" x2="410.8" y2="48.6"/>
<g>
	<path class="st1" d="M222.9,35.5c1.7,0,1.9-0.1,1.9-0.6V23.8c0-0.5-0.3-0.6-1.9-0.6v-0.9h6.1c2.7,0,5.1,0.9,5.1,3.5
		c0,1.7-1.5,3-3.2,3.2v0.1c2.1,0.1,3.9,1.3,3.9,3.3c0,2.6-2.1,4-5.8,4h-6.2V35.5z M228.5,28.7c2.1,0,3.5-1,3.5-2.8
		c0-1.8-1.5-2.6-3.5-2.6h-1.7v5.4H228.5z M229,35.5c2.3,0,3.8-0.8,3.8-3c0-1.7-1.5-2.7-3.8-2.7h-2.1v5.7H229z"/>
	<path class="st1" d="M237.2,41.2c-0.9,0-1.6-0.5-1.6-1.3c0-0.7,0.5-1,1-1c0.8,0,1.1,1,1.5,1c0.6,0,1.4-1.2,2.3-3.4l-3.6-8.8
		c-0.1-0.3-0.3-0.4-1.3-0.4v-0.9h4.6v0.9c-1.2,0-1.4,0.1-1.4,0.3c0,0.1,0,0.2,0.1,0.3l2.4,6.2h0.1l2.4-6.2c0-0.1,0.1-0.2,0.1-0.3
		c0-0.2-0.1-0.2-1.4-0.3v-0.9h3.8v0.9c-1.1,0-1.2,0.1-1.3,0.4l-3.7,9.2C240.3,39.3,239.1,41.2,237.2,41.2z"/>
	<path class="st1" d="M256.1,36.4h-4.6v-0.9c1.3,0,1.4,0,1.4-0.4v-6.5c0-0.5-0.1-0.5-0.5-0.7l-1-0.5V27l3-0.9h0.3v1.9
		c0.6-0.8,2-1.9,3.4-1.9c1.5,0,2.3,0.8,2.6,2c0.8-0.9,2.1-2,3.6-2c2.1,0,2.8,1.7,2.8,3.6v5.4c0,0.4,0.1,0.4,1.4,0.4v0.9h-4.6v-0.9
		c1.3,0,1.4,0,1.4-0.4v-5.2c0-1.6-0.6-2.4-1.9-2.4c-0.9,0-1.9,0.7-2.5,1.3c0,0.3,0.1,0.6,0.1,0.9v5.4c0,0.4,0.1,0.4,1.4,0.4v0.9
		h-4.6v-0.9c1.3,0,1.4,0,1.4-0.4v-5.2c0-1.6-0.6-2.4-1.9-2.4c-0.9,0-1.8,0.6-2.5,1.3v6.3c0,0.4,0.1,0.4,1.4,0.4V36.4z"/>
	<path class="st1" d="M274.2,36.7c-2.4,0-4.7-1.9-4.7-5.1c0-3.1,2.2-5.4,4.6-5.4c2.6,0,3.8,1.9,3.8,4.3v0.7h-6.7v0.1
		c0,2.8,1.5,4.2,3.2,4.2c1.1,0,1.8-0.4,2.7-1.5l0.8,0.6C277.4,35.8,275.8,36.7,274.2,36.7z M271.5,30.2h4.8c0-1.8-0.6-3-2.1-3
		C272.9,27.2,271.8,28.2,271.5,30.2z"/>
	<path class="st1" d="M284.2,36.4h-4.6v-0.9c1.3,0,1.4,0,1.4-0.4v-6.5c0-0.5-0.1-0.5-0.5-0.7l-1-0.5V27l3-0.9h0.3v1.9
		c0.6-0.8,2-1.9,3.4-1.9c1.5,0,2.3,0.8,2.6,2c0.8-0.9,2.1-2,3.6-2c2.1,0,2.8,1.7,2.8,3.6v5.4c0,0.4,0.1,0.4,1.4,0.4v0.9H292v-0.9
		c1.3,0,1.4,0,1.4-0.4v-5.2c0-1.6-0.6-2.4-1.9-2.4c-0.9,0-1.9,0.7-2.5,1.3c0,0.3,0.1,0.6,0.1,0.9v5.4c0,0.4,0.1,0.4,1.4,0.4v0.9
		h-4.6v-0.9c1.3,0,1.4,0,1.4-0.4v-5.2c0-1.6-0.6-2.4-1.9-2.4c-0.9,0-1.8,0.6-2.5,1.3v6.3c0,0.4,0.1,0.4,1.4,0.4V36.4z"/>
	<path class="st1" d="M302.8,36.7c-1,0-2-0.5-2.5-1.1l-1.2,0.9h-0.5V22.8c0-0.5-0.1-0.5-0.5-0.7l-1-0.5v-0.5l3-0.9h0.3v7.7
		c0.6-0.9,1.8-1.9,3.2-1.9c2.5,0,4,2.2,4,4.8C307.5,34.5,305.5,36.7,302.8,36.7z M300.4,28.8v5.7c0.5,0.8,1.4,1.1,2.2,1.1
		c1.9,0,3.1-1.6,3.1-4.2c0-2.2-0.9-3.9-2.7-3.9C301.8,27.5,300.8,28.2,300.4,28.8z"/>
	<path class="st1" d="M314,36.7c-2.4,0-4.7-1.9-4.7-5.1c0-3.1,2.2-5.4,4.6-5.4c2.6,0,3.8,1.9,3.8,4.3v0.7h-6.7v0.1
		c0,2.8,1.5,4.2,3.2,4.2c1.1,0,1.8-0.4,2.7-1.5l0.8,0.6C317.1,35.8,315.6,36.7,314,36.7z M311.2,30.2h4.8c0-1.8-0.6-3-2.1-3
		C312.6,27.2,311.5,28.2,311.2,30.2z"/>
	<path class="st1" d="M324.7,36.4h-5.3v-0.9c1.3,0,1.4,0,1.4-0.4v-6.5c0-0.5-0.1-0.5-0.5-0.7l-1-0.5V27l3-0.9h0.3V29
		c0.6-1.1,2-2.9,3.2-2.9c0.9,0,1.4,0.6,1.4,1.3c0,0.8-0.5,1.2-1.2,1.2c-0.6,0-0.9-0.6-1.4-0.6c-0.6,0-1.5,1.1-2.1,2v5.1
		c0,0.4,0.1,0.5,2,0.5V36.4z"/>
	<path class="st1" d="M330,28.8c0,2.3,5.6,1.1,5.6,4.7c0,2-1.9,3.2-4,3.2c-1.3,0-2.5-0.5-3.3-0.9l-0.2-2.6h0.8
		c0.4,1.9,1.4,2.6,2.9,2.6c1.1,0,2.1-0.6,2.1-1.7c0-2.5-5.5-1.2-5.5-4.7c0-1.8,1.6-3.2,3.6-3.2c1.2,0,2.2,0.4,2.9,0.8v2.6h-0.8
		c-0.2-1.4-0.8-2.3-2.3-2.3C330.8,27.2,330,27.8,330,28.8z"/>
	<path class="st1" d="M341.6,36.4H337v-0.9c1.3,0,1.4,0,1.4-0.4V22.8c0-0.5-0.1-0.5-0.5-0.7l-1-0.5v-0.5l3-0.9h0.3v7.7
		c0.6-0.8,2-1.9,3.5-1.9c2.1,0,2.9,1.7,2.9,3.6v5.4c0,0.4,0.1,0.4,1.4,0.4v0.9h-4.6v-0.9c1.3,0,1.4,0,1.4-0.4v-5.2
		c0-1.5-0.6-2.4-2-2.4c-1,0-2,0.6-2.6,1.3v6.3c0,0.4,0.1,0.4,1.4,0.4V36.4z"/>
	<path class="st1" d="M350,27.9l-1-0.5V27l3-0.9h0.3v9c0,0.4,0.1,0.4,1.4,0.4v0.9h-4.6v-0.9c1.3,0,1.4,0,1.4-0.4v-6.5
		C350.5,28.2,350.4,28.1,350,27.9z M351.4,21.2c0.8,0,1.4,0.6,1.4,1.4s-0.6,1.4-1.4,1.4c-0.8,0-1.4-0.6-1.4-1.4
		S350.6,21.2,351.4,21.2z"/>
	<path class="st1" d="M360,41h-5.3v-0.9c1.3,0,1.4,0,1.4-0.4v-11c0-0.5-0.1-0.5-0.5-0.7l-1-0.5V27l3-0.9h0.3v1.9
		c0.6-0.9,1.8-1.9,3.2-1.9c2.5,0,4,2.2,4,4.8c0,3.5-2.1,5.7-4.7,5.7c-1,0-1.9-0.4-2.5-1.1v4c0,0.4,0.1,0.5,2,0.5V41z M357.9,28.8
		v5.7c0.5,0.8,1.4,1.1,2.2,1.1c1.9,0,3.1-1.6,3.1-4.2c0-2.2-0.9-3.9-2.7-3.9C359.4,27.5,358.4,28.2,357.9,28.8z"/>
	<path class="st1" d="M375,36.7c-1.5,0-2.7-1-2.7-2.4v-6.8h-1.4v-1.1h1.4v-2.6l1.8-0.5v3.1h3.2v1.1h-3.2v6.3c0,1.1,0.6,1.7,1.6,1.7
		c0.8,0,1.4-0.4,2-1.1l0.6,0.7C377.4,36.1,376.2,36.7,375,36.7z"/>
	<path class="st1" d="M379.7,41.2c-0.9,0-1.6-0.5-1.6-1.3c0-0.7,0.5-1,1-1c0.8,0,1.1,1,1.5,1c0.6,0,1.4-1.2,2.3-3.4l-3.6-8.8
		c-0.1-0.3-0.3-0.4-1.3-0.4v-0.9h4.6v0.9c-1.2,0-1.4,0.1-1.4,0.3c0,0.1,0,0.2,0.1,0.3l2.4,6.2h0.1l2.4-6.2c0-0.1,0.1-0.2,0.1-0.3
		c0-0.2-0.1-0.2-1.4-0.3v-0.9h3.8v0.9c-1.1,0-1.2,0.1-1.3,0.4l-3.7,9.2C382.7,39.3,381.6,41.2,379.7,41.2z"/>
	<path class="st1" d="M394.5,41h-5.3v-0.9c1.3,0,1.4,0,1.4-0.4v-11c0-0.5-0.1-0.5-0.5-0.7l-1-0.5V27l3-0.9h0.3v1.9
		c0.6-0.9,1.8-1.9,3.2-1.9c2.5,0,4,2.2,4,4.8c0,3.5-2.1,5.7-4.7,5.7c-1,0-1.9-0.4-2.5-1.1v4c0,0.4,0.1,0.5,2,0.5V41z M392.5,28.8
		v5.7c0.5,0.8,1.4,1.1,2.2,1.1c1.9,0,3.1-1.6,3.1-4.2c0-2.2-0.9-3.9-2.7-3.9C393.9,27.5,392.9,28.2,392.5,28.8z"/>
	<path class="st1" d="M406,36.7c-2.4,0-4.7-1.9-4.7-5.1c0-3.1,2.2-5.4,4.6-5.4c2.6,0,3.8,1.9,3.8,4.3v0.7h-6.7v0.1
		c0,2.8,1.5,4.2,3.2,4.2c1.1,0,1.8-0.4,2.7-1.5l0.8,0.6C409.2,35.8,407.6,36.7,406,36.7z M403.3,30.2h4.8c0-1.8-0.6-3-2.1-3
		C404.7,27.2,403.6,28.2,403.3,30.2z"/>
</g>
<rect x="223.4" y="75.2" class="st2" width="7.8" height="7.8"/>
<text transform="matrix(1 0 0 1 231.2445 83.0586)" class="st1 st3 st4"> </text>
<g>
	<path class="st1" d="M244.8,80.5h-4.3l-1,2.6h-0.7l3.5-8.6h0.8l3.5,8.6h-0.8L244.8,80.5z M240.7,79.9h3.8l-1.9-4.6h0L240.7,79.9z"
		/>
	<path class="st1" d="M248.1,81.3c0.1,0.9,0.9,1.3,1.8,1.3c0.9,0,1.6-0.4,1.6-1.2c0-0.5-0.3-0.8-1.1-1l-1.1-0.2
		c-1-0.2-1.6-0.5-1.6-1.6c0-0.9,0.8-1.7,2.1-1.7c1.3,0,2.1,0.6,2.2,1.7h-0.7c-0.1-0.7-0.6-1.1-1.6-1.1c-0.9,0-1.5,0.5-1.5,1.1
		c0,0.6,0.4,0.8,1.1,1l1.2,0.2c0.9,0.2,1.5,0.6,1.5,1.6c0,1-0.9,1.8-2.2,1.8c-1.4,0-2.4-0.6-2.5-1.9H248.1z"/>
	<path class="st1" d="M254.1,81.3c0.1,0.9,0.9,1.3,1.8,1.3c0.9,0,1.6-0.4,1.6-1.2c0-0.5-0.3-0.8-1.1-1l-1.1-0.2
		c-1-0.2-1.6-0.5-1.6-1.6c0-0.9,0.8-1.7,2.1-1.7c1.3,0,2.1,0.6,2.2,1.7h-0.7c-0.1-0.7-0.6-1.1-1.6-1.1c-0.9,0-1.5,0.5-1.5,1.1
		c0,0.6,0.4,0.8,1.1,1l1.2,0.2c0.9,0.2,1.5,0.6,1.5,1.6c0,1-0.9,1.8-2.2,1.8c-1.4,0-2.4-0.6-2.5-1.9H254.1z"/>
	<path class="st1" d="M262.3,83.2c-1.6,0-2.7-1.2-2.7-3.1c0-1.9,1.2-3.1,2.7-3.1s2.7,1.2,2.7,3.1C265.1,82,263.9,83.2,262.3,83.2z
		 M262.3,82.6c1.3,0,2.1-1,2.1-2.5c0-1.5-0.8-2.5-2.1-2.5s-2.1,1-2.1,2.5C260.3,81.6,261.1,82.6,262.3,82.6z"/>
	<path class="st1" d="M269.2,76.9c1.2,0,2.1,0.7,2.3,2h-0.7c-0.2-0.9-0.7-1.3-1.6-1.3c-1.3,0-2,1-2,2.5c0,1.5,0.7,2.5,2,2.5
		c0.9,0,1.4-0.4,1.6-1.3h0.7c-0.2,1.3-1,2-2.3,2c-1.6,0-2.7-1.2-2.7-3.1C266.5,78.2,267.6,76.9,269.2,76.9z"/>
	<path class="st1" d="M273.2,74.6h0.9v1.1h-0.9V74.6z M273.3,77.1h0.7v6h-0.7V77.1z"/>
	<path class="st1" d="M279.8,82c-0.3,0.7-1.1,1.2-2.1,1.2c-1,0-1.9-0.6-1.9-1.7c0-1.1,0.8-1.6,2-1.8l2-0.3V79c0-1.1-0.7-1.5-1.6-1.5
		c-0.9,0-1.4,0.5-1.5,1.2H276c0.1-1.2,1.1-1.8,2.2-1.8c1.4,0,2.2,0.6,2.2,2v3c0,0.4,0,0.8,0.2,1.1h-0.7
		C279.8,82.7,279.8,82.3,279.8,82z M279.8,80.7V80l-1.8,0.2c-0.8,0.1-1.5,0.3-1.5,1.2c0,0.6,0.4,1.1,1.3,1.1
		C278.7,82.6,279.8,82,279.8,80.7z"/>
	<path class="st1" d="M285.3,83c-0.4,0.1-0.8,0.2-1,0.2c-1,0-1.5-0.5-1.5-1.6v-3.9h-0.9v-0.6h0.9v-1.5h0.7v1.5h1.7v0.6h-1.7v4
		c0,0.7,0.3,0.9,0.9,0.9c0.2,0,0.5,0,0.9-0.2V83z"/>
	<path class="st1" d="M289.3,83.2c-1.7,0-2.8-1.2-2.8-3.1c0-2,1.2-3.2,2.7-3.2c1.7,0,2.5,1.4,2.5,2.9v0.3h-4.5
		c0,1.6,0.9,2.4,2.1,2.4c0.9,0,1.4-0.4,1.7-1.2h0.7C291.3,82.6,290.3,83.2,289.3,83.2z M287.2,79.6h3.8c0-1.2-0.6-2.1-1.8-2.1
		C288.2,77.5,287.4,78.2,287.2,79.6z"/>
</g>
<g>
	<path class="st2" d="M298.1,75.8c1.5,0,2.1-0.4,2.3-1.3h1.9v8.6h-2.5v-5.6h-1.7V75.8z"/>
	<path class="st2" d="M307.8,74.4c2.5,0,4,1.9,4,4.4c0,2.6-1.5,4.4-4,4.4c-2.5,0-4-1.9-4-4.4C303.7,76.2,305.3,74.4,307.8,74.4z
		 M307.8,81.4c1,0,1.5-0.9,1.5-2.6s-0.5-2.6-1.5-2.6s-1.5,0.9-1.5,2.6S306.7,81.4,307.8,81.4z"/>
	<path class="st2" d="M314.8,74.4c1.2,0,2.1,1,2.1,2.1c0,1.2-1,2.1-2.1,2.1c-1.2,0-2.1-1-2.1-2.1C312.7,75.3,313.7,74.4,314.8,74.4z
		 M321.1,74.5l-6,8.6h-1.4l6-8.6H321.1z M314.8,77.4c0.5,0,0.9-0.4,0.9-0.9c0-0.5-0.4-0.9-0.9-0.9c-0.5,0-0.9,0.4-0.9,0.9
		C313.9,77,314.4,77.4,314.8,77.4z M319.9,79c1.2,0,2.1,1,2.1,2.1c0,1.2-0.9,2.1-2.1,2.1c-1.2,0-2.1-1-2.1-2.1
		C317.8,79.9,318.8,79,319.9,79z M319.9,82c0.5,0,0.9-0.4,0.9-0.9c0-0.5-0.4-0.9-0.9-0.9s-0.9,0.4-0.9,0.9
		C319.1,81.6,319.5,82,319.9,82z"/>
</g>
<rect x="223.4" y="93.1" class="st5" width="7.8" height="7.8"/>
<text transform="matrix(1 0 0 1 231.2445 100.9248)" class="st1 st3 st4"> </text>
<g>
	<path class="st1" d="M243.4,100.9l-3-7.9h0v7.9h-0.7v-8.6h1.2l2.8,7.7h0l2.8-7.7h1.2v8.6h-0.7V93h0l-3,7.9H243.4z"/>
	<path class="st1" d="M252.5,101.1c-1.7,0-2.8-1.2-2.8-3.1c0-2,1.2-3.2,2.7-3.2c1.7,0,2.5,1.4,2.5,2.9V98h-4.5
		c0,1.6,0.9,2.4,2.1,2.4c0.9,0,1.4-0.4,1.7-1.2h0.7C254.5,100.5,253.5,101.1,252.5,101.1z M250.4,97.5h3.8c0-1.2-0.6-2.1-1.8-2.1
		C251.4,95.4,250.5,96.1,250.4,97.5z"/>
	<path class="st1" d="M263.1,94.8c1.4,0,2,0.9,2,2.3v3.9h-0.7v-3.7c0-1.2-0.4-1.8-1.4-1.8c-1,0-1.8,0.7-1.8,2.2v3.3h-0.7v-3.7
		c0-1.2-0.4-1.8-1.4-1.8c-1,0-1.8,0.7-1.8,2.2v3.3h-0.7v-6h0.7v1.2c0.3-0.8,1-1.3,1.9-1.3c1,0,1.6,0.5,1.8,1.3
		C261.4,95.3,262.2,94.8,263.1,94.8z"/>
	<path class="st1" d="M268,100.9h-0.7v-8.8h0.7V96c0.3-0.6,0.9-1.3,2-1.3c1.5,0,2.7,1.2,2.7,3.1c0,1.9-1.2,3.1-2.7,3.1
		c-1,0-1.8-0.6-2.1-1.2V100.9z M268,98c0,1.5,0.7,2.5,2,2.5c1.3,0,2.1-1.1,2.1-2.6s-0.8-2.6-2.1-2.6c-1.3,0-2,1-2,2.5V98z"/>
	<path class="st1" d="M276.9,101.1c-1.7,0-2.8-1.2-2.8-3.1c0-2,1.2-3.2,2.7-3.2c1.7,0,2.5,1.4,2.5,2.9V98h-4.5
		c0,1.6,0.9,2.4,2.1,2.4c0.9,0,1.4-0.4,1.7-1.2h0.7C279,100.5,278,101.1,276.9,101.1z M274.9,97.5h3.8c0-1.2-0.6-2.1-1.8-2.1
		C275.9,95.4,275,96.1,274.9,97.5z"/>
	<path class="st1" d="M284.2,95.5c-0.1,0-0.3,0-0.5,0c-1,0-1.9,0.8-1.9,2.4v3.1h-0.7v-6h0.7v1.5c0.3-1,1-1.6,1.9-1.6
		c0.2,0,0.3,0,0.5,0V95.5z"/>
</g>
<g>
	<path class="st2" d="M290,94.3v-1.9h6.7v2c-1.9,2.4-2.4,4-2.4,6.5h-2.6c0-2.7,1.1-4.7,2.6-6.6H290z"/>
	<path class="st2" d="M301.6,97.9c-1.1,0.5-1.4,0.8-1.5,1.1h4.1v1.9h-6.9v-0.9c0-1.9,1.5-2.9,2.8-3.6c1.2-0.7,1.8-0.9,1.8-1.5
		c0-0.6-0.4-0.8-0.9-0.8c-0.6,0-1.1,0.5-1.1,1.2h-2.4c0.1-1.7,1.4-3.1,3.5-3.1c1.9,0,3.3,1,3.3,2.8
		C304.2,96.5,303.2,97.2,301.6,97.9z"/>
	<path class="st2" d="M307.3,92.2c1.2,0,2.1,1,2.1,2.1c0,1.2-1,2.1-2.1,2.1c-1.2,0-2.1-1-2.1-2.1C305.1,93.2,306.1,92.2,307.3,92.2z
		 M313.5,92.4l-6,8.6h-1.4l6-8.6H313.5z M307.3,95.3c0.5,0,0.9-0.4,0.9-0.9c0-0.5-0.4-0.9-0.9-0.9c-0.5,0-0.9,0.4-0.9,0.9
		C306.4,94.9,306.8,95.3,307.3,95.3z M312.4,96.8c1.2,0,2.1,1,2.1,2.1c0,1.2-0.9,2.1-2.1,2.1c-1.2,0-2.1-1-2.1-2.1
		C310.2,97.8,311.2,96.8,312.4,96.8z M312.4,99.9c0.5,0,0.9-0.4,0.9-0.9c0-0.5-0.4-0.9-0.9-0.9s-0.9,0.4-0.9,0.9
		C311.5,99.4,311.9,99.9,312.4,99.9z"/>
</g>
<rect x="223.4" y="110.9" class="st6" width="7.8" height="7.8"/>
<text transform="matrix(1 0 0 1 231.2445 118.791)" class="st1 st3 st4"> </text>
<g>
	<path class="st1" d="M242.9,118.3c1.5,0,2.2-0.9,2.4-1.9h0.7c-0.3,1.5-1.4,2.5-3.1,2.5c-2.1,0-3.7-1.7-3.7-4.4
		c0-2.7,1.6-4.4,3.7-4.4c1.8,0,2.9,1,3.1,2.5h-0.7c-0.2-1-0.9-1.9-2.4-1.9c-1.9,0-3,1.5-3,3.8C239.9,116.7,241,118.3,242.9,118.3z"
		/>
	<path class="st1" d="M250.4,112.7c1.3,0,2.1,0.8,2.1,2.3v3.9h-0.7v-3.7c0-1.2-0.5-1.8-1.6-1.8c-1,0-1.8,0.6-1.8,2.2v3.3h-0.7V110
		h0.7v4C248.7,113.1,249.4,112.7,250.4,112.7z"/>
	<path class="st1" d="M258.3,117.7c-0.3,0.7-1.1,1.2-2.1,1.2c-1,0-1.9-0.6-1.9-1.7c0-1.1,0.8-1.6,2-1.8l2-0.3v-0.4
		c0-1.1-0.7-1.5-1.6-1.5c-0.9,0-1.4,0.5-1.5,1.2h-0.7c0.1-1.2,1.1-1.8,2.2-1.8c1.4,0,2.2,0.6,2.2,2v3c0,0.4,0,0.8,0.2,1.1h-0.7
		C258.3,118.5,258.3,118,258.3,117.7z M258.3,116.4v-0.6l-1.8,0.2c-0.8,0.1-1.5,0.3-1.5,1.2c0,0.6,0.4,1.1,1.3,1.1
		C257.2,118.3,258.3,117.7,258.3,116.4z"/>
	<path class="st1" d="M264.3,113.3c-0.1,0-0.3,0-0.5,0c-1,0-1.9,0.8-1.9,2.4v3.1h-0.7v-6h0.7v1.5c0.3-1,1-1.6,1.9-1.6
		c0.2,0,0.3,0,0.5,0V113.3z"/>
	<path class="st1" d="M268.5,118.7c-0.4,0.1-0.8,0.2-1,0.2c-1,0-1.5-0.5-1.5-1.6v-3.9H265v-0.6h0.9v-1.5h0.7v1.5h1.7v0.6h-1.7v4
		c0,0.7,0.3,0.9,0.9,0.9c0.2,0,0.5,0,0.9-0.2V118.7z"/>
	<path class="st1" d="M272.4,118.9c-1.7,0-2.8-1.2-2.8-3.1c0-2,1.2-3.2,2.7-3.2c1.7,0,2.5,1.4,2.5,2.9v0.3h-4.5
		c0,1.6,0.9,2.4,2.1,2.4c0.9,0,1.4-0.4,1.7-1.2h0.7C274.5,118.4,273.5,118.9,272.4,118.9z M270.4,115.3h3.8c0-1.2-0.6-2.1-1.8-2.1
		C271.4,113.3,270.5,113.9,270.4,115.3z"/>
	<path class="st1" d="M279.8,113.3c-0.1,0-0.3,0-0.5,0c-1,0-1.9,0.8-1.9,2.4v3.1h-0.7v-6h0.7v1.5c0.3-1,1-1.6,1.9-1.6
		c0.2,0,0.3,0,0.5,0V113.3z"/>
	<path class="st1" d="M283.3,118.9c-1.7,0-2.8-1.2-2.8-3.1c0-2,1.2-3.2,2.7-3.2c1.7,0,2.5,1.4,2.5,2.9v0.3h-4.5
		c0,1.6,0.9,2.4,2.1,2.4c0.9,0,1.4-0.4,1.7-1.2h0.7C285.4,118.4,284.4,118.9,283.3,118.9z M281.2,115.3h3.8c0-1.2-0.6-2.1-1.8-2.1
		C282.2,113.3,281.4,113.9,281.2,115.3z"/>
	<path class="st1" d="M291.8,117.7c-0.3,0.6-1,1.2-2.1,1.2c-1.5,0-2.7-1.2-2.7-3.1c0-1.9,1.2-3.1,2.7-3.1c1.1,0,1.8,0.6,2,1.3V110
		h0.7v8.8h-0.7V117.7z M291.9,115.7c0-1.5-0.7-2.5-2-2.5c-1.3,0-2.1,1.1-2.1,2.6s0.8,2.6,2.1,2.6c1.3,0,2-1,2-2.5V115.7z"/>
	<path class="st1" d="M301.2,118.8l-3-7.9h0v7.9h-0.7v-8.6h1.2l2.8,7.7h0l2.8-7.7h1.2v8.6h-0.7v-7.9h0l-3,7.9H301.2z"/>
	<path class="st1" d="M310.2,118.9c-1.7,0-2.8-1.2-2.8-3.1c0-2,1.2-3.2,2.7-3.2c1.7,0,2.5,1.4,2.5,2.9v0.3h-4.5
		c0,1.6,0.9,2.4,2.1,2.4c0.9,0,1.4-0.4,1.7-1.2h0.7C312.3,118.4,311.3,118.9,310.2,118.9z M308.2,115.3h3.8c0-1.2-0.6-2.1-1.8-2.1
		C309.2,113.3,308.3,113.9,308.2,115.3z"/>
	<path class="st1" d="M320.9,112.7c1.4,0,2,0.9,2,2.3v3.9h-0.7v-3.7c0-1.2-0.4-1.8-1.4-1.8c-1,0-1.8,0.7-1.8,2.2v3.3h-0.7v-3.7
		c0-1.2-0.4-1.8-1.4-1.8s-1.8,0.7-1.8,2.2v3.3h-0.7v-6h0.7v1.2c0.3-0.8,1-1.3,1.9-1.3c1,0,1.6,0.5,1.8,1.3
		C319.2,113.1,320,112.7,320.9,112.7z"/>
	<path class="st1" d="M325.8,118.8h-0.7V110h0.7v3.9c0.3-0.6,0.9-1.3,2-1.3c1.5,0,2.7,1.2,2.7,3.1c0,1.9-1.2,3.1-2.7,3.1
		c-1,0-1.8-0.6-2.1-1.2V118.8z M325.8,115.9c0,1.5,0.7,2.5,2,2.5c1.3,0,2.1-1.1,2.1-2.6s-0.8-2.6-2.1-2.6c-1.3,0-2,1-2,2.5V115.9z"
		/>
	<path class="st1" d="M334.7,118.9c-1.7,0-2.8-1.2-2.8-3.1c0-2,1.2-3.2,2.7-3.2c1.7,0,2.5,1.4,2.5,2.9v0.3h-4.5
		c0,1.6,0.9,2.4,2.1,2.4c0.9,0,1.4-0.4,1.7-1.2h0.7C336.8,118.4,335.8,118.9,334.7,118.9z M332.6,115.3h3.8c0-1.2-0.6-2.1-1.8-2.1
		C333.6,113.3,332.8,113.9,332.6,115.3z"/>
	<path class="st1" d="M342,113.3c-0.1,0-0.3,0-0.5,0c-1,0-1.9,0.8-1.9,2.4v3.1h-0.7v-6h0.7v1.5c0.3-1,1-1.6,1.9-1.6
		c0.2,0,0.3,0,0.5,0V113.3z"/>
</g>
<g>
	<path class="st2" d="M347.9,111.5c1.5,0,2.1-0.4,2.3-1.3h1.9v8.6h-2.5v-5.6h-1.7V111.5z"/>
	<path class="st2" d="M353.6,111.5c1.5,0,2.1-0.4,2.3-1.3h1.9v8.6h-2.5v-5.6h-1.7V111.5z"/>
	<path class="st2" d="M361.5,110.1c1.2,0,2.1,1,2.1,2.1c0,1.2-1,2.1-2.1,2.1c-1.2,0-2.1-1-2.1-2.1
		C359.4,111,360.3,110.1,361.5,110.1z M367.7,110.2l-6,8.6h-1.4l6-8.6H367.7z M361.5,113.1c0.5,0,0.9-0.4,0.9-0.9
		c0-0.5-0.4-0.9-0.9-0.9c-0.5,0-0.9,0.4-0.9,0.9C360.6,112.7,361,113.1,361.5,113.1z M366.6,114.7c1.2,0,2.1,1,2.1,2.1
		c0,1.2-0.9,2.1-2.1,2.1c-1.2,0-2.1-1-2.1-2.1C364.5,115.6,365.4,114.7,366.6,114.7z M366.6,117.7c0.5,0,0.9-0.4,0.9-0.9
		c0-0.5-0.4-0.9-0.9-0.9s-0.9,0.4-0.9,0.9C365.7,117.3,366.1,117.7,366.6,117.7z"/>
</g>
<rect x="223.4" y="128.8" class="st7" width="7.8" height="7.8"/>
<text transform="matrix(1 0 0 1 231.2445 136.6572)" class="st1 st3 st4"> </text>
<g>
	<path class="st1" d="M242.9,136.1c1.5,0,2.2-0.9,2.4-1.9h0.7c-0.3,1.5-1.4,2.5-3.1,2.5c-2.1,0-3.7-1.7-3.7-4.4
		c0-2.7,1.6-4.4,3.7-4.4c1.8,0,2.9,1,3.1,2.5h-0.7c-0.2-1-0.9-1.9-2.4-1.9c-1.9,0-3,1.5-3,3.8C239.9,134.6,241,136.1,242.9,136.1z"
		/>
	<path class="st1" d="M250.4,130.5c1.3,0,2.1,0.8,2.1,2.3v3.9h-0.7v-3.7c0-1.2-0.5-1.8-1.6-1.8c-1,0-1.8,0.6-1.8,2.2v3.3h-0.7v-8.8
		h0.7v4C248.7,131,249.4,130.5,250.4,130.5z"/>
	<path class="st1" d="M258.3,135.6c-0.3,0.7-1.1,1.2-2.1,1.2c-1,0-1.9-0.6-1.9-1.7c0-1.1,0.8-1.6,2-1.8l2-0.3v-0.4
		c0-1.1-0.7-1.5-1.6-1.5c-0.9,0-1.4,0.5-1.5,1.2h-0.7c0.1-1.2,1.1-1.8,2.2-1.8c1.4,0,2.2,0.6,2.2,2v3c0,0.4,0,0.8,0.2,1.1h-0.7
		C258.3,136.3,258.3,135.9,258.3,135.6z M258.3,134.3v-0.6l-1.8,0.2c-0.8,0.1-1.5,0.3-1.5,1.2c0,0.6,0.4,1.1,1.3,1.1
		C257.2,136.2,258.3,135.6,258.3,134.3z"/>
	<path class="st1" d="M264.3,131.2c-0.1,0-0.3,0-0.5,0c-1,0-1.9,0.8-1.9,2.4v3.1h-0.7v-6h0.7v1.5c0.3-1,1-1.6,1.9-1.6
		c0.2,0,0.3,0,0.5,0V131.2z"/>
	<path class="st1" d="M268.5,136.6c-0.4,0.1-0.8,0.2-1,0.2c-1,0-1.5-0.5-1.5-1.6v-3.9H265v-0.6h0.9v-1.5h0.7v1.5h1.7v0.6h-1.7v4
		c0,0.7,0.3,0.9,0.9,0.9c0.2,0,0.5,0,0.9-0.2V136.6z"/>
	<path class="st1" d="M272.4,136.8c-1.7,0-2.8-1.2-2.8-3.1c0-2,1.2-3.2,2.7-3.2c1.7,0,2.5,1.4,2.5,2.9v0.3h-4.5
		c0,1.6,0.9,2.4,2.1,2.4c0.9,0,1.4-0.4,1.7-1.2h0.7C274.5,136.2,273.5,136.8,272.4,136.8z M270.4,133.2h3.8c0-1.2-0.6-2.1-1.8-2.1
		C271.4,131.1,270.5,131.8,270.4,133.2z"/>
	<path class="st1" d="M279.8,131.2c-0.1,0-0.3,0-0.5,0c-1,0-1.9,0.8-1.9,2.4v3.1h-0.7v-6h0.7v1.5c0.3-1,1-1.6,1.9-1.6
		c0.2,0,0.3,0,0.5,0V131.2z"/>
	<path class="st1" d="M283.3,136.8c-1.7,0-2.8-1.2-2.8-3.1c0-2,1.2-3.2,2.7-3.2c1.7,0,2.5,1.4,2.5,2.9v0.3h-4.5
		c0,1.6,0.9,2.4,2.1,2.4c0.9,0,1.4-0.4,1.7-1.2h0.7C285.4,136.2,284.4,136.8,283.3,136.8z M281.2,133.2h3.8c0-1.2-0.6-2.1-1.8-2.1
		C282.2,131.1,281.4,131.8,281.2,133.2z"/>
	<path class="st1" d="M291.8,135.6c-0.3,0.6-1,1.2-2.1,1.2c-1.5,0-2.7-1.2-2.7-3.1c0-1.9,1.2-3.1,2.7-3.1c1.1,0,1.8,0.6,2,1.3v-3.9
		h0.7v8.8h-0.7V135.6z M291.9,133.6c0-1.5-0.7-2.5-2-2.5c-1.3,0-2.1,1.1-2.1,2.6s0.8,2.6,2.1,2.6c1.3,0,2-1,2-2.5V133.6z"/>
	<path class="st1" d="M297.5,128.1h5.2v0.6h-4.5v3.4h4.1v0.6h-4.1v3.9h-0.7V128.1z"/>
	<path class="st1" d="M306.6,136.8c-1.7,0-2.8-1.2-2.8-3.1c0-2,1.2-3.2,2.7-3.2c1.7,0,2.5,1.4,2.5,2.9v0.3h-4.5
		c0,1.6,0.9,2.4,2.1,2.4c0.9,0,1.4-0.4,1.7-1.2h0.7C308.7,136.2,307.6,136.8,306.6,136.8z M304.5,133.2h3.8c0-1.2-0.6-2.1-1.8-2.1
		C305.5,131.1,304.7,131.8,304.5,133.2z"/>
	<path class="st1" d="M310.8,136.7v-8.8h0.7v8.8H310.8z"/>
	<path class="st1" d="M313.8,136.7v-8.8h0.7v8.8H313.8z"/>
	<path class="st1" d="M319,136.8c-1.6,0-2.7-1.2-2.7-3.1c0-1.9,1.2-3.1,2.7-3.1c1.6,0,2.7,1.2,2.7,3.1
		C321.8,135.6,320.6,136.8,319,136.8z M319,136.2c1.3,0,2.1-1,2.1-2.5c0-1.5-0.8-2.5-2.1-2.5c-1.3,0-2.1,1-2.1,2.5
		C317,135.2,317.8,136.2,319,136.2z"/>
	<path class="st1" d="M328.7,135.9L328.7,135.9l1.5-5.2h0.7l-1.8,6h-0.7l-1.5-5.2h0l-1.5,5.2h-0.8l-1.8-6h0.7l1.5,5.2h0l1.5-5.2h0.8
		L328.7,135.9z"/>
</g>
<g>
	<path class="st2" d="M340.3,136.8c-2.1,0-3.5-1.2-3.7-2.8h2.4c0,0.6,0.6,1,1.3,1c0.8,0,1.2-0.3,1.2-0.9c0-0.6-0.5-0.8-1.2-0.8h-0.8
		v-1.7h0.8c0.7,0,1.1-0.3,1.1-0.9c0-0.5-0.4-0.9-1-0.9c-0.6,0-1.1,0.4-1.1,1h-2.3c0.1-1.5,1.3-2.8,3.5-2.8c2.1,0,3.2,1.2,3.2,2.6
		c0,0.9-0.6,1.7-1.5,1.8c1.1,0.2,1.7,0.9,1.7,1.9C343.8,135.6,342.6,136.8,340.3,136.8z"/>
	<path class="st2" d="M346.8,128c1.2,0,2.1,1,2.1,2.1c0,1.2-1,2.1-2.1,2.1c-1.2,0-2.1-1-2.1-2.1C344.6,128.9,345.6,128,346.8,128z
		 M353,128.1l-6,8.6h-1.4l6-8.6H353z M346.8,131c0.5,0,0.9-0.4,0.9-0.9c0-0.5-0.4-0.9-0.9-0.9c-0.5,0-0.9,0.4-0.9,0.9
		C345.9,130.6,346.3,131,346.8,131z M351.9,132.6c1.2,0,2.1,1,2.1,2.1c0,1.2-0.9,2.1-2.1,2.1c-1.2,0-2.1-1-2.1-2.1
		C349.8,133.5,350.7,132.6,351.9,132.6z M351.9,135.6c0.5,0,0.9-0.4,0.9-0.9c0-0.5-0.4-0.9-0.9-0.9s-0.9,0.4-0.9,0.9
		C351,135.2,351.4,135.6,351.9,135.6z"/>
</g>
<rect x="223.4" y="146.7" class="st8" width="7.8" height="7.8"/>
<text transform="matrix(1 0 0 1 231.2445 154.5234)" class="st1 st3 st4"> </text>
<g>
	<path class="st1" d="M246.7,150.2c0,2.6-1.7,4.3-4.1,4.3h-2.9V146h2.9C245,146,246.7,147.7,246.7,150.2z M240.4,146.6v7.3h2.2
		c2.1,0,3.4-1.5,3.4-3.6c0-2.2-1.2-3.6-3.4-3.6H240.4z"/>
	<path class="st1" d="M248.4,146.1h0.9v1.1h-0.9V146.1z M248.5,148.5h0.7v6h-0.7V148.5z"/>
	<path class="st1" d="M251.6,152.8c0.1,0.9,0.9,1.3,1.8,1.3c0.9,0,1.6-0.4,1.6-1.2c0-0.5-0.3-0.8-1.1-1l-1.1-0.2
		c-1-0.2-1.6-0.5-1.6-1.6c0-0.9,0.8-1.7,2.1-1.7c1.3,0,2.1,0.6,2.2,1.7h-0.7c-0.1-0.7-0.6-1.1-1.6-1.1c-0.9,0-1.5,0.5-1.5,1.1
		c0,0.6,0.4,0.8,1.1,1l1.2,0.2c0.9,0.2,1.5,0.6,1.5,1.6c0,1-0.9,1.8-2.2,1.8c-1.4,0-2.4-0.6-2.5-1.9H251.6z"/>
	<path class="st1" d="M260.1,154.5c-0.4,0.1-0.8,0.2-1,0.2c-1,0-1.5-0.5-1.5-1.6v-3.9h-0.9v-0.6h0.9V147h0.7v1.5h1.7v0.6h-1.7v4
		c0,0.7,0.3,0.9,0.9,0.9c0.2,0,0.5,0,0.9-0.2V154.5z"/>
	<path class="st1" d="M261.7,146.1h0.9v1.1h-0.9V146.1z M261.8,148.5h0.7v6h-0.7V148.5z"/>
	<path class="st1" d="M265.5,149.7c0.3-0.8,1.1-1.3,2-1.3c1.3,0,2.1,0.8,2.1,2.3v3.9h-0.7v-3.7c0-1.2-0.5-1.8-1.6-1.8
		c-1,0-1.8,0.6-1.8,2.2v3.3h-0.7v-6h0.7V149.7z"/>
	<path class="st1" d="M276,153.3c-0.3,0.6-0.9,1.2-2,1.2c-1.5,0-2.7-1.1-2.7-3c0-1.8,1.2-3,2.7-3c1.1,0,1.8,0.7,2.1,1.2v-1.1h0.7
		v5.6c0,1.9-1.2,2.7-2.7,2.7c-1.3,0-2.3-0.5-2.5-1.7h0.7c0.2,0.8,0.9,1.1,1.8,1.1c1.3,0,2-0.7,2-2.1V153.3z M276.1,151.2
		c0-1.3-0.9-2.3-2.1-2.3c-1.3,0-2,1-2,2.4c0,1.4,0.8,2.4,2,2.4c1.2,0,2.1-0.9,2.1-2.3V151.2z"/>
	<path class="st1" d="M283,154.5v-1.1c-0.3,0.8-1,1.3-1.9,1.3c-1.4,0-2.1-0.8-2.1-2.3v-3.9h0.7v3.8c0,1.2,0.5,1.8,1.5,1.8
		c1,0,1.8-0.7,1.8-2.3v-3.3h0.7v6H283z"/>
	<path class="st1" d="M285.9,146.1h0.9v1.1h-0.9V146.1z M285.9,148.5h0.7v6h-0.7V148.5z"/>
	<path class="st1" d="M289.1,152.8c0.1,0.9,0.9,1.3,1.8,1.3c0.9,0,1.6-0.4,1.6-1.2c0-0.5-0.3-0.8-1.1-1l-1.1-0.2
		c-1-0.2-1.6-0.5-1.6-1.6c0-0.9,0.8-1.7,2.1-1.7c1.3,0,2.1,0.6,2.2,1.7h-0.7c-0.1-0.7-0.6-1.1-1.6-1.1c-0.9,0-1.5,0.5-1.5,1.1
		c0,0.6,0.4,0.8,1.1,1l1.2,0.2c0.9,0.2,1.5,0.6,1.5,1.6c0,1-0.9,1.8-2.2,1.8c-1.4,0-2.4-0.6-2.5-1.9H289.1z"/>
	<path class="st1" d="M297.6,148.4c1.3,0,2.1,0.8,2.1,2.3v3.9h-0.7v-3.7c0-1.2-0.5-1.8-1.6-1.8c-1,0-1.8,0.6-1.8,2.2v3.3H295v-8.8
		h0.7v4C296,148.9,296.7,148.4,297.6,148.4z"/>
	<path class="st1" d="M304.3,154.7c-1.7,0-2.8-1.2-2.8-3.1c0-2,1.2-3.2,2.7-3.2c1.7,0,2.5,1.4,2.5,2.9v0.3h-4.5
		c0,1.6,0.9,2.4,2.1,2.4c0.9,0,1.4-0.4,1.7-1.2h0.7C306.4,154.1,305.4,154.7,304.3,154.7z M302.2,151.1h3.8c0-1.2-0.6-2.1-1.8-2.1
		C303.2,149,302.4,149.7,302.2,151.1z"/>
	<path class="st1" d="M312.9,153.4c-0.3,0.6-1,1.2-2.1,1.2c-1.5,0-2.7-1.2-2.7-3.1c0-1.9,1.2-3.1,2.7-3.1c1.1,0,1.8,0.6,2,1.3v-3.9
		h0.7v8.8h-0.7V153.4z M312.9,151.5c0-1.5-0.7-2.5-2-2.5c-1.3,0-2.1,1.1-2.1,2.6s0.8,2.6,2.1,2.6c1.3,0,2-1,2-2.5V151.5z"/>
	<path class="st1" d="M318.5,146h5.2v0.6h-4.5v3.4h4.1v0.6h-4.1v3.9h-0.7V146z"/>
	<path class="st1" d="M327.6,154.7c-1.7,0-2.8-1.2-2.8-3.1c0-2,1.2-3.2,2.7-3.2c1.7,0,2.5,1.4,2.5,2.9v0.3h-4.5
		c0,1.6,0.9,2.4,2.1,2.4c0.9,0,1.4-0.4,1.7-1.2h0.7C329.7,154.1,328.6,154.7,327.6,154.7z M325.5,151.1h3.8c0-1.2-0.6-2.1-1.8-2.1
		C326.5,149,325.7,149.7,325.5,151.1z"/>
	<path class="st1" d="M331.8,154.5v-8.8h0.7v8.8H331.8z"/>
	<path class="st1" d="M334.8,154.5v-8.8h0.7v8.8H334.8z"/>
	<path class="st1" d="M340.1,154.7c-1.6,0-2.7-1.2-2.7-3.1c0-1.9,1.2-3.1,2.7-3.1c1.6,0,2.7,1.2,2.7,3.1
		C342.8,153.5,341.6,154.7,340.1,154.7z M340.1,154.1c1.3,0,2.1-1,2.1-2.5c0-1.5-0.8-2.5-2.1-2.5c-1.3,0-2.1,1-2.1,2.5
		C338,153.1,338.8,154.1,340.1,154.1z"/>
	<path class="st1" d="M349.7,153.7L349.7,153.7l1.5-5.2h0.7l-1.8,6h-0.7l-1.5-5.2h0l-1.5,5.2h-0.8l-1.8-6h0.7l1.5,5.2h0l1.5-5.2h0.8
		L349.7,153.7z"/>
</g>
<g>
	<path class="st2" d="M357.9,147.2c1.5,0,2.1-0.4,2.3-1.3h1.9v8.6h-2.5v-5.6h-1.7V147.2z"/>
	<path class="st2" d="M365.8,145.8c1.2,0,2.1,1,2.1,2.1c0,1.2-1,2.1-2.1,2.1c-1.2,0-2.1-1-2.1-2.1
		C363.7,146.8,364.7,145.8,365.8,145.8z M372.1,146l-6,8.6h-1.4l6-8.6H372.1z M365.8,148.9c0.5,0,0.9-0.4,0.9-0.9
		c0-0.5-0.4-0.9-0.9-0.9c-0.5,0-0.9,0.4-0.9,0.9C365,148.5,365.4,148.9,365.8,148.9z M371,150.4c1.2,0,2.1,1,2.1,2.1
		c0,1.2-0.9,2.1-2.1,2.1c-1.2,0-2.1-1-2.1-2.1C368.8,151.4,369.8,150.4,371,150.4z M371,153.5c0.5,0,0.9-0.4,0.9-0.9
		c0-0.5-0.4-0.9-0.9-0.9s-0.9,0.4-0.9,0.9C370.1,153,370.5,153.5,371,153.5z"/>
</g>
<rect x="223.4" y="164.5" class="st9" width="7.8" height="7.8"/>
<text transform="matrix(1 0 0 1 231.2445 172.3896)" class="st1 st3 st4"> </text>
<g>
	<path class="st1" d="M239.7,172.4v-8.6h3.1c1.9,0,2.9,0.9,2.9,2.5c0,1.4-1,2.2-2.1,2.4l2.5,3.7h-0.8l-2.4-3.6h-2.5v3.6H239.7z
		 M242.8,168.1c1.4,0,2.2-0.6,2.2-1.8c0-1.2-0.8-1.8-2.2-1.8h-2.4v3.7H242.8z"/>
	<path class="st1" d="M250.1,172.5c-1.7,0-2.8-1.2-2.8-3.1c0-2,1.2-3.2,2.7-3.2c1.7,0,2.5,1.4,2.5,2.9v0.3H248
		c0,1.6,0.9,2.4,2.1,2.4c0.9,0,1.4-0.4,1.7-1.2h0.7C252.2,172,251.2,172.5,250.1,172.5z M248,168.9h3.8c0-1.2-0.6-2.1-1.8-2.1
		C249,166.9,248.2,167.5,248,168.9z"/>
	<path class="st1" d="M256.9,172.3c-0.4,0.1-0.8,0.2-1,0.2c-1,0-1.5-0.5-1.5-1.6V167h-0.9v-0.6h0.9v-1.5h0.7v1.5h1.7v0.6h-1.7v4
		c0,0.7,0.3,0.9,0.9,0.9c0.2,0,0.5,0,0.9-0.2V172.3z"/>
	<path class="st1" d="M258.5,164h0.9v1.1h-0.9V164z M258.6,166.4h0.7v6h-0.7V166.4z"/>
	<path class="st1" d="M264.7,166.9c-0.1,0-0.3,0-0.5,0c-1,0-1.9,0.8-1.9,2.4v3.1h-0.7v-6h0.7v1.5c0.3-1,1-1.6,1.9-1.6
		c0.2,0,0.3,0,0.5,0V166.9z"/>
	<path class="st1" d="M268.2,172.5c-1.7,0-2.8-1.2-2.8-3.1c0-2,1.2-3.2,2.7-3.2c1.7,0,2.5,1.4,2.5,2.9v0.3h-4.5
		c0,1.6,0.9,2.4,2.1,2.4c0.9,0,1.4-0.4,1.7-1.2h0.7C270.3,172,269.3,172.5,268.2,172.5z M266.1,168.9h3.8c0-1.2-0.6-2.1-1.8-2.1
		C267.1,166.9,266.3,167.5,266.1,168.9z"/>
	<path class="st1" d="M276.8,171.3c-0.3,0.6-1,1.2-2.1,1.2c-1.5,0-2.7-1.2-2.7-3.1c0-1.9,1.2-3.1,2.7-3.1c1.1,0,1.8,0.6,2,1.3v-3.9
		h0.7v8.8h-0.7V171.3z M276.8,169.3c0-1.5-0.7-2.5-2-2.5c-1.3,0-2.1,1.1-2.1,2.6s0.8,2.6,2.1,2.6c1.3,0,2-1,2-2.5V169.3z"/>
</g>
<g>
	<path class="st2" d="M288.5,169.4c-1.1,0.5-1.4,0.8-1.5,1.1h4.1v1.9h-6.9v-0.9c0-1.9,1.5-2.9,2.8-3.6c1.2-0.7,1.8-0.9,1.8-1.5
		c0-0.6-0.4-0.8-0.9-0.8c-0.6,0-1.1,0.5-1.1,1.2h-2.4c0.1-1.7,1.4-3.1,3.5-3.1c1.9,0,3.3,1,3.3,2.8
		C291.1,167.9,290.1,168.6,288.5,169.4z"/>
	<path class="st2" d="M294.1,163.7c1.2,0,2.1,1,2.1,2.1c0,1.2-1,2.1-2.1,2.1c-1.2,0-2.1-1-2.1-2.1
		C292,164.6,292.9,163.7,294.1,163.7z M300.4,163.8l-6,8.6H293l6-8.6H300.4z M294.1,166.7c0.5,0,0.9-0.4,0.9-0.9
		c0-0.5-0.4-0.9-0.9-0.9c-0.5,0-0.9,0.4-0.9,0.9C293.2,166.3,293.7,166.7,294.1,166.7z M299.2,168.3c1.2,0,2.1,1,2.1,2.1
		c0,1.2-0.9,2.1-2.1,2.1c-1.2,0-2.1-1-2.1-2.1C297.1,169.2,298.1,168.3,299.2,168.3z M299.2,171.3c0.5,0,0.9-0.4,0.9-0.9
		c0-0.5-0.4-0.9-0.9-0.9s-0.9,0.4-0.9,0.9C298.3,170.9,298.8,171.3,299.2,171.3z"/>
</g>
<rect x="223.4" y="182.4" class="st10" width="7.8" height="7.8"/>
<text transform="matrix(1 0 0 1 231.2445 190.2559)" class="st1 st3 st4"> </text>
<g>
	<path class="st1" d="M239.7,190.3v-8.6h3.1c1.9,0,2.9,0.9,2.9,2.5c0,1.4-1,2.2-2.1,2.4l2.5,3.7h-0.8l-2.4-3.6h-2.5v3.6H239.7z
		 M242.8,186c1.4,0,2.2-0.6,2.2-1.8c0-1.2-0.8-1.8-2.2-1.8h-2.4v3.7H242.8z"/>
	<path class="st1" d="M250.1,190.4c-1.7,0-2.8-1.2-2.8-3.1c0-2,1.2-3.2,2.7-3.2c1.7,0,2.5,1.4,2.5,2.9v0.3H248
		c0,1.6,0.9,2.4,2.1,2.4c0.9,0,1.4-0.4,1.7-1.2h0.7C252.2,189.8,251.2,190.4,250.1,190.4z M248,186.8h3.8c0-1.2-0.6-2.1-1.8-2.1
		C249,184.7,248.2,185.4,248,186.8z"/>
	<path class="st1" d="M256.9,190.2c-0.4,0.1-0.8,0.2-1,0.2c-1,0-1.5-0.5-1.5-1.6v-3.9h-0.9v-0.6h0.9v-1.5h0.7v1.5h1.7v0.6h-1.7v4
		c0,0.7,0.3,0.9,0.9,0.9c0.2,0,0.5,0,0.9-0.2V190.2z"/>
	<path class="st1" d="M258.5,181.8h0.9v1.1h-0.9V181.8z M258.6,184.3h0.7v6h-0.7V184.3z"/>
	<path class="st1" d="M264.7,184.8c-0.1,0-0.3,0-0.5,0c-1,0-1.9,0.8-1.9,2.4v3.1h-0.7v-6h0.7v1.5c0.3-1,1-1.6,1.9-1.6
		c0.2,0,0.3,0,0.5,0V184.8z"/>
	<path class="st1" d="M268.2,190.4c-1.7,0-2.8-1.2-2.8-3.1c0-2,1.2-3.2,2.7-3.2c1.7,0,2.5,1.4,2.5,2.9v0.3h-4.5
		c0,1.6,0.9,2.4,2.1,2.4c0.9,0,1.4-0.4,1.7-1.2h0.7C270.3,189.8,269.3,190.4,268.2,190.4z M266.1,186.8h3.8c0-1.2-0.6-2.1-1.8-2.1
		C267.1,184.7,266.3,185.4,266.1,186.8z"/>
	<path class="st1" d="M276.8,189.2c-0.3,0.6-1,1.2-2.1,1.2c-1.5,0-2.7-1.2-2.7-3.1c0-1.9,1.2-3.1,2.7-3.1c1.1,0,1.8,0.6,2,1.3v-3.9
		h0.7v8.8h-0.7V189.2z M276.8,187.2c0-1.5-0.7-2.5-2-2.5c-1.3,0-2.1,1.1-2.1,2.6s0.8,2.6,2.1,2.6c1.3,0,2-1,2-2.5V187.2z"/>
	<path class="st1" d="M282.4,181.7h5.2v0.6h-4.5v3.4h4.1v0.6h-4.1v3.9h-0.7V181.7z"/>
	<path class="st1" d="M291.5,190.4c-1.7,0-2.8-1.2-2.8-3.1c0-2,1.2-3.2,2.7-3.2c1.7,0,2.5,1.4,2.5,2.9v0.3h-4.5
		c0,1.6,0.9,2.4,2.1,2.4c0.9,0,1.4-0.4,1.7-1.2h0.7C293.6,189.8,292.5,190.4,291.5,190.4z M289.4,186.8h3.8c0-1.2-0.6-2.1-1.8-2.1
		C290.4,184.7,289.6,185.4,289.4,186.8z"/>
	<path class="st1" d="M295.7,190.3v-8.8h0.7v8.8H295.7z"/>
	<path class="st1" d="M298.7,190.3v-8.8h0.7v8.8H298.7z"/>
	<path class="st1" d="M303.9,190.4c-1.6,0-2.7-1.2-2.7-3.1c0-1.9,1.2-3.1,2.7-3.1c1.6,0,2.7,1.2,2.7,3.1
		C306.7,189.2,305.5,190.4,303.9,190.4z M303.9,189.8c1.3,0,2.1-1,2.1-2.5c0-1.5-0.8-2.5-2.1-2.5c-1.3,0-2.1,1-2.1,2.5
		C301.9,188.8,302.7,189.8,303.9,189.8z"/>
	<path class="st1" d="M313.6,189.5L313.6,189.5l1.5-5.2h0.7l-1.8,6h-0.7l-1.5-5.2h0l-1.5,5.2h-0.8l-1.8-6h0.7l1.5,5.2h0l1.5-5.2h0.8
		L313.6,189.5z"/>
</g>
<g>
	<path class="st2" d="M321.8,183c1.5,0,2.1-0.4,2.3-1.3h1.9v8.6h-2.5v-5.6h-1.7V183z"/>
	<path class="st2" d="M329.7,181.5c1.2,0,2.1,1,2.1,2.1c0,1.2-1,2.1-2.1,2.1c-1.2,0-2.1-1-2.1-2.1
		C327.6,182.5,328.6,181.5,329.7,181.5z M336,181.7l-6,8.6h-1.4l6-8.6H336z M329.7,184.6c0.5,0,0.9-0.4,0.9-0.9
		c0-0.5-0.4-0.9-0.9-0.9c-0.5,0-0.9,0.4-0.9,0.9C328.8,184.2,329.3,184.6,329.7,184.6z M334.8,186.2c1.2,0,2.1,1,2.1,2.1
		c0,1.2-0.9,2.1-2.1,2.1c-1.2,0-2.1-1-2.1-2.1C332.7,187.1,333.7,186.2,334.8,186.2z M334.8,189.2c0.5,0,0.9-0.4,0.9-0.9
		c0-0.5-0.4-0.9-0.9-0.9s-0.9,0.4-0.9,0.9C333.9,188.8,334.4,189.2,334.8,189.2z"/>
</g>
<path class="st10" d="M105.8,63.5c0,0,0.1,0,0.1,0V0c-2.3,0-5,0.1-7.4,0.3l4.4,63.4C104,63.6,104.9,63.5,105.8,63.5z"/>
<path class="st9" d="M103,63.6L98.6,0.3c-4.7,0.3-8.2,0.8-12.8,1.7l12.1,62.3C99.6,64,101.3,63.7,103,63.6z"/>
<path class="st8" d="M97.9,64.3L85.8,1.9c-2.3,0.4-4.9,1.1-7.2,1.7l16.4,61.3C96,64.7,97,64.5,97.9,64.3z"/>
<path class="st7" d="M95.1,64.9L78.6,3.6c-6.8,1.8-12.7,4-19,7.1l27.8,57C89.9,66.6,92.4,65.6,95.1,64.9z"/>
<path class="st6" d="M87.5,67.7l-27.8-57C36.6,22,21,37.7,10.2,61l57.5,26.8C71.7,79.1,78.8,71.9,87.5,67.7z"/>
<path class="st2" d="M130.7,71.6l37.4-51.5C149.2,6.5,129.3,0,106,0v63.5C115.2,63.6,123.8,66.6,130.7,71.6z"/>
<path class="st5" d="M168.1,20.2l-37.4,51.5c10.5,7.7,17.3,20.1,17.3,34c0,23.3-18.9,42.2-42.2,42.2S63.7,129,63.7,105.7
	c0-6.4,1.4-12.4,4-17.9L10.2,61c-21.7,46.6-7.9,100,33.7,130.2c47.2,34.3,113.3,23.8,147.6-23.4C225.8,120.6,215.3,54.5,168.1,20.2z
	"/>
</svg>
