<?xml version="1.0" encoding="utf-8"?>
<!-- Generator: Adobe Illustrator 23.0.2, SVG Export Plug-In . SVG Version: 6.00 Build 0)  -->
<svg version="1.1" id="Layer_1" xmlns="http://www.w3.org/2000/svg" xmlns:xlink="http://www.w3.org/1999/xlink" x="0px" y="0px"
	 viewBox="0 0 144 64.89" style="enable-background:new 0 0 144 64.89;" xml:space="preserve">
<style type="text/css">
	.st0{fill:#FFFFFF;}
</style>
<path class="st0" d="M120.18,15.88c-2.12-1.24-3.54-1.73-4.42-1.92c0.94,0.44,2.41,1.28,4.5,2.85c0.92,0.69,1.83,1.04,2.7,1.04
	c0.84,0,1.62-0.33,2.29-0.95c-0.34,0.12-0.76,0.2-1.26,0.2C122.86,17.11,121.58,16.7,120.18,15.88"/>
<path class="st0" d="M125.07,16.36c0.45-0.69,0.17-1.82,0.17-1.83l0-0.01c-0.01-0.03-0.68-3.45-0.97-5.11
	c-0.11-0.61-0.05-1.08,0.07-1.45c-0.38,0.41-0.6,0.99-0.68,1.72c-0.07,0.73,0.01,1.6,0.23,2.54c0.19,0.78,0.18,1.14,0.13,1.44
	c-0.05,0.29-0.21,0.34-0.21,0.34l-0.19-0.35c-0.2-0.36-0.61-0.64-1.02-0.91c-0.24-0.16-0.46-0.31-0.65-0.48
	c-0.18-0.16-0.33-0.34-0.43-0.51c-0.11,0.97,0.3,1.61,0.32,1.64l0.15,0.27l-0.37-0.12c0,0-0.29-0.08-0.71-0.08
	c-0.12,0-0.25,0.02-0.37,0.05c-0.14,0.04-0.3,0.07-0.45,0.1c0.41,0.31,0.81,0.44,1.28,0.6c0.37,0.12,0.79,0.26,1.26,0.51
	c1.52,0.8,1.83,1.63,1.88,2.09C124.76,16.7,124.94,16.56,125.07,16.36"/>
<path class="st0" d="M129.29,8.16c-0.63,0.37-1.21,0.46-1.62,0.46c-0.47,0-0.78-0.12-0.8-0.12l-0.33-0.13l0.25-0.25
	c0.3-0.3,0.45-0.6,0.44-0.9c-0.01-0.16-0.06-0.3-0.12-0.41l-0.03,0.05c-0.15,0.26-0.48,0.58-1.22,0.65
	c-1.21,0.12-1.33,0.73-1.36,0.92c-0.02,0.1-0.16,1.01,0.73,1.37c0.46,0.19,0.76,0.5,0.94,0.76c0.07-0.39-0.05-0.66-0.05-0.66
	l-0.16-0.34l0.37,0.01l0.2,0c1.13,0,1.98-0.35,2.51-1.04C129.14,8.42,129.22,8.28,129.29,8.16"/>
<path class="st0" d="M126.92,13.27c-1.05,0.28-1.2,0.95-1.21,1.5c-0.01,0.3-0.06,0.67-0.14,1.01c0.22-0.11,0.49-0.2,0.8-0.2
	l0.18,0.01c0.61,0.06,0.95,0.28,1.13,0.49c0.04-0.12,0.06-0.27,0.04-0.42c-0.04-0.31-0.26-0.6-0.63-0.86l-0.27-0.18l0.26-0.19
	c0.01-0.01,1.2-0.88,1.39-2.06C128.14,12.69,127.62,13.08,126.92,13.27"/>
<path class="st0" d="M107,11.7l-0.08,0.07c-0.97,0.77-1.48,1.85-1.51,3.22c0.18-0.29,0.44-0.59,0.9-0.84
	c0.47-0.25,0.89-0.39,1.26-0.51c0.48-0.16,0.87-0.29,1.28-0.6c-0.15-0.03-0.31-0.06-0.45-0.1c-0.12-0.03-0.25-0.05-0.37-0.05
	c-0.42,0-0.73,0.13-0.74,0.13l-0.36,0.15l0.14-0.37c0.02-0.03,0.46-0.65,0.35-1.62C107.33,11.36,107.18,11.54,107,11.7"/>
<path class="st0" d="M103.27,10.31c0.18-0.27,0.48-0.57,0.94-0.76c0.89-0.37,0.75-1.27,0.73-1.37c-0.06-0.35-0.28-0.82-1.36-0.92
	c-0.76-0.07-1.09-0.4-1.24-0.71c-0.06,0.12-0.11,0.26-0.12,0.42c-0.01,0.3,0.14,0.6,0.44,0.9l0.25,0.25l-0.33,0.13
	c-0.01,0-0.32,0.12-0.8,0.12c-0.42,0-1-0.09-1.63-0.46c0.32,0.63,1.1,1.5,2.96,1.43l0.37-0.01l-0.16,0.34
	C103.31,9.67,103.2,9.93,103.27,10.31"/>
<path class="st0" d="M102.15,14.96c0.08-0.01,0.17-0.02,0.25-0.02c1.41,0,1.7,1.39,2.13,2.23c0.43,0.81,0.56,0.78,1.03,1.13
	c-0.43-0.87-0.64-1.87-0.51-3.39c0.13-1.54,0.51-2.85,0.54-2.96c0.22-0.93,0.31-1.81,0.23-2.53c-0.07-0.74-0.3-1.31-0.68-1.72
	c0.12,0.36,0.18,0.84,0.07,1.45c-0.24,1.38-0.75,3.97-0.92,4.83l-0.17,0.89l-0.29-0.67c-0.21-0.5-1.07-1.16-2.12-1.41
	c-0.71-0.17-1.23-0.56-1.56-0.88c0.2,1.18,1.38,2.04,1.39,2.05l0.26,0.19l-0.27,0.18c-0.38,0.26-0.59,0.55-0.63,0.86
	c-0.02,0.16,0,0.31,0.05,0.44C101.14,15.35,101.5,15.07,102.15,14.96"/>
<path class="st0" d="M105.41,17.33c0.18,0.46,0.5,0.96,1.04,0.96l0.23-0.03c1.33-0.3,2.14-0.91,2.93-1.51
	c0.2-0.16,0.4-0.31,0.61-0.45c-0.4,0.13-0.91,0.33-1.53,0.63c-0.89,0.42-1.65,0.64-2.27,0.64C106.03,17.57,105.7,17.49,105.41,17.33
	"/>
<path class="st0" d="M110.26,12.84l0.23,0.74c1.31-0.33,2.67-0.5,4.02-0.5c2.07,0,3.51,0.4,3.97,0.54l0.23-0.79
	c-0.3-0.1-1.89-0.59-4.16-0.59C113.11,12.25,111.66,12.45,110.26,12.84"/>
<path class="st0" d="M116.28,10.77c-0.32,0-0.58,0.26-0.58,0.58c0,0.32,0.26,0.58,0.58,0.58c0.32,0,0.58-0.26,0.58-0.58
	C116.85,11.03,116.59,10.77,116.28,10.77"/>
<path class="st0" d="M118.34,11.11c-0.32,0-0.58,0.26-0.58,0.58c0,0.32,0.26,0.58,0.58,0.58c0.32,0,0.58-0.26,0.58-0.58
	C118.92,11.37,118.66,11.11,118.34,11.11"/>
<path class="st0" d="M112.65,10.77c-0.32,0-0.58,0.26-0.58,0.58c0,0.32,0.26,0.58,0.58,0.58c0.32,0,0.58-0.26,0.58-0.58
	C113.23,11.03,112.97,10.77,112.65,10.77"/>
<path class="st0" d="M110.56,11.11c-0.32,0-0.58,0.26-0.58,0.58c0,0.32,0.26,0.58,0.58,0.58c0.32,0,0.58-0.26,0.58-0.58
	C111.13,11.37,110.88,11.11,110.56,11.11"/>
<path class="st0" d="M118.79,21.84c-0.02-0.13-0.05-0.39-0.14-0.91c-0.13-0.79-0.01-2.15,0.06-2.88c0.01-0.13,0.02-0.24,0.03-0.33
	c0.04-0.53-0.22-0.78-0.23-0.79l-0.67-0.58l-0.2-0.06c-0.19,0-0.35,0.15-0.35,0.35c0,0.41-0.33,0.73-0.73,0.73
	c-0.4,0-0.73-0.33-0.73-0.73c0-0.4,0.33-0.73,0.73-0.73c0.19,0,0.35-0.15,0.35-0.34c0-0.08-0.03-0.16-0.08-0.22
	c-0.98-0.97-2.23-1.46-3.72-1.46c-1.27,0-2.28,0.38-2.4,0.42l-1.3,1.4c1.56-0.4,2.93-0.59,4.09-0.59c1.51,0,2.09,0.34,2.12,0.36
	l0.14,0.09l-0.17,0.02c0,0-0.43,0.04-1.09,0.18c0.25,0.21,0.9,0.83,0.88,1.61c0,0.07-0.05,1.62-1.71,2.35
	c-1.03,0.45-1.62,0.98-1.87,1.25c0.85-0.32,1.74-0.47,2.66-0.47C116.03,20.5,117.52,20.97,118.79,21.84"/>
<path class="st0" d="M110.53,21.67c0.22-0.14,0.45-0.26,0.69-0.37c0.04-2.47-0.44-3.36-0.44-3.36c0.87-1.09,3.24-2.11,3.24-2.11
	c-1.16,0.29-2.79,0.85-4.35,1.88C109.66,17.71,110.49,19.42,110.53,21.67"/>
<rect x="110.43" y="3.6" class="st0" width="8.1" height="0.56"/>
<polygon class="st0" points="118.34,4.45 118.46,4.45 119.78,7.46 119.65,7.43 118.34,5.49 117.04,7.43 116.9,7.46 118.23,4.45 "/>
<polygon class="st0" points="110.56,4.45 110.44,4.45 109.12,7.46 109.25,7.43 110.56,5.49 111.86,7.43 112,7.46 110.67,4.45 "/>
<path class="st0" d="M110.56,9c0.84,0,1.61-0.45,2.02-1.16l-4.04-0.01C108.95,8.55,109.72,9,110.56,9"/>
<path class="st0" d="M118.34,9c0.84,0,1.61-0.45,2.02-1.17l-4.04,0.01C116.73,8.55,117.5,9,118.34,9"/>
<path class="st0" d="M111.69,3.08H113c-0.22-0.33-0.18-0.7-0.17-0.73l0.02-0.17l0.17,0.02c0.77,0.1,1.08,0.6,1.19,0.87h0.48
	c0.11-0.27,0.42-0.77,1.19-0.87l0.17-0.02l0.02,0.17c0,0.02,0.05,0.39-0.17,0.73h1.31c-0.31-1.08-1.24-1.89-2.37-2.05l-0.11-0.01
	L114.45,0l-0.28,1.02l-0.11,0.01C112.93,1.18,112,2,111.69,3.08"/>
<path class="st0" d="M108.27,38.14c-0.17-0.25-0.3-0.49-0.36-0.61c-0.21,0.04-0.83,0.17-1.7,0.38c0.04,0.13,0.05,0.36-0.1,0.64
	C107.17,38.32,107.94,38.19,108.27,38.14"/>
<path class="st0" d="M95.28,42.59c-0.16-0.13-0.3-0.15-0.36-0.15c-0.91,0.58-1.72,1.19-2.4,1.82C93.4,43.66,94.32,43.1,95.28,42.59"
	/>
<path class="st0" d="M101.49,39.87c0.04-0.28-0.02-0.44-0.06-0.52c-0.79,0.28-1.56,0.58-2.29,0.89c0.07,0.1,0.15,0.25,0.15,0.45
	C100.03,40.4,100.76,40.12,101.49,39.87"/>
<path class="st0" d="M127.81,17.63c0.71-0.15,1.07-0.34,1.48-0.27c0.4,0.07,0.5-0.31,0.5-0.31c0.18-0.77,0.75-0.85,0.75-0.85
	c-0.38,0.48-0.23,0.94-0.13,0.95c0.09,0.01,0.17-0.12,0.17-0.12c0.46-0.68,1.18-0.53,1.18-0.53s-0.32,0-0.54,0.63
	c-0.11,0.33,0.06,0.6,0.06,0.76s-0.23,0.28-0.23,0.28s0.01,0.3,0.01,0.48c0,0.18,0.11,1.32-0.43,1.84
	c-0.69,0.66-1.19-0.13-1.19-0.13c1.42,0.24,1-1.31,0.88-1.53c-0.12-0.23-0.34-0.16-0.45-0.04c-0.08,0.1-0.28,0.17-0.59,0.09
	c-0.38-0.09-0.5-0.5-0.5-0.5s0.66,0.38,0.78,0.11c0.11-0.26-0.44-0.44-1.03-0.44c-0.59,0-1.68,0.06-2.29-0.36
	C126.22,17.68,127.1,17.77,127.81,17.63"/>
<path class="st0" d="M126.23,19.69c-0.9,0.24-1.25-0.7-1.25-0.7s0.23,0.58,1.14,0.38c1.48-0.33,1.53,0.28,1.53,0.28
	S127.19,19.43,126.23,19.69"/>
<path class="st0" d="M126.41,18.12c0,0,0.05,0.49,1.23,1.03c0.51,0.24,0.53,0.5,0.52,0.54c-0.02,0.08-0.07,0.1-0.4,0.18
	c-0.74,0.18-0.6,0.54-1.56,0.66c0,0,0.34,0.29,1.16-0.05c0.52-0.22,0.84-0.08,0.95-0.07c0.12,0.01,0.52,0.18,0.64-0.12
	c0.12-0.3,0.07-0.72-0.56-1.16C127.75,18.69,127.48,18.89,126.41,18.12"/>
<path class="st0" d="M121.93,21.9c0,0,0.91-0.52,1.29-0.02c0.38,0.5,0.32,0.7,0.29,1.15c-0.03,0.45-0.56,3.15,0.95,3.68
	c0,0-0.58-2.23,0.48-3.62c0,0-0.38-0.67-0.23-2.03c0,0-0.29,0.76-0.76,0.53C123.48,21.37,122.55,20.69,121.93,21.9"/>
<path class="st0" d="M122.18,21.23c0,0-1.36-0.11-1.69,0.85c0,0-0.43-0.63,0.48-1.06C121.42,20.81,122.18,21.23,122.18,21.23"/>
<path class="st0" d="M124.52,20.71c-1.12,0.39-2.5-0.73-3.37-0.81c-1.9-0.16-1.91,1.86-1.91,1.86s0.86-1.83,2.66-1.15
	C122.83,20.96,124.32,21.53,124.52,20.71"/>
<path class="st0" d="M125.84,27.01c1.81-0.55,2.56-1.73,2.56-1.73s-0.05,1.38-2.41,2.12c-1.46,0.46-2.44,1.68-2.44,1.68
	S123.63,27.68,125.84,27.01"/>
<path class="st0" d="M128.77,26.11c0,0,0.01,1-1.92,1.68c-1.93,0.68-4.97,1.78-5.33,4.93c0,0,0.55-1.45,0.95-1.4
	c0.16,0.02,0.17,0.15,0.17,0.18c0,0.04,0,0.3,0.18,0.33c0,0,0.26-1.63,1.09-1.36c0.28,0.09,0.23,0.44,0.23,0.44s0.34-0.12,0.27-0.69
	c-0.05-0.39-0.31-0.57-0.31-0.57s2.09-1.71,4.77-1.87c0,0-0.33-0.4-0.11-1.34C128.83,26.18,128.77,26.11,128.77,26.11"/>
<path class="st0" d="M137.44,12.29c-4.34,3.54-5.84,6.86-5.84,6.86v-1C131.6,18.15,132.62,15.23,137.44,12.29"/>
<path class="st0" d="M140.85,13.11c-5.59,2.58-8.96,7.46-9.11,7.7c-0.29,0.48-0.14,0.63-0.15,0.85c-0.1,2.04-1.5,3.21-1.68,3.48
	c-0.18,0.27,0.03,0.47,0.03,0.47s0.34-0.19,0.65,0.01c0.38,0.24,0.16,0.72,0.03,0.86c-0.15,0.16-0.5,0.39-0.88,0.16
	c-0.38-0.24-0.7-0.99,0-2.07c1.22-1.86,1-2.75,0.98-2.9c-0.02-0.15-0.2-0.1-0.25-0.09c-0.05,0.01-0.13,0.08-0.21,0.05
	c-0.09-0.03-0.02-0.1-0.02-0.1S135.15,14.52,140.85,13.11"/>
<path class="st0" d="M129.75,22.18c0,0-1.12,1.2-1.09,2.64C128.66,24.82,130.15,23.01,129.75,22.18"/>
<path class="st0" d="M131.8,23.26c0,0,0.48,1.32-0.57,2.92c0,0,0.46-0.33,0.61-0.1c0.26,0.39-1.01,1.81-1.01,1.81s1.11-1,1.72-0.99
	c0.61,0.01,1.01,0.45,1.01,0.45S133.08,24.52,131.8,23.26"/>
<path class="st0" d="M132.27,21.62c0,0,1.07,0.48,1.06,2.39c0,0,0.29-0.24,0.54-0.04c0.4,0.32,0.14,2.47,0.14,2.47
	s0.43-1.47,0.99-2.03c0.57-0.57,0.97-0.36,0.97-0.36S134.5,22.28,132.27,21.62"/>
<path class="st0" d="M132.9,20.31c0,0,1.63-0.1,1.63,1.32c0,0,0.33-0.49,0.84-0.29c0.7,0.28,0.7,2.01,0.7,2.01s0.1-3.05,1.13-2.88
	C137.2,20.47,135.54,20.02,132.9,20.31"/>
<path class="st0" d="M138.73,14.84c0,0-1.6,0.51-4.52,4.11c0,0,1.04-0.56,1.2,0.38c0,0,0.07-0.88,0.75-0.81c0.68,0.07,0.66,1,0.66,1
	S137.22,16.35,138.73,14.84"/>
<path class="st0" d="M128.2,21.28c0.16,0.21,0.29,0.74,0.29,0.77c0.01,0.11-0.07,0.18-0.16,0.14c-0.03-0.01-0.47-0.21-0.68-0.41
	c-0.08-0.07-0.13-0.18-0.13-0.3c0.01-0.21,0.19-0.37,0.39-0.35C128.03,21.14,128.13,21.19,128.2,21.28"/>
<path class="st0" d="M129.02,20.89c0.09,0.2,0.08,0.64,0.08,0.67c-0.01,0.09-0.09,0.13-0.16,0.08c-0.02-0.01-0.33-0.26-0.46-0.46
	c-0.05-0.07-0.07-0.17-0.04-0.26c0.05-0.16,0.22-0.25,0.38-0.2C128.92,20.75,128.99,20.81,129.02,20.89"/>
<path class="st0" d="M127.32,21.83c0.2,0.17,0.43,0.66,0.44,0.69c0.03,0.1-0.03,0.19-0.13,0.17c-0.03,0-0.5-0.11-0.75-0.26
	c-0.1-0.05-0.17-0.15-0.19-0.27c-0.03-0.2,0.11-0.4,0.31-0.43C127.12,21.73,127.23,21.77,127.32,21.83"/>
<path class="st0" d="M126.59,22.64c0.27,0.13,0.64,0.56,0.65,0.59c0.06,0.1,0.01,0.19-0.1,0.2c-0.03,0-0.58,0-0.89-0.09
	c-0.12-0.03-0.22-0.11-0.27-0.23c-0.08-0.19,0.03-0.41,0.24-0.49C126.35,22.58,126.48,22.59,126.59,22.64"/>
<path class="st0" d="M125.9,23.61c0.28,0.09,0.72,0.46,0.74,0.48c0.07,0.08,0.04,0.19-0.07,0.21c-0.03,0.01-0.57,0.09-0.89,0.05
	c-0.12-0.01-0.24-0.08-0.3-0.18c-0.11-0.18-0.04-0.41,0.16-0.52C125.65,23.58,125.78,23.57,125.9,23.61"/>
<path class="st0" d="M125.53,24.67c0.32,0.06,0.84,0.4,0.87,0.43c0.09,0.08,0.07,0.2-0.04,0.24c-0.03,0.01-0.61,0.18-0.97,0.17
	c-0.14,0-0.27-0.05-0.35-0.16c-0.15-0.18-0.1-0.45,0.11-0.59C125.26,24.68,125.4,24.66,125.53,24.67"/>
<path class="st0" d="M125.45,25.85c0.35-0.05,1.02,0.13,1.06,0.15c0.12,0.06,0.14,0.18,0.03,0.27c-0.03,0.03-0.58,0.39-0.96,0.51
	c-0.14,0.05-0.3,0.04-0.42-0.04c-0.22-0.14-0.25-0.43-0.09-0.66C125.17,25.95,125.31,25.88,125.45,25.85"/>
<path class="st0" d="M126.87,28.83c0.3-0.19,0.98-0.31,1.02-0.31c0.14,0,0.2,0.11,0.14,0.23c-0.02,0.04-0.36,0.6-0.65,0.86
	c-0.11,0.1-0.26,0.16-0.4,0.14c-0.25-0.03-0.41-0.28-0.35-0.56C126.66,29.04,126.75,28.91,126.87,28.83"/>
<path class="st0" d="M127.83,29.8c0.13-0.33,0.62-0.82,0.66-0.84c0.11-0.08,0.23-0.03,0.25,0.1c0.01,0.04,0.05,0.7-0.04,1.08
	c-0.03,0.15-0.12,0.28-0.25,0.34c-0.23,0.12-0.5,0-0.61-0.25C127.77,30.09,127.78,29.93,127.83,29.8"/>
<path class="st0" d="M129.15,30.38c-0.09-0.35,0.03-1.03,0.04-1.07c0.04-0.13,0.17-0.16,0.26-0.06c0.03,0.03,0.45,0.54,0.6,0.9
	c0.06,0.14,0.07,0.29,0,0.43c-0.12,0.23-0.4,0.3-0.64,0.15C129.28,30.65,129.19,30.52,129.15,30.38"/>
<path class="st0" d="M128.08,30.84c0,0-1,0.27-2.21,1.76c0,0-0.12,1.21,0.23,2.55c0,0,0.26-0.47,0.28-1.12
	c0.02-0.65,0.13-1.17,0.58-1.59C127.42,32.03,128.12,31.51,128.08,30.84"/>
<path class="st0" d="M128.76,31.38c0,0-0.23,0.93-1.11,1.74c-0.88,0.81-1.03,1.23-1.16,2.27c-0.08,0.64-0.22,1.21-0.51,1.57
	c-0.29,0.36-0.83,0.93-0.83,0.93s-1.57-0.37-3.77-0.45l-0.54,0.96c0,0,0.52-0.53,1.47-0.15l-0.66,0.48l-0.04,0.89
	c0,0,0.61-0.9,1.49-0.57l-0.41,0.46l0.29,0.85c0,0,0.32-1.24,1.69-1.25c0.64,0,1.61-0.13,1.71,0.73c0,0,0.95-0.33-0.09-1.54
	c0,0,0.62-1.16,1.97-1.63c0,0-0.84-0.59-0.13-1.95c0.49-0.94,1.26-1.08,1.26-1.08S129.72,32.35,128.76,31.38"/>
<path class="st0" d="M130.69,33.18c1.06-3.55-1.38-4.87-1.38-4.87s1.79,1.26,0.79,4.69c-1,3.43,1.32,4.7,1.32,4.7
	S129.63,36.73,130.69,33.18"/>
<path class="st0" d="M138.79,24.59c0.06,2.1-1.99,3.28-2.88,4.21c-1.54,1.63-0.64,3.72-0.09,4.69c0.55,0.96,0.44,1.38,0.24,1.6
	c-0.2,0.22-0.66,0.09-0.96-0.18c-0.31-0.27-0.14-0.77-0.14-0.77s-0.45,0.19-0.75-0.21c-0.3-0.39,0.06-0.82,0.06-0.82
	s-0.43,0.06-0.69-0.39c-0.2-0.35,0.07-0.76,0.07-0.76s-0.49-0.04-0.75-0.54c-0.26-0.5,0.05-0.86,0.05-0.86s-0.29,0.06-0.57-0.32
	c-0.23-0.3-0.04-0.75-0.04-0.75c-0.65-0.01-1.51-0.95-1.51-0.95s2.06,1.88,0.97,5.05c-1.08,3.17-0.2,3.76,0.26,4.43
	c0.47,0.68,0.32,1.15,0.29,1.32c-0.03,0.17-0.16,0.84-0.56,1.16c-0.4,0.33-1.6,1.55-1.6,1.55l0.25,0.77c0,0-0.01-0.4,0.47-0.75
	c0.48-0.35,1.34-1.02,2.01-1.04c0.87-0.03,0.65,0.6,0.65,0.6s0.91-0.14,0.27-0.92c-0.26-0.32-0.77-0.36-0.77-0.36
	s-0.21-1.53,0.61-2.66c0,0-1.22-0.65-1.02-1.94c0.16-1.05,0.47-1.49,0.43-1.83c0,0,0.48,0.21,0.33,1.76c0,0,1.64,2.2,3.61,0.87
	c0.9-0.6,0.3-2.43,0.17-2.68c-0.14-0.25-0.27-0.69-0.09-0.94c0,0-0.38,0.07-0.49-0.26c-0.12-0.33,0.14-0.65,0.14-0.65
	s-0.45,0.05-0.57-0.2c-0.18-0.37,0.16-0.6,0.16-0.6s-0.62-0.11-0.52-0.95c0.08-0.62,0.45-1.8,1.35-1.63
	c0.29,0.06,0.56,0.43,0.46,0.95C137.64,29.6,139.77,27.06,138.79,24.59"/>
<path class="st0" d="M138.52,25.03c0,0-0.04,1.03-2.08,2.78c0,0-0.15-0.92-1.04-0.68C135.4,27.13,138.24,26.34,138.52,25.03"/>
<path class="st0" d="M131.59,40.43l-2.28,0.4l-0.02,0.91c0,0,0.31-0.57,1.49-0.62L131.59,40.43z"/>
<path class="st0" d="M130.67,40.34l-1.68-0.59l-0.03,0.96C128.95,40.71,129.57,40.1,130.67,40.34"/>
<path class="st0" d="M132.69,41.64l-0.02-0.01l-0.06-0.01c-0.07,0-0.21,0.03-0.41,0.17l-0.03,0.02c1.51,0.74,2.94,1.55,4.27,2.44
	C135.42,43.33,134.17,42.46,132.69,41.64"/>
<path class="st0" d="M128.48,40.24l-0.01-0.53l-1.16-0.42c0.04,0.14,0.04,0.32-0.06,0.52C127.52,39.9,128.16,40.12,128.48,40.24"/>
<path class="st0" d="M101.2,22.44c0,0,1.49-0.1,2.37,0.81l1.55-1.55c0,0,1.98-1.9,3.48-0.91c1.09,0.72,0.75,1.29,0.75,1.29
	s0,0.17,0.21,0.07c0.2-0.1,0.52-0.37,0.52-0.37s-0.03-0.86-1.34-1.49c-2.72-1.32-4.83,1.79-5.21,2.07
	C103.52,22.34,102.3,21.91,101.2,22.44"/>
<path class="st0" d="M108.67,21.88c0,0-1.23-1.55-2.42-0.43c-0.98,0.92-0.52,1.35-1.99,2.44c0,0,0.65,0.78-0.08,2.78
	c0,0,0.91-0.26,0.97-0.88c0.06-0.61-0.08-1.08,0.14-1.12c0.23-0.04,0.2,0.52,0.14,0.56c0,0,0.46-0.1,0.37-0.74
	c-0.08-0.64,0-0.61,0.06-0.62c0.06-0.01,0.26,0.05,0.18,0.42c0,0,0.46-0.16,0.41-0.92c-0.05-0.77-0.09-1.27,0.15-1.44
	c0.52-0.35,1.1,0.44,1.1,0.44s-0.2-0.54,0.01-0.66C108.09,21.51,108.67,21.88,108.67,21.88"/>
<path class="st0" d="M98.68,26.79c-0.47,0.11-0.62,0.52-0.47,0.19c0,0,0.11-1.13-0.24-1.75c-0.35-0.63-0.05-1.62-0.05-1.62
	s-0.8,0.62-0.43,1.67c0.32,0.91,0.15,1.01,0.1,1.32c-0.05,0.31-0.25,1.15,0.25,1.6c0,0,0.01-0.44,0.43-0.63
	c0.42-0.19,1.15-0.4,1-1.61C99.27,25.96,99.15,26.68,98.68,26.79"/>
<path class="st0" d="M101.31,26.66c-0.49,0.22-0.51,0.33-0.51,0.33c0.15-2.32-1.43-2.27-1.43-2.27s0.92,0.44,0.74,1.83
	c-0.11,0.88-0.17,1.28,0.15,1.99c0,0,0.17-0.56,0.67-0.93c0.49-0.36,1.1-0.74,0.88-1.94C101.8,25.67,101.86,26.41,101.31,26.66"/>
<path class="st0" d="M103.53,24.39c0.18,0.68-0.48,1.67-0.48,1.67c-0.34-0.49-0.28-1.01-0.58-1.47c-0.89-1.35-2.14-0.47-2.14-0.47
	s1.53-0.47,1.88,1.48c0.35,1.95,1.5,1.82,1.5,1.82s-0.32-0.33-0.17-0.96C103.68,25.83,104.23,25.13,103.53,24.39"/>
<path class="st0" d="M102.79,27.37c-0.25-0.48,0.53,0.79,1.86,1.01c1.61,0.26,1.88,0.75,1.88,0.75s1.54-0.31,1.2,0.91
	c0,0-0.1-0.59-0.87-0.5c-0.76,0.09-0.84,0.22-0.84,0.22s0.33-0.39-0.5-0.65C103.31,28.43,103.04,27.85,102.79,27.37"/>
<path class="st0" d="M104.82,31.27c-0.11-0.16-0.21-0.1-0.55,0.04c-0.46,0.19-0.69-0.34-0.69-0.34c0.48,0.18,0.53-0.19,0.47-0.27
	c-0.06-0.08-0.08-0.16-0.44-0.02c-0.42,0.15-0.71-0.22-0.71-0.22c0.26,0.11,0.64-0.12,0.52-0.32c-0.12-0.2-0.25-0.03-0.72,0.03
	c-0.48,0.07-0.97-0.83-0.97-0.83c0.12-0.69-0.14-1.33-0.14-1.33s0.44,0.13,0.78,0.81c0.24,0.47,0.45,0.48,0.92,0.72
	c0.47,0.23,2.51,1.04,1.73,2.3C104.46,32.72,104.97,31.49,104.82,31.27"/>
<path class="st0" d="M106.13,31.87c0.04-0.3-0.16-0.39-0.3-0.57c-0.32-0.42-0.01-0.56-0.01-0.56s0.44-0.14,0.59,0.34
	c0.18,0.61-0.24,0.86-0.24,0.86S106.11,31.98,106.13,31.87"/>
<path class="st0" d="M107.07,31.2c-0.02-0.28-0.22-0.31-0.37-0.44c-0.36-0.31-0.11-0.49-0.11-0.49s0.37-0.21,0.58,0.19
	c0.28,0.51-0.05,0.8-0.05,0.8S107.08,31.3,107.07,31.2"/>
<path class="st0" d="M92.76,26.63c-1.34-0.77-0.69-1.89-0.11-3.27c0.63-1.51-0.87-1.72-0.87-1.72s0.63,0.35,0.13,1.51
	c-0.5,1.16-0.82,1.91-0.69,2.64C91.48,27.18,92.76,26.63,92.76,26.63"/>
<path class="st0" d="M94.44,23.79c0,0-1.88,0.22-1.95,1.91c-0.04,1.04,1.14,0.76,1.14,0.76s-0.59-0.34-0.46-0.98
	C93.39,24.52,94.44,23.79,94.44,23.79"/>
<path class="st0" d="M99.3,27.71c-1.28,1.69-2.48,5.19-3.09,6.36c-0.34,0.64-2.41,3.62-4.18,2.13c-1.93-1.63,0.43-4.49,0.63-4.81
	c0.2-0.32,1.33-1.48,2.05-2.5c0.72-1.01,0.88-1.45,0.62-1.7c-0.31-0.29-0.85-0.14-2.01,0.55c-1.84,1.09-2-0.82-2-0.82
	s0.73,0.81,1.5,0.31c0.76-0.5,2.04-1.78,3.26-0.69c1,0.9-0.85,3.11-0.98,3.29c-0.13,0.18-1.56,1.85-1.88,2.3
	c-0.32,0.45-1.57,2.47-0.44,3.26s2.6-1.52,3.37-2.99C96.45,31.8,97.61,28.61,99.3,27.71"/>
<path class="st0" d="M96.4,34.72c0,0,0.71,2.4-1.88,4.71c0,0,1.03,0.24,0.83,2.59c0,0,0.9,0.24,0.92,0.6c0,0,0.48-0.6-0.36-1
	c0,0,0.23-1.9-0.45-2.22C95.46,39.42,98.17,36.48,96.4,34.72"/>
<path class="st0" d="M97.39,42.03c-0.12-0.25-0.32-0.21-0.51-0.27c-0.45-0.16-0.29-0.41-0.29-0.41s0.26-0.33,0.61-0.04
	c0.44,0.37,0.25,0.76,0.25,0.76S97.44,42.12,97.39,42.03"/>
<path class="st0" d="M101.62,29.93c0,0-0.86,1.73-2.26,1.71c-1-0.02-1.14,0.37-1.18,0.5c-0.06,0.18-0.17,0.57,0.29,1.25
	c0.45,0.68,2.04,2.8-1.54,5.36v1.85c0,0-0.03,0.4,0.42,0.34c0.45-0.06,1.07,0,1.27,0.36c0,0,0.36-0.76-0.66-0.97
	c0,0-0.36-0.03-0.36-0.5v-0.8c0,0,1.94-1.47,2.23-3.05c0.29-1.58-0.82-3.1-0.82-3.1s-0.24-0.32-0.13-0.48
	c0.17-0.27,0.38-0.23,0.6-0.25c0.31-0.04,1.56-0.14,2.22-1.98C101.68,30.15,101.75,29.98,101.62,29.93"/>
<path class="st0" d="M100.25,32.43c0,0-0.76-0.05-0.51,0.7c0.23,0.68,0.5,0.71,0.55,1.81c0,0,1.23,0.11-0.04,3.09l-0.04,0.22
	c0.05,0.08,0.19,0.08,0.5,0.07c0.3-0.01,1.65,0.06,1.44,1.5c0,0,0.89-0.38,1.73,0.29c0,0,0.36-0.82-0.55-1.2
	c0,0-0.23-0.87-1.44-1.48c-0.78-0.39-0.26-2.61-0.14-2.89C101.75,34.54,100.44,33.96,100.25,32.43"/>
<path class="st0" d="M100.8,32.06c0,0,2.88,1.25,1.53,4.56c0,0,1.28,0.81,1.42,1.75c0,0,1.47-0.82,1.61,0.29
	c0,0,0.69-0.93-0.31-1.08c-0.25-0.04-0.99,0.17-0.99,0.17s-0.14-0.59-1-1.24c0,0,0.96-2.75-1.61-4.29
	C101.44,32.23,100.97,31.93,100.8,32.06"/>
<path class="st0" d="M104.94,39.42c-0.12-0.25-0.32-0.21-0.51-0.27c-0.45-0.16-0.29-0.41-0.29-0.41s0.26-0.33,0.61-0.04
	c0.44,0.37,0.25,0.76,0.25,0.76S104.98,39.51,104.94,39.42"/>
<path class="st0" d="M97.73,17.53c0,0,2.86-0.81,3.07,0.22h0.61c0,0,0.64,0.01,0.61,0.31c-0.06,0.5-0.66,1.02-0.66,1.02l0.12-0.63
	c0,0,0.13-0.28-0.47-0.27c-0.47,0.01-0.94,0-0.94,0v-0.25c0,0,0.05-0.3-0.41-0.33C99.23,17.57,97.73,17.53,97.73,17.53"/>
<path class="st0" d="M99.76,18.23l-0.64-0.02c0,0-0.22,0.01-0.33,0.15l-0.49,0.49l0.21,0.01l0.22-0.17c0,0,0.13-0.05,0.31-0.01
	c0.18,0.04,0.23,0.08,0.37-0.01C99.62,18.54,99.76,18.23,99.76,18.23"/>
<path class="st0" d="M100.41,20.1c0,0-0.01-0.53,0.82-0.43c1.14,0.13,1.36,0.11,1.67-0.65c0,0,0.11,1.06-0.8,1.03
	C101.19,20.02,100.94,19.8,100.41,20.1"/>
<path class="st0" d="M100.56,19.19c0,0-0.61,0.24-0.53,0.68c0.08,0.45,0.37,0.5,0.63,0.54c0.26,0.04,1.1,0.04,0.62,0.76
	c0,0,0.01-0.34-0.43-0.39c-0.44-0.04-1.06-0.14-1.12-0.67C99.62,19.25,100.56,19.19,100.56,19.19"/>
<path class="st0" d="M98.82,19.33c0,0,0.39,0.31-0.1,0.89c-0.35,0.43-0.51,0.54-0.37,1.01c0,0-0.43-0.38-0.15-0.76
	C98.55,19.98,98.77,20,98.82,19.33"/>
<path class="st0" d="M97.34,18.29c-0.02-0.05-0.13-0.11-0.26,0c-0.13,0.11-0.15,0.21-0.16,0.34c-0.01,0.13,0.1,0.24,0.22,0.28
	c0.12,0.04,0.21,0.03,0.23-0.03l-0.05-0.16l-0.12-0.13l0.1-0.15L97.34,18.29"/>
<path class="st0" d="M96.8,16.8c0,0-0.06,0.68,0.26,1c0,0-0.44,0.33-0.45,0.73c-0.01,0.58,0.61,0.69,0.61,0.69l-0.33,1.01
	c0,0-0.35,0.97,0.12,1.37c0.48,0.4,1.06,0.31,1.06,0.31s-1.17,0.81-1.64,1.94c0,0-0.28-0.41,0.14-1.41c0,0-0.45-0.07-0.35-0.69
	l-0.66,0.14c0,0,0.7-0.67,0.77-2.26c0,0-0.55-0.17-0.48-0.87c0.07-0.7,0.67-1,0.67-1S96.28,17.36,96.8,16.8"/>
<path class="st0" d="M97.61,22.82c0,0,0.83-1.28,2.79-1.17l0.01,0.57c0,0-1.42-0.13-2.5,1.13L97.61,22.82z"/>
<path class="st0" d="M122.14,28.43v-6.17c-1.59,1.45-4.11-0.24-4.11-0.24c-1.05-0.61-2.26-0.96-3.56-0.96h0
	c-1.3,0-2.52,0.35-3.56,0.96c0,0-2.52,1.69-4.11,0.24v6.17h7.67H122.14z M117.59,24.96c0,1.72-1.4,3.12-3.12,3.12
	c-1.72,0-3.12-1.4-3.12-3.12c0-1.72,1.4-3.12,3.12-3.12C116.2,21.84,117.59,23.23,117.59,24.96 M115.75,25.46l1.8-0.51l-1.8-0.51
	l0.91-1.64l-1.64,0.91l-0.51-1.8L114,23.7l-1.64-0.91l0.91,1.64l-1.8,0.51l1.8,0.51l-0.91,1.64l1.64-0.91l0.51,1.8l0.51-1.8
	l1.64,0.91L115.75,25.46z M114.47,21.06L114.47,21.06h-0.05H114.47z M114.47,21.06L114.47,21.06h0.05H114.47z"/>
<path class="st0" d="M114.47,41.43c0,0,6.21-3.08,7.41-9.21c-0.62,7.08-7.41,10.24-7.41,10.24s-6.79-3.16-7.41-10.24
	C108.27,38.35,114.47,41.43,114.47,41.43"/>
<path class="st0" d="M121.15,33.46v0.42h-0.29c0,0-0.06,1.16-0.75,1.16h-2.26c0,0-0.81-0.04-0.81-1.31l-0.57-0.57l0.75,0.5h0.49
	v-0.54l0.12-0.06v0.62h0.19c0,0-0.04,0.4,0.4,0.4h0.66v-0.9l0.14-0.1v0.98h0.28v-0.2h0.28v-0.24h0.31v-0.16h0.39v-0.6l0.14-0.13
	v0.74H121.15z"/>
<path class="st0" d="M119.62,31.82l-1.14,0.29c0,0-0.51,0.52,0.04,1.44c0,0,0.16-0.55,0.99-0.67
	C119.51,32.87,119.37,32.25,119.62,31.82"/>
<path class="st0" d="M121.03,31.47l-1.14,0.29c0,0-0.51,0.52,0.04,1.44c0,0,0.16-0.55,0.99-0.67
	C120.91,32.53,120.78,31.9,121.03,31.47"/>
<path class="st0" d="M118.23,32.18l-1.01,0.24c0,0-0.4,0.34,0.01,1.05c0,0,0.06-0.45,0.89-0.56
	C118.11,32.91,117.98,32.61,118.23,32.18"/>
<path class="st0" d="M118.23,30.96l-1.01,0.24c0,0-0.4,0.34,0.01,1.05c0,0,0.06-0.45,0.89-0.56
	C118.11,31.68,117.98,31.39,118.23,30.96"/>
<path class="st0" d="M119.64,30.61l-1.01,0.24c0,0-0.4,0.34,0.01,1.05c0,0,0.06-0.45,0.89-0.56
	C119.52,31.34,119.39,31.04,119.64,30.61"/>
<polygon class="st0" points="119.89,31.26 120.49,31.39 120.49,31.02 "/>
<polygon class="st0" points="118.57,30.3 119.17,30.43 119.17,30.06 "/>
<polygon class="st0" points="117.18,30.66 117.77,30.8 117.77,30.43 "/>
<polygon class="st0" points="113.68,28.95 115.27,28.95 115.27,33.36 116.19,33.36 116.19,35.03 115.27,35.03 115.27,39.98 
	114.47,40.72 113.68,39.98 113.68,35.03 112.7,35.03 112.7,33.36 113.68,33.36 "/>
<path class="st0" d="M112.52,32.27v-0.88h-0.56v0.44h-0.47V31.4h-0.45v-0.24l0.53-0.33v-1.01h-0.55v0.44h-0.37v-0.42h-0.34h-0.33
	v0.42h-0.37v-0.44h-0.55v1.01l0.53,0.33v0.24h-0.45v0.42h-0.47v-0.44h-0.56v0.88l0.42,0.48v2.28h1.5v-0.77c0,0-0.04-0.36,0.28-0.46
	c0.32,0.09,0.28,0.46,0.28,0.46v0.77h1.5v-2.28L112.52,32.27z M110.63,33.15h-0.31h-0.31v-0.73c0-0.34,0.31-0.43,0.31-0.43
	s0.31,0.09,0.31,0.43V33.15z"/>
<path class="st0" d="M115.9,4.67c0.22,0.33,0.18,0.7,0.17,0.73l-0.02,0.17l-0.17-0.02c-0.77-0.1-1.08-0.6-1.19-0.87h-0.48
	c-0.11,0.27-0.42,0.77-1.19,0.87l-0.17,0.02l-0.02-0.17c0-0.02-0.05-0.39,0.17-0.73h-1.31c0.32,1.1,1.26,1.91,2.41,2.05v5.06h0.15
	h0.39h0.09V6.73l0.06-0.01c1.15-0.14,2.1-0.95,2.41-2.05H115.9z"/>
<path class="st0" d="M6.56,58.87V44.22h2.67c4.15,0,6.52,1.66,6.52,7.44c0,5.55-2.4,7.22-6.87,7.22H6.56z M9.49,64.43
	c7.57,0,13.08-3.63,13.08-13.16c0-9.05-5.51-12.6-12.6-12.6H0v25.76H9.49z M24.26,41.18c0,2.09,1.55,3.17,3.4,3.17
	c2.01,0,3.52-1.08,3.52-3.17c0-2.17-1.51-3.21-3.52-3.21C25.81,37.96,24.26,39.01,24.26,41.18 M24.8,64.43h5.73V46.55H24.8V64.43z
	 M46.08,46.17c-4.95-0.31-6.58,2.24-7.35,5.34l-0.7-4.95h-4.99v17.87h5.73v-7.89c0-3.71,2.59-4.41,4.45-4.41
	c0.89,0,1.43,0.12,2.17,0.35L46.08,46.17z M55.02,60.48c-2.17,0-3.33-1.55-3.4-4.02h10.83c0.15-0.81,0.23-1.59,0.23-2.32
	c0-4.64-2.51-8.01-7.7-8.01c-5.53,0-8.9,3.48-8.9,9.67c0,5.73,3.64,9.09,8.86,9.09c3.52,0,6.81-1.32,7.81-4.91l-4.87-1.74
	C57.3,60.06,56.22,60.48,55.02,60.48 M51.77,53.44c0.15-1.74,1.28-3.1,3.02-3.1c1.66,0,2.44,1.08,2.44,2.55c0,0.19,0,0.35-0.04,0.54
	H51.77z M75.4,57.85c-0.43,2.01-1.35,2.63-2.59,2.63c-2.13,0-3.33-1.78-3.33-5.03c0-3.02,1.16-4.84,3.29-4.84
	c1.66,0,2.44,1.08,2.67,2.9l4.8-1.43c-0.27-3.56-3.09-5.96-7.47-5.96c-5.34,0-8.86,3.48-8.86,9.44c0,5.92,3.52,9.32,8.86,9.32
	c3.91,0,7.04-1.78,7.74-5.38L75.4,57.85z M94.71,58.86c-1.04,0.74-2.05,1.16-3.17,1.16c-1.39,0-2.13-0.58-2.13-2.44v-6.62h5.34
	v-4.41h-5.3v-4.45l-5.73,0.66v3.79h-2.63v4.41h2.59v7.93c0,4.33,2.48,6,6.11,6c2.32,0,4.26-0.39,5.88-1.2L94.71,58.86z
	 M104.69,64.89c5.3,0,8.82-3.4,8.82-9.44c0-6.07-3.52-9.32-8.82-9.32c-5.3,0-8.82,3.25-8.82,9.32
	C95.87,61.49,99.39,64.89,104.69,64.89 M104.69,50.69c2.13,0,3.17,1.55,3.17,4.8c0,3.44-1.01,4.95-3.17,4.95
	c-2.17,0-3.17-1.51-3.17-4.95C101.52,52.24,102.57,50.69,104.69,50.69 M128.22,46.17c-4.95-0.31-6.58,2.24-7.35,5.34l-0.7-4.95
	h-4.99v17.87h5.73v-7.89c0-3.71,2.59-4.41,4.45-4.41c0.89,0,1.43,0.12,2.17,0.35L128.22,46.17z M128.22,60.25
	c0.74,3.4,3.41,4.64,7.93,4.64c4.49,0,7.85-1.59,7.85-5.65c0-2.98-1.62-5.11-5.42-5.88l-2.55-0.5c-0.97-0.19-1.51-0.58-1.51-1.35
	c0-0.74,0.7-1.16,1.62-1.16c1.28,0,2.01,0.35,2.21,1.66l5.34-0.77c-0.23-3.52-2.86-5.11-7.27-5.11c-3.79,0-7.51,1.28-7.51,5.92
	c0,2.79,1.51,4.57,4.6,5.38l2.63,0.62c1.43,0.35,2.13,0.7,2.13,1.59c0,0.81-0.85,1.24-2.09,1.24c-1.55,0-2.9-0.7-3.33-2.59
	L128.22,60.25z"/>
<path class="st0" d="M33.12,44.08h1.34v-6.5h-1.34V44.08z M36.83,38.98h-1.1v5.1h1.31v-2.85c0-0.97,0.5-1.26,1.03-1.26
	c0.55,0,0.75,0.37,0.75,0.95v3.16h1.31v-3.62c0-1.14-0.71-1.6-1.51-1.6c-0.78,0-1.36,0.34-1.63,1.1L36.83,38.98z M40.7,42.91
	c0.18,0.95,0.89,1.3,2.12,1.3c1.2,0,2.11-0.43,2.11-1.56c0-0.87-0.49-1.38-1.48-1.6l-0.72-0.16c-0.41-0.08-0.56-0.25-0.56-0.54
	c0-0.32,0.27-0.51,0.69-0.51c0.47,0,0.73,0.17,0.77,0.61l1.25-0.18c-0.09-0.99-0.79-1.41-1.95-1.41c-1.03,0-2.03,0.38-2.03,1.61
	c0,0.77,0.4,1.27,1.3,1.49l0.75,0.18c0.5,0.13,0.7,0.3,0.7,0.63c0,0.35-0.33,0.52-0.81,0.52c-0.52,0-0.93-0.22-1.03-0.78L40.7,42.91
	z M48.64,42.79c-0.3,0.2-0.56,0.3-0.88,0.3c-0.41,0-0.64-0.19-0.64-0.74v-2.34h1.52v-1.03h-1.51v-1.24l-1.31,0.15v1.08h-0.75v1.03
	h0.74v2.63c0,1.1,0.63,1.58,1.61,1.58c0.56,0,1.06-0.11,1.46-0.32L48.64,42.79z M49.27,37.4c0,0.49,0.38,0.77,0.82,0.77
	c0.48,0,0.85-0.29,0.85-0.77c0-0.51-0.37-0.8-0.85-0.8C49.64,36.61,49.27,36.89,49.27,37.4 M49.43,44.08h1.31v-5.1h-1.31V44.08z
	 M54.83,42.79c-0.3,0.2-0.56,0.3-0.88,0.3c-0.41,0-0.64-0.19-0.64-0.74v-2.34h1.52v-1.03h-1.51v-1.24L52,37.9v1.08h-0.75v1.03h0.74
	v2.63c0,1.1,0.63,1.58,1.61,1.58c0.56,0,1.06-0.11,1.46-0.32L54.83,42.79z M58.8,44.08h1.14v-5.1h-1.31v2.83
	c0,0.98-0.49,1.41-1,1.41c-0.55,0-0.77-0.34-0.77-0.99v-3.25h-1.31v3.58c0,1.19,0.63,1.66,1.53,1.66c0.89,0,1.38-0.36,1.58-1.07
	L58.8,44.08z M64.03,42.79c-0.3,0.2-0.56,0.3-0.88,0.3c-0.41,0-0.64-0.19-0.64-0.74v-2.34h1.52v-1.03h-1.51v-1.24L61.2,37.9v1.08
	h-0.75v1.03h0.74v2.63c0,1.1,0.63,1.58,1.61,1.58c0.56,0,1.06-0.11,1.46-0.32L64.03,42.79z M66.87,43.2c-0.74,0-1.14-0.57-1.17-1.42
	h3.19c0.05-0.2,0.08-0.44,0.08-0.69c0-1.29-0.71-2.23-2.11-2.23c-1.49,0-2.43,0.99-2.43,2.74c0,1.67,0.97,2.62,2.39,2.62
	c0.99,0,1.9-0.36,2.14-1.39l-1.13-0.36C67.67,43.02,67.33,43.2,66.87,43.2 M65.74,40.99c0.08-0.7,0.46-1.14,1.07-1.14
	c0.58,0,0.91,0.41,0.91,0.95l-0.01,0.19H65.74z M73.21,44.21c1.46,0,2.42-0.97,2.42-2.7c0-1.73-0.96-2.65-2.42-2.65
	c-1.46,0-2.42,0.92-2.42,2.65C70.79,43.24,71.75,44.21,73.21,44.21 M73.21,39.92c0.75,0,1.13,0.51,1.13,1.6
	c0,1.13-0.36,1.67-1.13,1.67c-0.75,0-1.11-0.54-1.11-1.67C72.1,40.42,72.47,39.92,73.21,39.92 M76.58,40.01v4.07h1.31v-4.07h1.3
	v-1.03h-1.3v-0.4c0-0.65,0.3-0.85,0.75-0.85c0.34,0,0.6,0.08,0.85,0.22l0.21-1.1c-0.34-0.14-0.72-0.23-1.18-0.23
	c-1.05,0-1.94,0.5-1.94,1.92v0.44h-0.75v1.03H76.58z"/>
</svg>
