<?xml version="1.0" encoding="utf-8"?>
<!-- Generator: Adobe Illustrator 23.0.3, SVG Export Plug-In . SVG Version: 6.00 Build 0)  -->
<svg version="1.1" id="Layer_1" xmlns="http://www.w3.org/2000/svg" xmlns:xlink="http://www.w3.org/1999/xlink" x="0px" y="0px"
	 viewBox="0 0 460 267.5" style="enable-background:new 0 0 460 267.5;" xml:space="preserve">
<style type="text/css">
	.st0{fill:#E6ECEE;}
	.st1{fill:#084E8A;}
	.st2{font-family:'UntitledSerif-Medium';}
	.st3{font-size:10.05px;}
	.st4{fill:#231F20;}
	.st5{font-family:'UntitledSans-Light';}
	.st6{font-size:8px;}
	.st7{fill:none;stroke:#231F20;stroke-width:0.322;}
	.st8{fill:#98A0C2;}
	.st9{font-size:13px;}
	.st10{font-family:'UntitledSans-Medium';}
</style>
<polygon class="st0" points="43.4,-0.2 44.6,1 0,44.9 0,267.8 460,267.8 460,-0.2 "/>
<text transform="matrix(1 0 0 1 24.0986 183.205)"><tspan x="0" y="0" class="st1 st2 st3">N</tspan><tspan x="7.1" y="0" class="st1 st2 st3">e</tspan><tspan x="12" y="0" class="st1 st2 st3">w Cha</tspan><tspan x="39" y="0" class="st1 st2 st3">r</tspan><tspan x="43.4" y="0" class="st1 st2 st3">te</tspan><tspan x="52.2" y="0" class="st1 st2 st3">r</tspan><tspan x="56.6" y="0" class="st1 st2 st3">ed </tspan></text>
<text transform="matrix(1 0 0 1 91.4058 183.205)" class="st1 st2 st3"> </text>
<text transform="matrix(1 0 0 1 49.3218 194.9131)"><tspan x="0" y="0" class="st1 st2 st3">Mem</tspan><tspan x="22.5" y="0" class="st1 st2 st3">b</tspan><tspan x="28.2" y="0" class="st1 st2 st3">ers </tspan></text>
<text transform="matrix(1 0 0 1 91.4058 194.9131)" class="st1 st2 st3"> </text>
<text transform="matrix(1 0 0 1 35.9346 206.6211)"><tspan x="0" y="0" class="st1 st2 st3">(2</tspan><tspan x="9.2" y="0" class="st1 st2 st3">0</tspan><tspan x="15.4" y="0" class="st1 st2 st3">1</tspan><tspan x="20" y="0" class="st1 st2 st3">6</tspan><tspan x="25.9" y="0" class="st1 st2 st3">-</tspan><tspan x="29.7" y="0" class="st1 st2 st3">2</tspan><tspan x="34.9" y="0" class="st1 st2 st3">0</tspan><tspan x="41.1" y="0" class="st1 st2 st3">18)</tspan></text>
<text transform="matrix(1 0 0 1 101.2715 54.3476)" class="st4 st5 st6">200</text>
<text transform="matrix(1 0 0 1 103.5356 90.9004)" class="st4 st5 st6">150</text>
<text transform="matrix(1 0 0 1 102.5757 130.4443)" class="st4 st5 st6">100</text>
<text transform="matrix(1 0 0 1 106.2715 166.0996)" class="st4 st5 st6">50</text>
<text transform="matrix(1 0 0 1 111.0479 205.4521)" class="st4 st5 st6">0</text>
<line class="st7" x1="128.1" y1="204.5" x2="418.1" y2="204.5"/>
<line class="st7" x1="128.1" y1="166.6" x2="418.1" y2="166.6"/>
<line class="st7" x1="128.1" y1="90.7" x2="418.1" y2="90.7"/>
<line class="st7" x1="128.1" y1="52.4" x2="418.1" y2="52.4"/>
<line class="st7" x1="128.1" y1="128.6" x2="418.1" y2="128.6"/>
<rect x="128.1" y="161.3" class="st8" width="81.7" height="43.2"/>
<rect x="233" y="112.3" class="st8" width="81.7" height="92.2"/>
<text transform="matrix(1 0 0 1 153.7871 225.3545)" class="st4 st5 st9">2016</text>
<text transform="matrix(1 0 0 1 160.1182 144.3261)" class="st4 st10 st9">57</text>
<text transform="matrix(1 0 0 1 260.6475 225.3545)" class="st4 st5 st9">2017</text>
<text transform="matrix(1 0 0 1 265.2622 84.8252)"><tspan x="0" y="0" class="st4 st10 st9">1</tspan><tspan x="5.3" y="0" class="st4 st10 st9">2</tspan><tspan x="13.1" y="0" class="st4 st10 st9">1</tspan></text>
<text transform="matrix(1 0 0 1 366.6494 225.3545)" class="st4 st5 st9">2018</text>
<text transform="matrix(1 0 0 1 370.5488 47.4756)"><tspan x="0" y="0" class="st4 st10 st9">1</tspan><tspan x="5.3" y="0" class="st4 st10 st9">7</tspan><tspan x="12.7" y="0" class="st4 st10 st9">3</tspan></text>
<rect x="336.2" y="72.6" class="st1" width="82.4" height="131.9"/>
</svg>
