<?xml version="1.0" encoding="utf-8"?>
<!-- Generator: Adobe Illustrator 23.0.3, SVG Export Plug-In . SVG Version: 6.00 Build 0)  -->
<svg version="1.1" id="Layer_1" xmlns="http://www.w3.org/2000/svg" xmlns:xlink="http://www.w3.org/1999/xlink" x="0px" y="0px"
	 viewBox="0 0 460 267.5" style="enable-background:new 0 0 460 267.5;" xml:space="preserve">
<style type="text/css">
	.st0{fill:#F0F4F5;}
	.st1{fill:#E0E1EB;}
	.st2{fill:none;stroke:#084E8A;stroke-width:0.503;stroke-miterlimit:10;}
	.st3{fill:none;stroke:#084E8A;stroke-width:1.005;stroke-miterlimit:10;}
	.st4{fill:#084E8A;}
	.st5{fill:#231F20;}
</style>
<polygon class="st0" points="0,0 0,226.9 40.9,267.5 460,267.5 460,0 "/>
<path class="st1" d="M370,37.3h52v46.3h-52V37.3z M285,37.3h85v46.3h-85V37.3z M217,37.3h68v46.3h-68V37.3z M121,37.3h96v46.3h-96
	V37.3z M30,37.3h91v46.3H30V37.3z"/>
<line class="st2" x1="30" y1="129.9" x2="121" y2="129.9"/>
<line class="st2" x1="121" y1="129.9" x2="217" y2="129.9"/>
<line class="st2" x1="217" y1="129.9" x2="285" y2="129.9"/>
<line class="st2" x1="285" y1="129.9" x2="370" y2="129.9"/>
<line class="st2" x1="370" y1="129.9" x2="422" y2="129.9"/>
<line class="st2" x1="30" y1="176.3" x2="121" y2="176.3"/>
<line class="st2" x1="121" y1="176.3" x2="217" y2="176.3"/>
<line class="st2" x1="217" y1="176.3" x2="285" y2="176.3"/>
<line class="st2" x1="285" y1="176.3" x2="370" y2="176.3"/>
<line class="st2" x1="370" y1="176.3" x2="422" y2="176.3"/>
<line class="st3" x1="30" y1="222.6" x2="121" y2="222.6"/>
<line class="st3" x1="121" y1="222.6" x2="217" y2="222.6"/>
<line class="st3" x1="217" y1="222.6" x2="285" y2="222.6"/>
<line class="st3" x1="285" y1="222.6" x2="370" y2="222.6"/>
<line class="st3" x1="370" y1="222.6" x2="422" y2="222.6"/>
<g>
	<path class="st4" d="M49.6,53.3c0,2.6-1.7,4.3-4.3,4.3H42V49h3.3C47.8,49,49.6,50.7,49.6,53.3z M43.5,50.3v6h1.7
		c1.7,0,2.7-1.1,2.7-3c0-1.9-0.9-3-2.7-3H43.5z"/>
	<path class="st4" d="M54.6,56.6c-0.3,0.7-1.1,1.1-2,1.1c-1.2,0-2.1-0.7-2.1-1.8c0-1.2,1-1.7,2.2-1.9l1.8-0.2v-0.3
		c0-0.7-0.5-1.1-1.2-1.1c-0.7,0-1.1,0.4-1.1,0.9h-1.5c0.1-1.3,1.2-2.1,2.7-2.1c1.7,0,2.6,0.8,2.6,2.4v2.4c0,0.6,0,1,0.1,1.5h-1.5
		C54.6,57.3,54.6,56.9,54.6,56.6z M54.6,55.2v-0.4L53.2,55c-0.6,0.1-1.1,0.2-1.1,0.9c0,0.5,0.3,0.8,0.9,0.8
		C53.8,56.7,54.6,56.2,54.6,55.2z"/>
	<path class="st4" d="M61.1,57.5c-0.5,0.1-0.8,0.2-1.2,0.2c-1.3,0-1.9-0.5-1.9-1.8v-3.3h-0.8v-1.1H58V50h1.5v1.5H61v1.1h-1.5v3.1
		c0,0.6,0.3,0.8,0.8,0.8c0.2,0,0.5,0,0.8-0.1V57.5z"/>
	<path class="st4" d="M65.1,57.7c-1.8,0-3.1-1.2-3.1-3.2s1.3-3.2,3-3.2c1.9,0,2.8,1.5,2.8,3.1v0.5h-4.4c0.1,1.1,0.6,1.7,1.6,1.7
		c0.7,0,1.1-0.3,1.3-0.9h1.4C67.6,57,66.5,57.7,65.1,57.7z M63.6,53.9h2.9c0-0.8-0.4-1.4-1.4-1.4C64.3,52.5,63.8,53,63.6,53.9z"/>
	<path class="st4" d="M74.5,57.7c-1.8,0-3.1-1.2-3.1-3.2c0-2,1.3-3.2,3.1-3.2c1.8,0,3.1,1.2,3.1,3.2C77.6,56.5,76.3,57.7,74.5,57.7z
		 M74.5,56.6c1,0,1.5-0.8,1.5-2.1c0-1.3-0.6-2.1-1.5-2.1c-1,0-1.5,0.8-1.5,2.1C73,55.8,73.6,56.6,74.5,56.6z"/>
	<path class="st4" d="M78.4,52.6v-1.1h0.8v-0.9c0-1.3,0.8-1.9,2-1.9c0.3,0,0.6,0,0.9,0.1V50c-0.2,0-0.4,0-0.6,0
		c-0.4,0-0.8,0.2-0.8,0.8v0.8H82v1.1h-1.2v5h-1.5v-5H78.4z"/>
</g>
<g>
	<path class="st4" d="M47.8,71L47.8,71l1.3-4.5h1.5l-1.9,6.1h-1.6l-1.2-4.4h0l-1.2,4.4h-1.6l-1.9-6.1h1.5L44,71h0l1.2-4.5h1.4
		L47.8,71z"/>
	<path class="st4" d="M54.2,72.7c-1.8,0-3.1-1.2-3.1-3.2s1.3-3.2,3-3.2c1.9,0,2.8,1.5,2.8,3.1v0.5h-4.4c0.1,1.1,0.6,1.7,1.6,1.7
		c0.7,0,1.1-0.3,1.3-0.9H57C56.7,72,55.6,72.7,54.2,72.7z M52.7,68.9h2.9c0-0.8-0.4-1.4-1.4-1.4C53.4,67.5,52.9,68,52.7,68.9z"/>
	<path class="st4" d="M60,72.6h-1.5v-8.8H60v3.7c0.3-0.6,1-1.1,1.9-1.1c1.6,0,2.7,1.3,2.7,3.2c0,1.9-1.1,3.2-2.7,3.2
		c-0.9,0-1.7-0.5-2-1.1V72.6z M60,69.7c0,1.2,0.6,2,1.5,2c1,0,1.6-0.8,1.6-2.1c0-1.2-0.6-2.1-1.6-2.1c-1,0-1.5,0.8-1.5,2V69.7z"/>
	<path class="st4" d="M68.7,66.4c1.5,0,2.5,0.9,2.7,2.2h-1.5c-0.1-0.7-0.5-1.1-1.2-1.1c-1,0-1.5,0.8-1.5,2c0,1.2,0.5,2,1.5,2
		c0.7,0,1.1-0.4,1.2-1.1h1.5c-0.2,1.4-1.1,2.2-2.7,2.2c-1.8,0-3.1-1.2-3.1-3.2C65.7,67.6,67,66.4,68.7,66.4z"/>
	<path class="st4" d="M76.4,71.6c-0.3,0.7-1.1,1.1-2,1.1c-1.2,0-2.1-0.7-2.1-1.8c0-1.2,1-1.7,2.2-1.9l1.8-0.2v-0.3
		c0-0.7-0.5-1.1-1.2-1.1c-0.7,0-1.1,0.4-1.1,0.9h-1.5c0.1-1.3,1.2-2.1,2.7-2.1c1.7,0,2.6,0.8,2.6,2.4v2.4c0,0.6,0,1,0.1,1.5h-1.5
		C76.4,72.3,76.4,71.9,76.4,71.6z M76.4,70.2v-0.4L75,70c-0.6,0.1-1.1,0.2-1.1,0.9c0,0.5,0.3,0.8,0.9,0.8
		C75.6,71.7,76.4,71.2,76.4,70.2z"/>
	<path class="st4" d="M80.6,70.7c0.1,0.6,0.7,0.9,1.4,0.9c0.6,0,1.2-0.3,1.2-0.8c0-0.4-0.3-0.6-0.9-0.7L81.2,70
		c-1-0.2-1.8-0.6-1.8-1.7c0-1.2,1.1-1.9,2.5-1.9c1.6,0,2.5,0.7,2.6,1.9h-1.4c-0.1-0.5-0.5-0.8-1.2-0.8c-0.6,0-1.1,0.3-1.1,0.7
		c0,0.4,0.3,0.6,0.9,0.7l1.2,0.2c1.1,0.2,1.7,0.8,1.7,1.8c0,1.2-1.1,1.9-2.6,1.9c-1.6,0-2.7-0.7-2.9-2H80.6z"/>
	<path class="st4" d="M89.3,72.5c-0.5,0.1-0.8,0.2-1.2,0.2c-1.3,0-1.9-0.5-1.9-1.8v-3.3h-0.8v-1.1h0.8V65h1.5v1.5h1.5v1.1h-1.5v3.1
		c0,0.6,0.3,0.8,0.8,0.8c0.2,0,0.5,0,0.8-0.1V72.5z"/>
</g>
<g>
	<path class="st4" d="M135.5,50.3h-3.1V49h7.7v1.3h-3.1v7.3h-1.6V50.3z"/>
	<path class="st4" d="M143.1,57.7c-1.8,0-3.1-1.2-3.1-3.2c0-2,1.3-3.2,3.1-3.2c1.8,0,3.1,1.2,3.1,3.2
		C146.2,56.5,144.9,57.7,143.1,57.7z M143.1,56.6c1,0,1.5-0.8,1.5-2.1c0-1.3-0.6-2.1-1.5-2.1c-1,0-1.5,0.8-1.5,2.1
		C141.5,55.8,142.1,56.6,143.1,56.6z"/>
	<path class="st4" d="M149.2,59.7h-1.5v-8.2h1.5v1c0.3-0.6,1-1.2,2-1.2c1.6,0,2.7,1.3,2.7,3.2c0,1.9-1.1,3.2-2.7,3.2
		c-0.9,0-1.6-0.5-1.9-1.1V59.7z M149.1,54.7c0,1.2,0.6,2,1.5,2c1,0,1.6-0.8,1.6-2.1c0-1.2-0.6-2.1-1.6-2.1c-1,0-1.5,0.8-1.5,2V54.7z
		"/>
	<path class="st4" d="M155.2,49h1.6v1.5h-1.6V49z M155.2,51.5h1.5v6.1h-1.5V51.5z"/>
	<path class="st4" d="M161.3,51.4c1.5,0,2.5,0.9,2.7,2.2h-1.5c-0.1-0.7-0.5-1.1-1.2-1.1c-1,0-1.5,0.8-1.5,2c0,1.2,0.5,2,1.5,2
		c0.7,0,1.1-0.4,1.2-1.1h1.5c-0.2,1.4-1.1,2.2-2.7,2.2c-1.8,0-3.1-1.2-3.1-3.2C158.2,52.6,159.5,51.4,161.3,51.4z"/>
</g>
<g>
	<path class="st4" d="M250.4,49h1.6v7.3h4.4v1.3h-6V49z"/>
	<path class="st4" d="M257.9,49h1.6v1.5h-1.6V49z M257.9,51.5h1.5v6.1h-1.5V51.5z"/>
	<path class="st4" d="M260.6,51.5h1.5l1.7,4.6h0l1.7-4.6h1.5l-2.3,6.1H263L260.6,51.5z"/>
	<path class="st4" d="M270.7,57.7c-1.8,0-3.1-1.2-3.1-3.2s1.3-3.2,3-3.2c1.9,0,2.8,1.5,2.8,3.1v0.5h-4.4c0.1,1.1,0.6,1.7,1.6,1.7
		c0.7,0,1.1-0.3,1.3-0.9h1.4C273.2,57,272.1,57.7,270.7,57.7z M269.2,53.9h2.9c0-0.8-0.4-1.4-1.4-1.4
		C269.9,52.5,269.3,53,269.2,53.9z"/>
</g>
<g>
	<path class="st4" d="M229.1,66.5h1.5l1.7,4.6h0l1.7-4.6h1.5l-2.3,6.1h-1.7L229.1,66.5z"/>
	<path class="st4" d="M236.7,64h1.6v1.5h-1.6V64z M236.7,66.5h1.5v6.1h-1.5V66.5z"/>
	<path class="st4" d="M242.8,72.7c-1.8,0-3.1-1.2-3.1-3.2s1.3-3.2,3-3.2c1.9,0,2.8,1.5,2.8,3.1v0.5h-4.4c0.1,1.1,0.6,1.7,1.6,1.7
		c0.7,0,1.1-0.3,1.3-0.9h1.4C245.3,72,244.2,72.7,242.8,72.7z M241.3,68.9h2.9c0-0.8-0.4-1.4-1.4-1.4C242,67.5,241.4,68,241.3,68.9z
		"/>
	<path class="st4" d="M252.8,71L252.8,71l1.3-4.5h1.5l-1.9,6.1h-1.6l-1.2-4.4h0l-1.2,4.4h-1.6l-1.9-6.1h1.5L249,71h0l1.2-4.5h1.4
		L252.8,71z"/>
	<path class="st4" d="M259.3,72.7c-1.8,0-3.1-1.2-3.1-3.2s1.3-3.2,3-3.2c1.9,0,2.8,1.5,2.8,3.1v0.5h-4.4c0.1,1.1,0.6,1.7,1.6,1.7
		c0.7,0,1.1-0.3,1.3-0.9h1.4C261.8,72,260.7,72.7,259.3,72.7z M257.7,68.9h2.9c0-0.8-0.4-1.4-1.4-1.4
		C258.4,67.5,257.9,68,257.7,68.9z"/>
	<path class="st4" d="M267.4,67.9c-0.2,0-0.4,0-0.6,0c-0.9,0-1.7,0.6-1.7,2v2.8h-1.5v-6.1h1.5v1.4c0.3-0.9,1-1.5,1.9-1.5
		c0.2,0,0.3,0,0.5,0V67.9z"/>
	<path class="st4" d="M269.5,70.7c0.1,0.6,0.7,0.9,1.4,0.9c0.6,0,1.2-0.3,1.2-0.8c0-0.4-0.3-0.6-0.9-0.7L270,70
		c-1-0.2-1.8-0.6-1.8-1.7c0-1.2,1.1-1.9,2.5-1.9c1.6,0,2.5,0.7,2.6,1.9h-1.4c-0.1-0.5-0.5-0.8-1.2-0.8c-0.6,0-1.1,0.3-1.1,0.7
		c0,0.4,0.3,0.6,0.9,0.7l1.2,0.2c1.1,0.2,1.7,0.8,1.7,1.8c0,1.2-1.1,1.9-2.6,1.9c-1.6,0-2.7-0.7-2.9-2H269.5z"/>
</g>
<g>
	<path class="st4" d="M303.6,57.6V49h3.7c2,0,3.2,0.9,3.2,2.7c0,1.3-0.9,2.1-1.8,2.4l2.1,3.4H309l-2-3.2h-1.9v3.2H303.6z
		 M307.1,53.1c1.2,0,1.8-0.5,1.8-1.4s-0.6-1.4-1.8-1.4h-1.9v2.9H307.1z"/>
	<path class="st4" d="M314.7,57.7c-1.8,0-3.1-1.2-3.1-3.2s1.3-3.2,3-3.2c1.9,0,2.8,1.5,2.8,3.1v0.5h-4.4c0.1,1.1,0.6,1.7,1.6,1.7
		c0.7,0,1.1-0.3,1.3-0.9h1.4C317.2,57,316.1,57.7,314.7,57.7z M313.2,53.9h2.9c0-0.8-0.4-1.4-1.4-1.4
		C313.9,52.5,313.4,53,313.2,53.9z"/>
	<path class="st4" d="M321.6,51.4c1.5,0,2.5,0.9,2.7,2.2h-1.5c-0.1-0.7-0.5-1.1-1.2-1.1c-1,0-1.5,0.8-1.5,2c0,1.2,0.5,2,1.5,2
		c0.7,0,1.1-0.4,1.2-1.1h1.5c-0.2,1.4-1.1,2.2-2.7,2.2c-1.8,0-3.1-1.2-3.1-3.2C318.6,52.6,319.8,51.4,321.6,51.4z"/>
	<path class="st4" d="M328.3,57.7c-1.8,0-3.1-1.2-3.1-3.2c0-2,1.3-3.2,3.1-3.2c1.8,0,3.1,1.2,3.1,3.2
		C331.4,56.5,330.1,57.7,328.3,57.7z M328.3,56.6c1,0,1.5-0.8,1.5-2.1c0-1.3-0.6-2.1-1.5-2.1c-1,0-1.5,0.8-1.5,2.1
		C326.8,55.8,327.3,56.6,328.3,56.6z"/>
	<path class="st4" d="M336.7,52.9c-0.2,0-0.4,0-0.6,0c-0.9,0-1.7,0.6-1.7,2v2.8h-1.5v-6.1h1.5v1.4c0.3-0.9,1-1.5,1.9-1.5
		c0.2,0,0.3,0,0.5,0V52.9z"/>
	<path class="st4" d="M342,56.6c-0.3,0.6-1,1.1-2,1.1c-1.6,0-2.7-1.3-2.7-3.2c0-1.9,1.1-3.2,2.7-3.2c0.9,0,1.6,0.5,1.9,1.1v-3.7h1.5
		v8.8H342V56.6z M342,54.4c0-1.2-0.6-2-1.5-2c-1,0-1.6,0.8-1.6,2.1c0,1.3,0.6,2.1,1.6,2.1c1,0,1.5-0.8,1.5-2V54.4z"/>
	<path class="st4" d="M348,57.7c-1.8,0-3.1-1.2-3.1-3.2s1.3-3.2,3-3.2c1.9,0,2.8,1.5,2.8,3.1v0.5h-4.4c0.1,1.1,0.6,1.7,1.6,1.7
		c0.7,0,1.1-0.3,1.3-0.9h1.4C350.5,57,349.4,57.7,348,57.7z M346.5,53.9h2.9c0-0.8-0.4-1.4-1.4-1.4C347.2,52.5,346.7,53,346.5,53.9z
		"/>
	<path class="st4" d="M356.5,56.6c-0.3,0.6-1,1.1-2,1.1c-1.6,0-2.7-1.3-2.7-3.2c0-1.9,1.1-3.2,2.7-3.2c0.9,0,1.6,0.5,1.9,1.1v-3.7
		h1.5v8.8h-1.5V56.6z M356.5,54.4c0-1.2-0.6-2-1.5-2c-1,0-1.6,0.8-1.6,2.1c0,1.3,0.6,2.1,1.6,2.1c1,0,1.5-0.8,1.5-2V54.4z"/>
</g>
<g>
	<path class="st4" d="M314.1,66.5h1.5l1.7,4.6h0l1.7-4.6h1.5l-2.3,6.1h-1.7L314.1,66.5z"/>
	<path class="st4" d="M321.7,64h1.6v1.5h-1.6V64z M321.7,66.5h1.5v6.1h-1.5V66.5z"/>
	<path class="st4" d="M327.8,72.7c-1.8,0-3.1-1.2-3.1-3.2s1.3-3.2,3-3.2c1.9,0,2.8,1.5,2.8,3.1v0.5h-4.4c0.1,1.1,0.6,1.7,1.6,1.7
		c0.7,0,1.1-0.3,1.3-0.9h1.4C330.3,72,329.2,72.7,327.8,72.7z M326.3,68.9h2.9c0-0.8-0.4-1.4-1.4-1.4C327,67.5,326.4,68,326.3,68.9z
		"/>
	<path class="st4" d="M337.8,71L337.8,71l1.3-4.5h1.5l-1.9,6.1h-1.6l-1.2-4.4h0l-1.2,4.4h-1.6l-1.9-6.1h1.5L334,71h0l1.2-4.5h1.4
		L337.8,71z"/>
	<path class="st4" d="M344.3,72.7c-1.8,0-3.1-1.2-3.1-3.2s1.3-3.2,3-3.2c1.9,0,2.8,1.5,2.8,3.1v0.5h-4.4c0.1,1.1,0.6,1.7,1.6,1.7
		c0.7,0,1.1-0.3,1.3-0.9h1.4C346.7,72,345.7,72.7,344.3,72.7z M342.7,68.9h2.9c0-0.8-0.4-1.4-1.4-1.4
		C343.4,67.5,342.9,68,342.7,68.9z"/>
	<path class="st4" d="M352.3,67.9c-0.2,0-0.4,0-0.6,0c-0.9,0-1.7,0.6-1.7,2v2.8h-1.5v-6.1h1.5v1.4c0.3-0.9,1-1.5,1.9-1.5
		c0.2,0,0.3,0,0.5,0V67.9z"/>
	<path class="st4" d="M354.5,70.7c0.1,0.6,0.7,0.9,1.4,0.9c0.6,0,1.2-0.3,1.2-0.8c0-0.4-0.3-0.6-0.9-0.7L355,70
		c-1-0.2-1.8-0.6-1.8-1.7c0-1.2,1.1-1.9,2.5-1.9c1.6,0,2.5,0.7,2.6,1.9h-1.4c-0.1-0.5-0.5-0.8-1.2-0.8c-0.6,0-1.1,0.3-1.1,0.7
		c0,0.4,0.3,0.6,0.9,0.7l1.2,0.2c1.1,0.2,1.7,0.8,1.7,1.8c0,1.2-1.1,1.9-2.6,1.9c-1.6,0-2.7-0.7-2.9-2H354.5z"/>
</g>
<g>
	<path class="st4" d="M384.9,50.3h-3.1V49h7.7v1.3h-3.1v7.3h-1.6V50.3z"/>
	<path class="st4" d="M392.4,57.7c-1.8,0-3.1-1.2-3.1-3.2c0-2,1.3-3.2,3.1-3.2c1.8,0,3.1,1.2,3.1,3.2
		C395.5,56.5,394.2,57.7,392.4,57.7z M392.4,56.6c1,0,1.5-0.8,1.5-2.1c0-1.3-0.6-2.1-1.5-2.1c-1,0-1.5,0.8-1.5,2.1
		C390.9,55.8,391.4,56.6,392.4,56.6z"/>
	<path class="st4" d="M400.2,57.5c-0.5,0.1-0.8,0.2-1.2,0.2c-1.3,0-1.9-0.5-1.9-1.8v-3.3h-0.8v-1.1h0.8V50h1.5v1.5h1.5v1.1h-1.5v3.1
		c0,0.6,0.3,0.8,0.8,0.8c0.2,0,0.5,0,0.8-0.1V57.5z"/>
	<path class="st4" d="M405.3,56.6c-0.3,0.7-1.1,1.1-2,1.1c-1.2,0-2.1-0.7-2.1-1.8c0-1.2,1-1.7,2.2-1.9l1.8-0.2v-0.3
		c0-0.7-0.5-1.1-1.2-1.1c-0.7,0-1.1,0.4-1.1,0.9h-1.5c0.1-1.3,1.2-2.1,2.7-2.1c1.7,0,2.6,0.8,2.6,2.4v2.4c0,0.6,0,1,0.1,1.5h-1.5
		C405.3,57.3,405.3,56.9,405.3,56.6z M405.2,55.2v-0.4l-1.4,0.2c-0.6,0.1-1.1,0.2-1.1,0.9c0,0.5,0.3,0.8,0.9,0.8
		C404.5,56.7,405.2,56.2,405.2,55.2z"/>
	<path class="st4" d="M408.5,57.6v-8.8h1.5v8.8H408.5z"/>
</g>
<g>
	<path class="st5" d="M41.3,96.6c1.5,0,2-0.4,2.2-1.3h0.4v8.6h-0.7v-6.8h-1.8V96.6z"/>
	<path class="st5" d="M50.5,100.9h1.9v0.6h-1.9v2.5h-0.7v-2.5h-4.3v-0.6l4.1-5.5h0.9V100.9z M46.3,100.9h3.5v-4.7L46.3,100.9z"/>
	<path class="st5" d="M60.4,103.9l-3-7.9h0v7.9h-0.7v-8.6h1.2l2.8,7.7h0l2.8-7.7h1.2v8.6h-0.7V96h0l-3,7.9H60.4z"/>
	<path class="st5" d="M70.7,102.9c-0.3,0.7-1.1,1.2-2.1,1.2c-1,0-1.9-0.6-1.9-1.7c0-1.1,0.8-1.6,2-1.8l2-0.3v-0.4
		c0-1.1-0.7-1.5-1.6-1.5c-0.9,0-1.4,0.5-1.5,1.2h-0.7c0.1-1.2,1.1-1.8,2.2-1.8c1.4,0,2.2,0.6,2.2,2v3c0,0.4,0,0.8,0.2,1.1h-0.7
		C70.7,103.6,70.7,103.2,70.7,102.9z M70.7,101.6v-0.6l-1.8,0.2c-0.8,0.1-1.5,0.3-1.5,1.2c0,0.6,0.4,1.1,1.3,1.1
		C69.6,103.5,70.7,102.8,70.7,101.6z"/>
	<path class="st5" d="M76.7,98.5c-0.1,0-0.3,0-0.5,0c-1,0-1.9,0.8-1.9,2.4v3.1h-0.7v-6h0.7v1.5c0.3-1,1-1.6,1.9-1.6
		c0.2,0,0.3,0,0.5,0V98.5z"/>
	<path class="st5" d="M80.2,97.8c1.2,0,2.1,0.7,2.3,2h-0.7c-0.2-0.9-0.7-1.3-1.6-1.3c-1.3,0-2,1-2,2.5c0,1.5,0.7,2.5,2,2.5
		c0.9,0,1.4-0.4,1.6-1.3h0.7c-0.2,1.3-1,2-2.3,2c-1.6,0-2.7-1.2-2.7-3.1C77.4,99,78.5,97.8,80.2,97.8z"/>
	<path class="st5" d="M86.9,97.8c1.3,0,2.1,0.8,2.1,2.3v3.9h-0.7v-3.7c0-1.2-0.5-1.8-1.6-1.8c-1,0-1.8,0.6-1.8,2.2v3.3h-0.7v-8.8
		h0.7v4C85.2,98.3,85.9,97.8,86.9,97.8z"/>
</g>
<g>
	<path class="st5" d="M44.4,115.9c-1,0.7-2.2,1.5-2.2,2.4h4.9v0.6h-5.7v-0.4c0-1.4,1.5-2.5,2.7-3.3c1.1-0.7,2.1-1.5,2.1-2.5
		c0-0.9-0.5-1.8-1.9-1.8c-1.3,0-2,1-2.1,2.1h-0.7c0.1-1.5,1.1-2.7,2.8-2.7c1.8,0,2.6,1.3,2.6,2.4C47.1,114.3,45.7,115,44.4,115.9z"
		/>
	<path class="st5" d="M51.7,110.2c2,0,3.3,1.9,3.3,4.4c0,2.6-1.3,4.4-3.3,4.4c-2,0-3.3-1.9-3.3-4.4
		C48.4,112.1,49.7,110.2,51.7,110.2z M51.7,118.4c1.7,0,2.5-1.5,2.5-3.7c0-2.2-0.9-3.7-2.5-3.7s-2.5,1.5-2.5,3.7
		C49.1,116.8,50,118.4,51.7,118.4z"/>
	<path class="st5" d="M55.9,111.6c1.5,0,2-0.4,2.2-1.3h0.4v8.6h-0.7v-6.8h-1.8V111.6z"/>
	<path class="st5" d="M66.3,112.6c0,1-0.6,1.7-1.5,2c0.9,0.2,1.8,1,1.8,2c0,1.5-1.2,2.5-3.1,2.5c-1.9,0-3.1-1-3.1-2.5
		c0-1,0.9-1.8,1.8-2c-0.9-0.3-1.5-1-1.5-2c0-1.5,1.2-2.3,2.7-2.3C65.1,110.2,66.3,111.1,66.3,112.6z M65.9,116.6
		c0-1.1-0.9-1.8-2.4-1.8c-1.5,0-2.4,0.7-2.4,1.8c0,1.1,0.9,1.8,2.4,1.8C65,118.4,65.9,117.7,65.9,116.6z M65.6,112.5
		c0-1.1-0.9-1.7-2-1.7c-1.1,0-2,0.5-2,1.7c0,1.2,0.9,1.7,2,1.7C64.6,114.2,65.6,113.7,65.6,112.5z"/>
</g>
<g>
	<path class="st5" d="M133.3,101.4c0.1,1.5,1.3,2,2.7,2c1.3,0,2.3-0.7,2.3-1.8c0-0.8-0.4-1.3-1.6-1.5l-1.7-0.3
		c-1.1-0.2-2.1-0.7-2.1-2.2c0-1.3,1.1-2.4,2.9-2.4s2.9,0.7,3.1,2.3h-0.7c-0.2-1-1.1-1.6-2.4-1.6c-1.4,0-2.2,0.8-2.2,1.8
		c0,0.9,0.5,1.3,1.6,1.5l1.7,0.3c1.3,0.3,2.1,0.8,2.1,2.2c0,1.4-1.2,2.4-3,2.4c-1.8,0-3.3-0.8-3.4-2.7H133.3z"/>
	<path class="st5" d="M143.5,103.9c-0.4,0.1-0.8,0.2-1,0.2c-1,0-1.5-0.5-1.5-1.6v-3.9h-0.9v-0.6h0.9v-1.5h0.7v1.5h1.7v0.6h-1.7v4
		c0,0.7,0.3,0.9,0.9,0.9c0.2,0,0.5,0,0.9-0.2V103.9z"/>
	<path class="st5" d="M148.8,102.9c-0.3,0.7-1.1,1.2-2.1,1.2c-1,0-1.9-0.6-1.9-1.7c0-1.1,0.8-1.6,2-1.8l2-0.3v-0.4
		c0-1.1-0.7-1.5-1.6-1.5c-0.9,0-1.4,0.5-1.5,1.2H145c0.1-1.2,1.1-1.8,2.2-1.8c1.4,0,2.2,0.6,2.2,2v3c0,0.4,0,0.8,0.2,1.1h-0.7
		C148.8,103.6,148.8,103.2,148.8,102.9z M148.8,101.6v-0.6l-1.8,0.2c-0.8,0.1-1.5,0.3-1.5,1.2c0,0.6,0.4,1.1,1.3,1.1
		C147.7,103.5,148.8,102.8,148.8,101.6z"/>
	<path class="st5" d="M153.2,100.9l-0.8,0.8v2.2h-0.7v-8.8h0.7v5.9l3.2-3h0.9l-2.7,2.6l2.8,3.4h-0.9L153.2,100.9z"/>
	<path class="st5" d="M160.5,104.1c-1.7,0-2.8-1.2-2.8-3.1c0-2,1.2-3.2,2.7-3.2c1.7,0,2.5,1.4,2.5,2.9v0.3h-4.5
		c0,1.6,0.9,2.4,2.1,2.4c0.9,0,1.4-0.4,1.7-1.2h0.7C162.5,103.5,161.5,104.1,160.5,104.1z M158.4,100.5h3.8c0-1.2-0.6-2.1-1.8-2.1
		C159.4,98.4,158.5,99.1,158.4,100.5z"/>
	<path class="st5" d="M167.3,97.8c1.3,0,2.1,0.8,2.1,2.3v3.9h-0.7v-3.7c0-1.2-0.5-1.8-1.6-1.8c-1,0-1.8,0.6-1.8,2.2v3.3h-0.7v-8.8
		h0.7v4C165.7,98.3,166.4,97.8,167.3,97.8z"/>
	<path class="st5" d="M174,104.1c-1.6,0-2.7-1.2-2.7-3.1c0-1.9,1.2-3.1,2.7-3.1s2.7,1.2,2.7,3.1C176.7,102.9,175.6,104.1,174,104.1z
		 M174,103.5c1.3,0,2.1-1,2.1-2.5c0-1.5-0.8-2.5-2.1-2.5s-2.1,1-2.1,2.5C171.9,102.5,172.7,103.5,174,103.5z"/>
	<path class="st5" d="M178.5,103.9v-8.8h0.7v8.8H178.5z"/>
	<path class="st5" d="M185.8,102.8c-0.3,0.6-1,1.2-2.1,1.2c-1.5,0-2.7-1.2-2.7-3.1c0-1.9,1.2-3.1,2.7-3.1c1.1,0,1.8,0.6,2,1.3v-3.9
		h0.7v8.8h-0.7V102.8z M185.8,100.9c0-1.5-0.7-2.5-2-2.5c-1.3,0-2.1,1.1-2.1,2.6s0.8,2.6,2.1,2.6c1.3,0,2-1,2-2.5V100.9z"/>
	<path class="st5" d="M191.1,104.1c-1.7,0-2.8-1.2-2.8-3.1c0-2,1.2-3.2,2.7-3.2c1.7,0,2.5,1.4,2.5,2.9v0.3H189
		c0,1.6,0.9,2.4,2.1,2.4c0.9,0,1.4-0.4,1.7-1.2h0.7C193.2,103.5,192.2,104.1,191.1,104.1z M189,100.5h3.8c0-1.2-0.6-2.1-1.8-2.1
		C190,98.4,189.2,99.1,189,100.5z"/>
	<path class="st5" d="M198.4,98.5c-0.1,0-0.3,0-0.5,0c-1,0-1.9,0.8-1.9,2.4v3.1h-0.7v-6h0.7v1.5c0.3-1,1-1.6,1.9-1.6
		c0.2,0,0.3,0,0.5,0V98.5z"/>
	<path class="st5" d="M133.2,118.3v-8.6h5.6v0.6h-4.9v3.3h4.3v0.6h-4.3v3.3h4.8v0.6H133.2z"/>
	<path class="st5" d="M141.4,113.5c0.3-0.8,1.1-1.3,2-1.3c1.3,0,2.1,0.8,2.1,2.3v3.9h-0.7v-3.7c0-1.2-0.5-1.8-1.6-1.8
		c-1,0-1.8,0.6-1.8,2.2v3.3h-0.7v-6h0.7V113.5z"/>
	<path class="st5" d="M151.9,117.1c-0.3,0.6-0.9,1.2-2,1.2c-1.5,0-2.7-1.1-2.7-3c0-1.8,1.2-3,2.7-3c1.1,0,1.8,0.7,2.1,1.2v-1.1h0.7
		v5.6c0,1.9-1.2,2.7-2.7,2.7c-1.3,0-2.3-0.5-2.5-1.7h0.7c0.2,0.8,0.9,1.1,1.8,1.1c1.3,0,2-0.7,2-2.1V117.1z M152,115.1
		c0-1.3-0.9-2.3-2.1-2.3c-1.3,0-2,1-2,2.4c0,1.4,0.8,2.4,2,2.4c1.2,0,2.1-0.9,2.1-2.3V115.1z"/>
	<path class="st5" d="M158.5,117.3c-0.3,0.7-1.1,1.2-2.1,1.2c-1,0-1.9-0.6-1.9-1.7c0-1.1,0.8-1.6,2-1.8l2-0.3v-0.4
		c0-1.1-0.7-1.5-1.6-1.5c-0.9,0-1.4,0.5-1.5,1.2h-0.7c0.1-1.2,1.1-1.8,2.2-1.8c1.4,0,2.2,0.6,2.2,2v3c0,0.4,0,0.8,0.2,1.1h-0.7
		C158.5,118,158.5,117.6,158.5,117.3z M158.5,116v-0.6l-1.8,0.2c-0.8,0.1-1.5,0.3-1.5,1.2c0,0.6,0.4,1.1,1.3,1.1
		C157.5,117.9,158.5,117.2,158.5,116z"/>
	<path class="st5" d="M165.7,117.1c-0.3,0.6-0.9,1.2-2,1.2c-1.5,0-2.7-1.1-2.7-3c0-1.8,1.2-3,2.7-3c1.1,0,1.8,0.7,2.1,1.2v-1.1h0.7
		v5.6c0,1.9-1.2,2.7-2.7,2.7c-1.3,0-2.3-0.5-2.5-1.7h0.7c0.2,0.8,0.9,1.1,1.8,1.1c1.3,0,2-0.7,2-2.1V117.1z M165.7,115.1
		c0-1.3-0.9-2.3-2.1-2.3c-1.3,0-2,1-2,2.4c0,1.4,0.8,2.4,2,2.4c1.2,0,2.1-0.9,2.1-2.3V115.1z"/>
	<path class="st5" d="M171,118.5c-1.7,0-2.8-1.2-2.8-3.1c0-2,1.2-3.2,2.7-3.2c1.7,0,2.5,1.4,2.5,2.9v0.3h-4.5c0,1.6,0.9,2.4,2.1,2.4
		c0.9,0,1.4-0.4,1.7-1.2h0.7C173.1,117.9,172,118.5,171,118.5z M168.9,114.9h3.8c0-1.2-0.6-2.1-1.8-2.1
		C169.9,112.8,169.1,113.5,168.9,114.9z"/>
	<path class="st5" d="M181.6,112.2c1.4,0,2,0.9,2,2.3v3.9h-0.7v-3.7c0-1.2-0.4-1.8-1.4-1.8c-1,0-1.8,0.7-1.8,2.2v3.3h-0.7v-3.7
		c0-1.2-0.4-1.8-1.4-1.8c-1,0-1.8,0.7-1.8,2.2v3.3h-0.7v-6h0.7v1.2c0.3-0.8,1-1.3,1.9-1.3c1,0,1.6,0.5,1.8,1.3
		C180,112.7,180.7,112.2,181.6,112.2z"/>
	<path class="st5" d="M188.2,118.5c-1.7,0-2.8-1.2-2.8-3.1c0-2,1.2-3.2,2.7-3.2c1.7,0,2.5,1.4,2.5,2.9v0.3h-4.5
		c0,1.6,0.9,2.4,2.1,2.4c0.9,0,1.4-0.4,1.7-1.2h0.7C190.3,117.9,189.3,118.5,188.2,118.5z M186.1,114.9h3.8c0-1.2-0.6-2.1-1.8-2.1
		C187.1,112.8,186.3,113.5,186.1,114.9z"/>
	<path class="st5" d="M193.1,113.5c0.3-0.8,1.1-1.3,2-1.3c1.3,0,2.1,0.8,2.1,2.3v3.9h-0.7v-3.7c0-1.2-0.5-1.8-1.6-1.8
		c-1,0-1.8,0.6-1.8,2.2v3.3h-0.7v-6h0.7V113.5z"/>
	<path class="st5" d="M202,118.3c-0.4,0.1-0.8,0.2-1,0.2c-1,0-1.5-0.5-1.5-1.6v-3.9h-0.9v-0.6h0.9v-1.5h0.7v1.5h1.7v0.6h-1.7v4
		c0,0.7,0.3,0.9,0.9,0.9c0.2,0,0.5,0,0.9-0.2V118.3z"/>
</g>
<g>
	<path class="st5" d="M255.6,100.9c-1,0.7-2.2,1.5-2.2,2.4h4.9v0.6h-5.7v-0.4c0-1.4,1.5-2.5,2.7-3.3c1.1-0.7,2.1-1.5,2.1-2.5
		c0-0.9-0.5-1.8-1.9-1.8c-1.3,0-2,1-2.1,2.1h-0.7c0.1-1.5,1.1-2.7,2.8-2.7c1.8,0,2.6,1.3,2.6,2.4C258.2,99.3,256.8,100,255.6,100.9z
		"/>
	<path class="st5" d="M265,99.1c-0.3,1-1.1,1.9-2.5,1.9c-1.7,0-2.8-1.3-2.8-2.9c0-1.7,1.1-3,2.9-3c1.8,0,3.1,1.7,3.1,4.3
		c0,2.7-1.4,4.6-3.3,4.6c-1.5,0-2.5-0.9-2.7-2.3h0.7c0.2,1.1,0.9,1.6,2,1.6C264.1,103.4,265,101.6,265,99.1z M260.4,98.2
		c0,1.3,0.8,2.3,2.2,2.3c1.3,0,2.2-1,2.2-2.3c0-1.3-0.9-2.3-2.2-2.3C261.2,95.9,260.4,96.9,260.4,98.2z"/>
	<path class="st5" d="M272.9,97.6c0,1-0.6,1.7-1.5,2c0.9,0.2,1.8,1,1.8,2c0,1.5-1.2,2.5-3.1,2.5c-1.9,0-3.1-1-3.1-2.5
		c0-1,0.9-1.8,1.8-2c-0.9-0.3-1.5-1-1.5-2c0-1.5,1.2-2.3,2.7-2.3C271.7,95.2,272.9,96.1,272.9,97.6z M272.5,101.6
		c0-1.1-0.9-1.8-2.4-1.8c-1.5,0-2.4,0.7-2.4,1.8c0,1.1,0.9,1.8,2.4,1.8C271.6,103.4,272.5,102.7,272.5,101.6z M272.2,97.5
		c0-1.1-0.9-1.7-2-1.7c-1.1,0-2,0.5-2,1.7c0,1.2,0.9,1.7,2,1.7C271.3,99.2,272.2,98.7,272.2,97.5z"/>
</g>
<g>
	<path class="st5" d="M344.6,104.1c-1.8,0-2.9-1-3-2.6h0.7c0.1,1.2,0.9,2,2.3,2c1.3,0,2.2-0.7,2.2-1.8c0-1.1-0.8-1.7-2-1.7h-1v-0.7
		h0.9c0.9,0,1.8-0.4,1.8-1.6c0-1-0.6-1.8-1.9-1.8c-1.3,0-2.1,0.9-2.1,2.1h-0.7c0.1-1.5,1.1-2.7,2.8-2.7c1.8,0,2.7,1.2,2.7,2.4
		c0,1.1-0.7,1.8-1.5,1.9c1,0.1,1.7,1,1.7,2.1C347.5,102.9,346.4,104.1,344.6,104.1z"/>
	<path class="st5" d="M348.5,96.6c1.5,0,2-0.4,2.2-1.3h0.4v8.6h-0.7v-6.8h-1.8V96.6z"/>
	<path class="st5" d="M355.7,100.9c-1,0.7-2.2,1.5-2.2,2.4h4.9v0.6h-5.7v-0.4c0-1.4,1.5-2.5,2.7-3.3c1.1-0.7,2.1-1.5,2.1-2.5
		c0-0.9-0.5-1.8-1.9-1.8c-1.3,0-2,1-2.1,2.1H353c0.1-1.5,1.1-2.7,2.8-2.7c1.8,0,2.6,1.3,2.6,2.4C358.4,99.3,356.9,100,355.7,100.9z"
		/>
</g>
<g>
	<path class="st5" d="M392.9,100.1c0.3-1,1.1-1.9,2.5-1.9c1.7,0,2.8,1.3,2.8,2.9c0,1.7-1.1,3-2.9,3c-1.8,0-3.1-1.7-3.1-4.3
		c0-2.7,1.4-4.6,3.3-4.6c1.5,0,2.5,0.9,2.7,2.3h-0.7c-0.2-1.1-0.9-1.6-2-1.6C393.8,95.9,392.9,97.7,392.9,100.1z M397.5,101.1
		c0-1.3-0.8-2.3-2.2-2.3c-1.3,0-2.2,1-2.2,2.3c0,1.3,0.9,2.3,2.2,2.3C396.7,103.4,397.5,102.4,397.5,101.1z"/>
	<path class="st5" d="M399.2,96.6c1.5,0,2-0.4,2.2-1.3h0.4v8.6H401v-6.8h-1.8V96.6z"/>
	<path class="st5" d="M407,95.2c2,0,3.3,1.9,3.3,4.4c0,2.6-1.3,4.4-3.3,4.4c-2,0-3.3-1.9-3.3-4.4C403.7,97.1,405,95.2,407,95.2z
		 M407,103.4c1.7,0,2.5-1.5,2.5-3.7c0-2.2-0.9-3.7-2.5-3.7c-1.7,0-2.5,1.5-2.5,3.7C404.4,101.8,405.3,103.4,407,103.4z"/>
</g>
<g>
	<path class="st5" d="M44.6,150.4c-1.8,0-2.9-1-3-2.6h0.7c0.1,1.2,0.9,2,2.3,2c1.3,0,2.2-0.7,2.2-1.8c0-1.1-0.8-1.7-2-1.7h-1v-0.7
		h0.9c0.9,0,1.8-0.4,1.8-1.6c0-1-0.6-1.8-1.9-1.8c-1.3,0-2.1,0.9-2.1,2.1h-0.7c0.1-1.5,1.1-2.7,2.8-2.7c1.8,0,2.7,1.2,2.7,2.4
		c0,1.1-0.7,1.8-1.5,1.9c1,0.1,1.7,1,1.7,2.1C47.5,149.3,46.4,150.4,44.6,150.4z"/>
	<path class="st5" d="M55.6,141.7h0.7v5.6c0,1.9-1,3.2-2.7,3.2c-1.4,0-2.6-0.9-2.7-2.5h0.7c0.1,1.3,0.9,1.9,2,1.9c1.4,0,2-1,2-2.5
		V141.7z"/>
	<path class="st5" d="M62.5,150.3v-1.1c-0.3,0.8-1,1.3-1.9,1.3c-1.4,0-2.1-0.8-2.1-2.3v-3.9h0.7v3.8c0,1.2,0.5,1.8,1.5,1.8
		c1,0,1.8-0.7,1.8-2.3v-3.3h0.7v6H62.5z"/>
	<path class="st5" d="M65.5,150.3v-8.8h0.7v8.8H65.5z"/>
	<path class="st5" d="M67.7,144.3h0.7l2.1,5.1h0l1.9-5.1h0.7l-2.5,6.2c-0.5,1.4-0.9,2-1.9,2c-0.1,0-0.3,0-0.5-0.1v-0.6
		c0.2,0,0.3,0.1,0.5,0.1c0.6,0,0.9-0.4,1.3-1.5L67.7,144.3z"/>
</g>
<g>
	<path class="st5" d="M44.4,162.2c-1,0.7-2.2,1.5-2.2,2.4h4.9v0.6h-5.7v-0.4c0-1.4,1.5-2.5,2.7-3.3c1.1-0.7,2.1-1.5,2.1-2.5
		c0-0.9-0.5-1.8-1.9-1.8c-1.3,0-2,1-2.1,2.1h-0.7c0.1-1.5,1.1-2.7,2.8-2.7c1.8,0,2.6,1.3,2.6,2.4C47.1,160.6,45.6,161.3,44.4,162.2z
		"/>
	<path class="st5" d="M51.7,156.6c2,0,3.3,1.9,3.3,4.4c0,2.6-1.3,4.4-3.3,4.4c-2,0-3.3-1.9-3.3-4.4
		C48.4,158.4,49.7,156.6,51.7,156.6z M51.7,164.7c1.7,0,2.5-1.5,2.5-3.7c0-2.2-0.9-3.7-2.5-3.7s-2.5,1.5-2.5,3.7
		C49.1,163.2,50,164.7,51.7,164.7z"/>
	<path class="st5" d="M55.9,158c1.5,0,2-0.4,2.2-1.3h0.4v8.6h-0.7v-6.8h-1.8V158z"/>
	<path class="st5" d="M66.3,158.9c0,1-0.6,1.7-1.5,2c0.9,0.2,1.8,1,1.8,2c0,1.5-1.2,2.5-3.1,2.5c-1.9,0-3.1-1-3.1-2.5
		c0-1,0.9-1.8,1.8-2c-0.9-0.3-1.5-1-1.5-2c0-1.5,1.2-2.3,2.7-2.3C65.1,156.6,66.3,157.4,66.3,158.9z M65.9,163
		c0-1.1-0.9-1.8-2.4-1.8c-1.5,0-2.4,0.7-2.4,1.8c0,1.1,0.9,1.8,2.4,1.8C65,164.8,65.9,164.1,65.9,163z M65.6,158.9
		c0-1.1-0.9-1.7-2-1.7c-1.1,0-2,0.5-2,1.7c0,1.2,0.9,1.7,2,1.7C64.6,160.6,65.6,160,65.6,158.9z"/>
</g>
<g>
	<path class="st5" d="M133.2,141.7h0.7v8.6h-0.7V141.7z"/>
	<path class="st5" d="M136.9,145.4c0.3-0.8,1.1-1.3,2-1.3c1.3,0,2.1,0.8,2.1,2.3v3.9h-0.7v-3.7c0-1.2-0.5-1.8-1.6-1.8
		c-1,0-1.8,0.6-1.8,2.2v3.3h-0.7v-6h0.7V145.4z"/>
	<path class="st5" d="M145.8,150.2c-0.4,0.1-0.8,0.2-1,0.2c-1,0-1.5-0.5-1.5-1.6v-3.9h-0.9v-0.6h0.9v-1.5h0.7v1.5h1.7v0.6H144v4
		c0,0.7,0.3,0.9,0.9,0.9c0.2,0,0.5,0,0.9-0.2V150.2z"/>
	<path class="st5" d="M149.8,150.4c-1.7,0-2.8-1.2-2.8-3.1c0-2,1.2-3.2,2.7-3.2c1.7,0,2.5,1.4,2.5,2.9v0.3h-4.5
		c0,1.6,0.9,2.4,2.1,2.4c0.9,0,1.4-0.4,1.7-1.2h0.7C151.9,149.8,150.9,150.4,149.8,150.4z M147.7,146.8h3.8c0-1.2-0.6-2.1-1.8-2.1
		C148.7,144.7,147.9,145.4,147.7,146.8z"/>
	<path class="st5" d="M158.3,149c-0.3,0.6-0.9,1.2-2,1.2c-1.5,0-2.7-1.1-2.7-3c0-1.8,1.2-3,2.7-3c1.1,0,1.8,0.7,2.1,1.2v-1.1h0.7
		v5.6c0,1.9-1.2,2.7-2.7,2.7c-1.3,0-2.3-0.5-2.5-1.7h0.7c0.2,0.8,0.9,1.1,1.8,1.1c1.3,0,2-0.7,2-2.1V149z M158.3,147
		c0-1.3-0.9-2.3-2.1-2.3c-1.3,0-2,1-2,2.4c0,1.4,0.8,2.4,2,2.4c1.2,0,2.1-0.9,2.1-2.3V147z"/>
	<path class="st5" d="M164.3,144.8c-0.1,0-0.3,0-0.5,0c-1,0-1.9,0.8-1.9,2.4v3.1h-0.7v-6h0.7v1.5c0.3-1,1-1.6,1.9-1.6
		c0.2,0,0.3,0,0.5,0V144.8z"/>
	<path class="st5" d="M165.6,141.8h0.9v1.1h-0.9V141.8z M165.7,144.3h0.7v6h-0.7V144.3z"/>
	<path class="st5" d="M171.2,150.2c-0.4,0.1-0.8,0.2-1,0.2c-1,0-1.5-0.5-1.5-1.6v-3.9h-0.9v-0.6h0.9v-1.5h0.7v1.5h1.7v0.6h-1.7v4
		c0,0.7,0.3,0.9,0.9,0.9c0.2,0,0.5,0,0.9-0.2V150.2z"/>
	<path class="st5" d="M172.2,144.3h0.7l2.1,5.1h0l1.9-5.1h0.7l-2.5,6.2c-0.5,1.4-0.9,2-1.9,2c-0.1,0-0.3,0-0.5-0.1v-0.6
		c0.2,0,0.3,0.1,0.5,0.1c0.6,0,0.9-0.4,1.3-1.5L172.2,144.3z"/>
	<path class="st5" d="M185.4,149.2c-0.3,0.7-1.1,1.2-2.1,1.2c-1,0-1.9-0.6-1.9-1.7c0-1.1,0.8-1.6,2-1.8l2-0.3v-0.4
		c0-1.1-0.7-1.5-1.6-1.5c-0.9,0-1.4,0.5-1.5,1.2h-0.7c0.1-1.2,1.1-1.8,2.2-1.8c1.4,0,2.2,0.6,2.2,2v3c0,0.4,0,0.8,0.2,1.1h-0.7
		C185.4,149.9,185.4,149.5,185.4,149.2z M185.4,147.9v-0.6l-1.8,0.2c-0.8,0.1-1.5,0.3-1.5,1.2c0,0.6,0.4,1.1,1.3,1.1
		C184.4,149.8,185.4,149.2,185.4,147.9z"/>
	<path class="st5" d="M189,145.4c0.3-0.8,1.1-1.3,2-1.3c1.3,0,2.1,0.8,2.1,2.3v3.9h-0.7v-3.7c0-1.2-0.5-1.8-1.6-1.8
		c-1,0-1.8,0.6-1.8,2.2v3.3h-0.7v-6h0.7V145.4z"/>
	<path class="st5" d="M199.6,149.2c-0.3,0.6-1,1.2-2.1,1.2c-1.5,0-2.7-1.2-2.7-3.1c0-1.9,1.2-3.1,2.7-3.1c1.1,0,1.8,0.6,2,1.3v-3.9
		h0.7v8.8h-0.7V149.2z M199.6,147.2c0-1.5-0.7-2.5-2-2.5c-1.3,0-2.1,1.1-2.1,2.6s0.8,2.6,2.1,2.6c1.3,0,2-1,2-2.5V147.2z"/>
</g>
<g>
	<path class="st5" d="M135.4,159.1c1.2,0,2.1,0.7,2.3,2H137c-0.2-0.9-0.7-1.3-1.6-1.3c-1.3,0-2,1-2,2.5c0,1.5,0.7,2.5,2,2.5
		c0.9,0,1.4-0.4,1.6-1.3h0.7c-0.2,1.3-1,2-2.3,2c-1.6,0-2.7-1.2-2.7-3.1C132.7,160.4,133.8,159.1,135.4,159.1z"/>
	<path class="st5" d="M141.8,165.4c-1.6,0-2.7-1.2-2.7-3.1c0-1.9,1.2-3.1,2.7-3.1s2.7,1.2,2.7,3.1
		C144.5,164.2,143.3,165.4,141.8,165.4z M141.8,164.8c1.3,0,2.1-1,2.1-2.5c0-1.5-0.8-2.5-2.1-2.5s-2.1,1-2.1,2.5
		C139.7,163.8,140.5,164.8,141.8,164.8z"/>
	<path class="st5" d="M147,160.4c0.3-0.8,1.1-1.3,2-1.3c1.3,0,2.1,0.8,2.1,2.3v3.9h-0.7v-3.7c0-1.2-0.5-1.8-1.6-1.8
		c-1,0-1.8,0.6-1.8,2.2v3.3h-0.7v-6h0.7V160.4z"/>
	<path class="st5" d="M157.6,164.2c-0.3,0.6-1,1.2-2.1,1.2c-1.5,0-2.7-1.2-2.7-3.1c0-1.9,1.2-3.1,2.7-3.1c1.1,0,1.8,0.6,2,1.3v-3.9
		h0.7v8.8h-0.7V164.2z M157.6,162.2c0-1.5-0.7-2.5-2-2.5c-1.3,0-2.1,1.1-2.1,2.6s0.8,2.6,2.1,2.6c1.3,0,2-1,2-2.5V162.2z"/>
	<path class="st5" d="M164.6,165.3v-1.1c-0.3,0.8-1,1.3-1.9,1.3c-1.4,0-2.1-0.8-2.1-2.3v-3.9h0.7v3.8c0,1.2,0.5,1.8,1.5,1.8
		c1,0,1.8-0.7,1.8-2.3v-3.3h0.7v6H164.6z"/>
	<path class="st5" d="M169.8,159.1c1.2,0,2.1,0.7,2.3,2h-0.7c-0.2-0.9-0.7-1.3-1.6-1.3c-1.3,0-2,1-2,2.5c0,1.5,0.7,2.5,2,2.5
		c0.9,0,1.4-0.4,1.6-1.3h0.7c-0.2,1.3-1,2-2.3,2c-1.6,0-2.7-1.2-2.7-3.1C167.1,160.4,168.2,159.1,169.8,159.1z"/>
	<path class="st5" d="M176.4,165.2c-0.4,0.1-0.8,0.2-1,0.2c-1,0-1.5-0.5-1.5-1.6v-3.9H173v-0.6h0.9v-1.5h0.7v1.5h1.7v0.6h-1.7v4
		c0,0.7,0.3,0.9,0.9,0.9c0.2,0,0.5,0,0.9-0.2V165.2z"/>
</g>
<g>
	<path class="st5" d="M255.4,150.4c-1.8,0-2.9-1-3-2.6h0.7c0.1,1.2,0.9,2,2.3,2c1.3,0,2.2-0.7,2.2-1.8c0-1.1-0.8-1.7-2-1.7h-1v-0.7
		h0.9c0.9,0,1.8-0.4,1.8-1.6c0-1-0.6-1.8-1.9-1.8c-1.3,0-2.1,0.9-2.1,2.1h-0.7c0.1-1.5,1.1-2.7,2.8-2.7c1.8,0,2.7,1.2,2.7,2.4
		c0,1.1-0.7,1.8-1.5,1.9c1,0.1,1.7,1,1.7,2.1C258.3,149.3,257.3,150.4,255.4,150.4z"/>
	<path class="st5" d="M264.5,147.2h1.9v0.6h-1.9v2.5h-0.7v-2.5h-4.3v-0.6l4.1-5.5h0.9V147.2z M260.3,147.2h3.5v-4.7L260.3,147.2z"/>
	<path class="st5" d="M268.4,146.3h-0.6l0.5-4.6h4.7v0.7h-4.1l-0.3,3.2c0.4-0.5,1.2-0.9,2-0.9c1.8,0,2.9,1.3,2.9,2.9
		c0,1.6-1.1,2.9-2.9,2.9c-1.6,0-2.9-1-3-2.7h0.7c0.1,1.2,1,2,2.3,2c1.5,0,2.2-1.1,2.2-2.3c0-1.2-0.7-2.3-2.2-2.3
		C269.5,145.2,268.8,145.7,268.4,146.3z"/>
</g>
<g>
	<path class="st5" d="M343,147.2h1.9v0.6H343v2.5h-0.7v-2.5H338v-0.6l4.1-5.5h0.9V147.2z M338.8,147.2h3.5v-4.7L338.8,147.2z"/>
	<path class="st5" d="M345.3,142.4v-0.7h5.9v0.5c-2.1,2.5-2.8,5.1-2.9,8.1h-0.8c0-3.1,1.1-5.8,2.8-7.9H345.3z"/>
	<path class="st5" d="M353,146.5c0.3-1,1.1-1.9,2.5-1.9c1.7,0,2.8,1.3,2.8,2.9c0,1.7-1.1,3-2.9,3c-1.8,0-3.1-1.7-3.1-4.3
		c0-2.7,1.4-4.6,3.3-4.6c1.5,0,2.5,0.9,2.7,2.3h-0.7c-0.2-1.1-0.9-1.6-2-1.6C353.8,142.2,353,144,353,146.5z M357.6,147.5
		c0-1.3-0.8-2.3-2.2-2.3c-1.3,0-2.2,1-2.2,2.3c0,1.3,0.9,2.3,2.2,2.3C356.8,149.8,357.6,148.8,357.6,147.5z"/>
</g>
<g>
	<path class="st5" d="M398.9,143.9c0,1-0.6,1.7-1.5,2c0.9,0.2,1.8,1,1.8,2c0,1.5-1.2,2.5-3.1,2.5c-1.9,0-3.1-1-3.1-2.5
		c0-1,0.9-1.8,1.8-2c-0.9-0.3-1.5-1-1.5-2c0-1.5,1.2-2.3,2.7-2.3C397.8,141.6,398.9,142.4,398.9,143.9z M398.6,148
		c0-1.1-0.9-1.8-2.4-1.8c-1.5,0-2.4,0.7-2.4,1.8c0,1.1,0.9,1.8,2.4,1.8C397.7,149.8,398.6,149.1,398.6,148z M398.3,143.9
		c0-1.1-0.9-1.7-2-1.7c-1.1,0-2,0.5-2,1.7c0,1.2,0.9,1.7,2,1.7C397.3,145.6,398.3,145,398.3,143.9z"/>
	<path class="st5" d="M403.5,147.2c-1,0.7-2.2,1.5-2.2,2.4h4.9v0.6h-5.7v-0.4c0-1.4,1.5-2.5,2.7-3.3c1.1-0.7,2.1-1.5,2.1-2.5
		c0-0.9-0.5-1.8-1.9-1.8c-1.3,0-2,1-2.1,2.1h-0.7c0.1-1.5,1.1-2.7,2.8-2.7c1.8,0,2.6,1.3,2.6,2.4
		C406.1,145.6,404.7,146.3,403.5,147.2z"/>
	<path class="st5" d="M407.1,143c1.5,0,2-0.4,2.2-1.3h0.4v8.6h-0.7v-6.8h-1.8V143z"/>
</g>
<g>
	<path class="st5" d="M41.2,189.3c1.5,0,2-0.4,2.2-1.3h0.4v8.6h-0.7v-6.8h-1.8V189.3z"/>
	<path class="st5" d="M50.3,193.5h1.9v0.6h-1.9v2.5h-0.7v-2.5h-4.3v-0.6l4.1-5.5h0.9V193.5z M46.1,193.5h3.5v-4.7L46.1,193.5z"/>
	<path class="st5" d="M61.5,195.3L61.5,195.3l0-7.3h0.7v8.6h-0.7l-5.1-7.7h0v7.7h-0.7V188h0.9L61.5,195.3z"/>
	<path class="st5" d="M66.6,196.7c-1.6,0-2.7-1.2-2.7-3.1c0-1.9,1.2-3.1,2.7-3.1s2.7,1.2,2.7,3.1C69.4,195.5,68.2,196.7,66.6,196.7z
		 M66.6,196.1c1.3,0,2.1-1,2.1-2.5c0-1.5-0.8-2.5-2.1-2.5s-2.1,1-2.1,2.5C64.6,195.2,65.3,196.1,66.6,196.1z"/>
	<path class="st5" d="M70,190.6h0.7l2.1,5.3h0l2-5.3h0.7l-2.3,6h-0.8L70,190.6z"/>
	<path class="st5" d="M79,196.7c-1.7,0-2.8-1.2-2.8-3.1c0-2,1.2-3.2,2.7-3.2c1.7,0,2.5,1.4,2.5,2.9v0.3h-4.5c0,1.6,0.9,2.4,2.1,2.4
		c0.9,0,1.4-0.4,1.7-1.2h0.7C81.1,196.2,80.1,196.7,79,196.7z M76.9,193.1h3.8c0-1.2-0.6-2.1-1.8-2.1
		C77.9,191.1,77.1,191.7,76.9,193.1z"/>
	<path class="st5" d="M89.4,190.5c1.4,0,2,0.9,2,2.3v3.9h-0.7v-3.7c0-1.2-0.4-1.8-1.4-1.8c-1,0-1.8,0.7-1.8,2.2v3.3h-0.7v-3.7
		c0-1.2-0.4-1.8-1.4-1.8s-1.8,0.7-1.8,2.2v3.3H83v-6h0.7v1.2c0.3-0.8,1-1.3,1.9-1.3c1,0,1.6,0.5,1.8,1.3
		C87.8,190.9,88.5,190.5,89.4,190.5z"/>
	<path class="st5" d="M94.1,196.6h-0.7v-8.8h0.7v3.9c0.3-0.6,0.9-1.3,2-1.3c1.5,0,2.7,1.2,2.7,3.1c0,1.9-1.2,3.1-2.7,3.1
		c-1,0-1.8-0.6-2.1-1.2V196.6z M94.1,193.7c0,1.5,0.7,2.5,2,2.5c1.3,0,2.1-1.1,2.1-2.6s-0.8-2.6-2.1-2.6c-1.3,0-2,1-2,2.5V193.7z"/>
	<path class="st5" d="M102.8,196.7c-1.7,0-2.8-1.2-2.8-3.1c0-2,1.2-3.2,2.7-3.2c1.7,0,2.5,1.4,2.5,2.9v0.3h-4.5
		c0,1.6,0.9,2.4,2.1,2.4c0.9,0,1.4-0.4,1.7-1.2h0.7C104.9,196.2,103.9,196.7,102.8,196.7z M100.7,193.1h3.8c0-1.2-0.6-2.1-1.8-2.1
		C101.7,191.1,100.9,191.7,100.7,193.1z"/>
	<path class="st5" d="M109.9,191.1c-0.1,0-0.3,0-0.5,0c-1,0-1.9,0.8-1.9,2.4v3.1h-0.7v-6h0.7v1.5c0.3-1,1-1.6,1.9-1.6
		c0.2,0,0.3,0,0.5,0V191.1z"/>
</g>
<g>
	<path class="st5" d="M44.4,208.5c-1,0.7-2.2,1.5-2.2,2.4h4.9v0.6h-5.7v-0.4c0-1.4,1.5-2.5,2.7-3.3c1.1-0.7,2.1-1.5,2.1-2.5
		c0-0.9-0.5-1.8-1.9-1.8c-1.3,0-2,1-2.1,2.1h-0.7c0.1-1.5,1.1-2.7,2.8-2.7c1.8,0,2.6,1.3,2.6,2.4C47,206.9,45.6,207.7,44.4,208.5z"
		/>
	<path class="st5" d="M51.6,202.9c2,0,3.3,1.9,3.3,4.4c0,2.6-1.3,4.4-3.3,4.4c-2,0-3.3-1.9-3.3-4.4
		C48.4,204.7,49.7,202.9,51.6,202.9z M51.6,211.1c1.7,0,2.5-1.5,2.5-3.7c0-2.2-0.9-3.7-2.5-3.7c-1.7,0-2.5,1.5-2.5,3.7
		C49.1,209.5,50,211.1,51.6,211.1z"/>
	<path class="st5" d="M55.9,204.3c1.5,0,2-0.4,2.2-1.3h0.4v8.6h-0.7v-6.8h-1.8V204.3z"/>
	<path class="st5" d="M66.2,205.2c0,1-0.6,1.7-1.5,2c0.9,0.2,1.8,1,1.8,2c0,1.5-1.2,2.5-3.1,2.5c-1.9,0-3.1-1-3.1-2.5
		c0-1,0.9-1.8,1.8-2c-0.9-0.3-1.5-1-1.5-2c0-1.5,1.2-2.3,2.7-2.3C65.1,202.9,66.2,203.8,66.2,205.2z M65.9,209.3
		c0-1.1-0.9-1.8-2.4-1.8c-1.5,0-2.4,0.7-2.4,1.8c0,1.1,0.9,1.8,2.4,1.8C65,211.1,65.9,210.4,65.9,209.3z M65.6,205.2
		c0-1.1-0.9-1.7-2-1.7c-1.1,0-2,0.5-2,1.7c0,1.2,0.9,1.7,2,1.7C64.6,206.9,65.6,206.4,65.6,205.2z"/>
</g>
<g>
	<path class="st5" d="M138.2,194H134l-1,2.6h-0.7l3.5-8.6h0.8l3.5,8.6h-0.8L138.2,194z M134.2,193.4h3.8l-1.9-4.6h0L134.2,193.4z"/>
	<path class="st5" d="M148.6,189.1L148.6,189.1l-2.1,7.5h-0.8l-2.4-8.6h0.8l2.1,7.6h0l2.1-7.6h0.8l2.1,7.6h0l2.1-7.6h0.7l-2.4,8.6
		h-0.9L148.6,189.1z"/>
	<path class="st5" d="M157.3,196.7c-1.6,0-2.7-1.2-2.7-3.1c0-1.9,1.2-3.1,2.7-3.1s2.7,1.2,2.7,3.1
		C160.1,195.5,158.9,196.7,157.3,196.7z M157.3,196.1c1.3,0,2.1-1,2.1-2.5c0-1.5-0.8-2.5-2.1-2.5s-2.1,1-2.1,2.5
		C155.3,195.2,156.1,196.1,157.3,196.1z"/>
	<path class="st5" d="M165,191.1c-0.1,0-0.3,0-0.5,0c-1,0-1.9,0.8-1.9,2.4v3.1h-0.7v-6h0.7v1.5c0.3-1,1-1.6,1.9-1.6
		c0.2,0,0.3,0,0.5,0V191.1z"/>
	<path class="st5" d="M166.3,196.6v-8.8h0.7v8.8H166.3z"/>
	<path class="st5" d="M173.6,195.5c-0.3,0.6-1,1.2-2.1,1.2c-1.5,0-2.7-1.2-2.7-3.1c0-1.9,1.2-3.1,2.7-3.1c1.1,0,1.8,0.6,2,1.3v-3.9
		h0.7v8.8h-0.7V195.5z M173.6,193.5c0-1.5-0.7-2.5-2-2.5c-1.3,0-2.1,1.1-2.1,2.6s0.8,2.6,2.1,2.6c1.3,0,2-1,2-2.5V193.5z"/>
	<path class="st5" d="M181.5,196.7c-1.6,0-2.7-1.2-2.7-3.1c0-1.9,1.2-3.1,2.7-3.1s2.7,1.2,2.7,3.1
		C184.2,195.5,183.1,196.7,181.5,196.7z M181.5,196.1c1.3,0,2.1-1,2.1-2.5c0-1.5-0.8-2.5-2.1-2.5s-2.1,1-2.1,2.5
		C179.4,195.2,180.2,196.1,181.5,196.1z"/>
	<path class="st5" d="M185.3,191.2v-0.6h0.9v-1.3c0-1.1,0.7-1.6,1.6-1.6c0.2,0,0.4,0,0.6,0.1v0.6c-0.2,0-0.4,0-0.6,0
		c-0.4,0-0.9,0.2-0.9,1v1.3h1.3v0.6h-1.3v5.4h-0.7v-5.4H185.3z"/>
</g>
<g>
	<path class="st5" d="M137.4,210.5c-0.3,0.6-1,1.2-2.1,1.2c-1.5,0-2.7-1.2-2.7-3.1c0-1.9,1.2-3.1,2.7-3.1c1.1,0,1.8,0.6,2,1.3v-3.9
		h0.7v8.8h-0.7V210.5z M137.4,208.5c0-1.5-0.7-2.5-2-2.5c-1.3,0-2.1,1.1-2.1,2.6s0.8,2.6,2.1,2.6c1.3,0,2-1,2-2.5V208.5z"/>
	<path class="st5" d="M143.9,210.5c-0.3,0.7-1.1,1.2-2.1,1.2c-1,0-1.9-0.6-1.9-1.7c0-1.1,0.8-1.6,2-1.8l2-0.3v-0.4
		c0-1.1-0.7-1.5-1.6-1.5c-0.9,0-1.4,0.5-1.5,1.2h-0.7c0.1-1.2,1.1-1.8,2.2-1.8c1.4,0,2.2,0.6,2.2,2v3c0,0.4,0,0.8,0.2,1.1H144
		C144,211.3,143.9,210.8,143.9,210.5z M143.9,209.2v-0.6l-1.8,0.2c-0.8,0.1-1.5,0.3-1.5,1.2c0,0.6,0.4,1.1,1.3,1.1
		C142.9,211.1,143.9,210.5,143.9,209.2z"/>
	<path class="st5" d="M149.4,211.5c-0.4,0.1-0.8,0.2-1,0.2c-1,0-1.5-0.5-1.5-1.6v-3.9H146v-0.6h0.9V204h0.7v1.5h1.7v0.6h-1.7v4
		c0,0.7,0.3,0.9,0.9,0.9c0.2,0,0.5,0,0.9-0.2V211.5z"/>
	<path class="st5" d="M154.7,210.5c-0.3,0.7-1.1,1.2-2.1,1.2c-1,0-1.9-0.6-1.9-1.7c0-1.1,0.8-1.6,2-1.8l2-0.3v-0.4
		c0-1.1-0.7-1.5-1.6-1.5c-0.9,0-1.4,0.5-1.5,1.2h-0.7c0.1-1.2,1.1-1.8,2.2-1.8c1.4,0,2.2,0.6,2.2,2v3c0,0.4,0,0.8,0.2,1.1h-0.7
		C154.7,211.3,154.7,210.8,154.7,210.5z M154.7,209.2v-0.6l-1.8,0.2c-0.8,0.1-1.5,0.3-1.5,1.2c0,0.6,0.4,1.1,1.3,1.1
		C153.6,211.1,154.7,210.5,154.7,209.2z"/>
</g>
<g>
	<path class="st5" d="M256.7,189.3c1.5,0,2-0.4,2.2-1.3h0.4v8.6h-0.7v-6.8h-1.8V189.3z"/>
	<path class="st5" d="M264,193.5c-1,0.7-2.2,1.5-2.2,2.4h4.9v0.6H261v-0.4c0-1.4,1.5-2.5,2.7-3.3c1.1-0.7,2.1-1.5,2.1-2.5
		c0-0.9-0.5-1.8-1.9-1.8c-1.3,0-2,1-2.1,2.1h-0.7c0.1-1.5,1.1-2.7,2.8-2.7c1.8,0,2.6,1.3,2.6,2.4C266.6,191.9,265.2,192.7,264,193.5
		z"/>
	<path class="st5" d="M267.5,188.7V188h5.9v0.5c-2.1,2.5-2.8,5.1-2.9,8.1h-0.8c0-3.1,1.1-5.8,2.8-7.9H267.5z"/>
</g>
<g>
	<path class="st5" d="M345,192.8c0.3-1,1.1-1.9,2.5-1.9c1.7,0,2.8,1.3,2.8,2.9c0,1.7-1.1,3-2.9,3c-1.8,0-3.1-1.7-3.1-4.3
		c0-2.7,1.4-4.6,3.3-4.6c1.5,0,2.5,0.9,2.7,2.3h-0.7c-0.2-1.1-0.9-1.6-2-1.6C345.8,188.5,345,190.4,345,192.8z M349.6,193.8
		c0-1.3-0.8-2.3-2.2-2.3c-1.3,0-2.2,1-2.2,2.3c0,1.3,0.9,2.3,2.2,2.3C348.8,196.1,349.6,195.1,349.6,193.8z"/>
	<path class="st5" d="M355,187.9c2,0,3.3,1.9,3.3,4.4c0,2.6-1.3,4.4-3.3,4.4c-2,0-3.3-1.9-3.3-4.4C351.7,189.7,353,187.9,355,187.9z
		 M355,196.1c1.7,0,2.5-1.5,2.5-3.7c0-2.2-0.9-3.7-2.5-3.7c-1.7,0-2.5,1.5-2.5,3.7C352.4,194.5,353.3,196.1,355,196.1z"/>
</g>
<g>
	<path class="st5" d="M393,189.3c1.5,0,2-0.4,2.2-1.3h0.4v8.6h-0.7v-6.8H393V189.3z"/>
	<path class="st5" d="M403.3,190.2c0,1-0.6,1.7-1.5,2c0.9,0.2,1.8,1,1.8,2c0,1.5-1.2,2.5-3.1,2.5c-1.9,0-3.1-1-3.1-2.5
		c0-1,0.9-1.8,1.8-2c-0.9-0.3-1.5-1-1.5-2c0-1.5,1.2-2.3,2.7-2.3C402.1,187.9,403.3,188.8,403.3,190.2z M402.9,194.3
		c0-1.1-0.9-1.8-2.4-1.8c-1.5,0-2.4,0.7-2.4,1.8c0,1.1,0.9,1.8,2.4,1.8C402,196.1,402.9,195.4,402.9,194.3z M402.6,190.2
		c0-1.1-0.9-1.7-2-1.7c-1.1,0-2,0.5-2,1.7c0,1.2,0.9,1.7,2,1.7C401.7,191.9,402.6,191.4,402.6,190.2z"/>
	<path class="st5" d="M404.5,188.7V188h5.9v0.5c-2.1,2.5-2.8,5.1-2.9,8.1h-0.8c0-3.1,1.1-5.8,2.8-7.9H404.5z"/>
</g>
</svg>
