<?xml version="1.0" encoding="utf-8"?>
<!-- Generator: Adobe Illustrator 23.0.2, SVG Export Plug-In . SVG Version: 6.00 Build 0)  -->
<svg version="1.1" id="Layer_1" xmlns="http://www.w3.org/2000/svg" xmlns:xlink="http://www.w3.org/1999/xlink" x="0px" y="0px"
	 viewBox="0 0 121.7 113.2" style="enable-background:new 0 0 121.7 113.2;" xml:space="preserve">
<style type="text/css">
	.st0{fill:#FFFFFF;}
	.st1{font-family:'UntitledSerif-Bold';}
	.st2{font-size:16px;}
	.st3{font-family:'UntitledSans-Bold';}
	.st4{font-size:14px;}
	.st5{font-family:'UntitledSans-Light';}
</style>
<text transform="matrix(1 0 0 1 2.441406e-04 13.1561)"><tspan x="0" y="0" class="st0 st1 st2">A</tspan><tspan x="11.5" y="0" class="st0 st1 st2">uc</tspan><tspan x="29" y="0" class="st0 st1 st2">k</tspan><tspan x="38.9" y="0" class="st0 st1 st2">l</tspan><tspan x="43.8" y="0" class="st0 st1 st2">an</tspan><tspan x="62.4" y="0" class="st0 st1 st2">d</tspan></text>
<text transform="matrix(1 0 0 1 2.441406e-04 41.8163)" class="st0 st3 st4">3466</text>
<text transform="matrix(1 0 0 1 36.9041 41.8163)" class="st0 st5 st4"> members</text>
<text transform="matrix(1 0 0 1 2.441406e-04 58.8124)" class="st0 st3 st4">3326</text>
<text transform="matrix(1 0 0 1 35.3782 58.8124)" class="st0 st5 st4"> Auckland</text>
<text transform="matrix(1 0 0 1 2.441406e-04 75.8085)" class="st0 st3 st4">140</text>
<text transform="matrix(1 0 0 1 26.0964 75.8085)"><tspan x="0" y="0" class="st0 st5 st4"> No</tspan><tspan x="21.5" y="0" class="st0 st5 st4">r</tspan><tspan x="27" y="0" class="st0 st5 st4">thland</tspan></text>
<text transform="matrix(1 0 0 1 2.441406e-04 92.8046)" class="st0 st3 st4">36</text>
<text transform="matrix(1 0 0 1 17.9343 92.8046)"><tspan x="0" y="0" class="st0 st5 st4"> </tspan><tspan x="3.1" y="0" class="st0 st5 st4">e</tspan><tspan x="10.6" y="0" class="st0 st5 st4">v</tspan><tspan x="17.8" y="0" class="st0 st5 st4">ents</tspan></text>
<text transform="matrix(1 0 0 1 2.441406e-04 109.8007)"><tspan x="0" y="0" class="st0 st3 st4">Julia Hoa</tspan><tspan x="65.8" y="0" class="st0 st3 st4">r</tspan><tspan x="71.9" y="0" class="st0 st3 st4">e</tspan><tspan x="80.1" y="0" class="st0 st3 st4">,</tspan></text>
<text transform="matrix(1 0 0 1 84.8948 109.8007)" class="st0 st5 st4"> Chair</text>
</svg>
