<?xml version="1.0" encoding="utf-8"?>
<!-- Generator: Adobe Illustrator 23.0.2, SVG Export Plug-In . SVG Version: 6.00 Build 0)  -->
<svg version="1.1" id="Layer_1" xmlns="http://www.w3.org/2000/svg" xmlns:xlink="http://www.w3.org/1999/xlink" x="0px" y="0px"
	 viewBox="0 0 904.2 1151" style="enable-background:new 0 0 904.2 1151;" xml:space="preserve">
<style type="text/css">
	.st0{clip-path:url(#SVGID_2_);}
	.st1{opacity:0.5;clip-path:url(#SVGID_4_);}
	.st2{clip-path:url(#SVGID_6_);fill:#231F20;}
	.st3{clip-path:url(#SVGID_2_);fill:none;stroke:#FFFFFF;stroke-width:0.918;}
	.st4{clip-path:url(#SVGID_8_);fill:#BCBEC0;}
	.st5{clip-path:url(#SVGID_8_);fill:#FFFFFF;}
	.st6{clip-path:url(#SVGID_8_);fill:#636466;}
</style>
<g>
	<defs>
		<rect id="SVGID_1_" width="904.2" height="1151"/>
	</defs>
	<clipPath id="SVGID_2_">
		<use xlink:href="#SVGID_1_"  style="overflow:visible;"/>
	</clipPath>
	<g class="st0">
		<defs>
			<rect id="SVGID_3_" y="0" width="904.2" height="1151"/>
		</defs>
		<clipPath id="SVGID_4_">
			<use xlink:href="#SVGID_3_"  style="overflow:visible;"/>
		</clipPath>
		<g class="st1">
			<g>
				<defs>
					<rect id="SVGID_5_" x="-17" y="-13" width="938.2" height="1165"/>
				</defs>
				<clipPath id="SVGID_6_">
					<use xlink:href="#SVGID_5_"  style="overflow:visible;"/>
				</clipPath>
				<path class="st2" d="M520.6,603.6c0.8-0.6,1.3-1.9,2.4-2.1c0.3,1.1-0.8,1.8,0.3,2.3c0.4,0.2,1.9-0.4,2.3-0.7
					c1.7-1,2.1-2.1,2.9-3.9c1.3-0.4,1.7,0.8,3,0.6c0.6-1.8-1-2.8,1.2-4.1c1.5-0.9,3.1,0,4.1,1.3c1,1.3,0.2,3.3,2.6,2.6
					c2.4-0.9-0.4-1.8,0-3.8c2.4-0.2,6.4-0.1,5.4-4c-1.3-0.3-5.4,3.8-5.5,0c0-1.4,1.6-1.5,2.4-1.8c0.7-0.3,1.1-0.2,1.8-0.7
					c0.4-0.3,0.6-1.2,1.1-1.4c1.3-0.6,2.6,0.4,3.9-0.1c0.8-0.3,1.8-1.2,2.2-1.7c0.9-1,1.1-2.7,2.3-1.3c1,1.1,0,2.3-0.6,3.3
					c1.4,1.4,2.4-2.2,3.1-3c2,1.5,1.4-2.3,1.7-2.6c0.7-0.7,1.4,0.1,1.9,0.1c1,0.1,1,0.1,1.9-0.2c1.6-0.7,1.6-1.4,3.2,0
					c0.8,0.7,2.3,2.3,2.1,3.3c-3,0.9-4.2-4.3-4.6,1c-0.9,0.2-1.7,0.6-2.7,0.4c-0.4,1.7-2.6,0.6-1.6,3c-1.5,0.1-3.8,1.2-4.9,1
					c-0.8-0.1-1.1-1-1.8-1c-0.7,0-1.6,0.9-2.1,1.2c-1,0.6-1.6-0.2-1.2,1.2c0.2,0.8,1.7,0.7,1.4,1.5c-0.3,1-2-0.2-2.3,1
					c-0.2,0.8,0.9,1.2,1.5,1.3c0.2,1.5-3,1.9-1.4,3.5c2.2,2.4,2.2-1.5,1.8-2.7c0.9-0.1,1.8,0,2.7-0.1c0.1-0.8,0-1.6,0.1-2.3
					c1.8-0.4,3.1,1,4.9,0.7c0.9-0.1,2.2-1.1,3-0.4c0.9,0.9,0,1.6-0.7,2c-1.9,1.2-3.8-1.7-4,1.6c-0.1,1.6,0.4,1.1-0.7,2.1
					c-0.3,0.3-0.9,0.1-1.3,0.7c-0.1,0.2,0,1.5,0,1.8c-0.8-0.1-1.5-0.4-2.3-0.2c0.1,1.5,2,0.9,2.8,1.8c0.4,0.6,0.4,3.9,0.3,4.6
					c-0.2,1.3-1,2.8-2.1,3.1c-1.5,0.4-2-0.8-3.4,0.9c-1,1.1-1.5,2.6,0.7,2.6c1.4,0,3.1-1.5,4.3-2.2c1.1-0.7,2.7-1.1,3.5-1.7
					c1.5-1.2,0-1.8-1.6-1.7c0.1-0.8,0.9-1,1.7-1c0.6-1.6-1.1-2-1.5-3.3c-0.4-1.4,0.3-2.8,1.3-3.7c1-0.9,1.6-1.2,2.3-2.2
					c0.7-0.9,1.2-2.6,2.7-2.1c0.4,1.6-0.1,3,0.1,4.5c2,0.8,1.5-1.7,1.8-2.7c0.7-1.9,1.1-0.8,2.8-1c0.1-1.2-1.3-1.4-1.2-2.4
					c0.1-0.9,1.7-1.2,1.9-2.1c0.2-1.3-0.6-1.8-1.6-1.3c-0.8,0.3-1.4,2.1-1.7,2.8c-1.6-0.4-2.9-1.9-2.6-3.4c0.3-1.6,1.8-2,1.7-3.9
					c1.6,0.1,1.9-0.7,3.1,0.6c0.9,0.8,0.6,1.9,1.4,2.6c1.3,1.1,5.3,1.1,5.3-1.3c1.3-0.2,1.5,1.2,2.7,0.6c0.6-0.3,1.2-2.6,1.3-3.2
					c1.7,0.8,3.3,2.4,3.1,4.4c-0.2,2-3.9,2.1-1.5,3.7c1.2,0.8,3.5-0.6,4.4-1.5c0.8-0.8,0.9-1.7,1.9-2.3c1-0.7,2-0.8,3-1
					c0.2,2.3-0.6,3.4-1.9,5.1c-1.7,2.1-2.4,3.1-2.8,5.9c-1.4-0.1-2.2,0.4-3.3,1.3c0-0.6-0.1-3.9-0.3-4c-1.3-1.3-1.8,1.7-2.8,1.9
					c-0.6,1.7,2,3.1,2.1,4.9c0.1,2.7-3,1.6-2.4,4.3c-1.2-0.1-2.2,0.4-3.3,0.7c-1.1,0.1-2.3-0.7-3.1-0.6c-1.1,0.1-1.3,1.2-2,1.6
					c-1.6,0.9-1.6-0.6-2.9-0.3c-1,0.1-1.4,1.3-2.1,1.8c-0.8,0.6-2.2,0.6-2.6,1.8c-0.6,2.7,3.5-1,4.5-1.1c1.8-0.3,1.5,1.3,3,0.9
					c1.1-0.3,1.5-1.9,2.4-2.4c1-0.6,2.6-0.8,3.8-0.7c1.7,0.1,1.7,1,3,1.6c1.1,0.4,2.2-0.2,3.5-0.3c0.4,0,0.8,0.6,1.5,0.3
					c0.4-0.1,0.7-0.9,1.1-1.1c1.2-0.7,2,0,3-0.3c1.1-0.4,1.4-1.2,2.1-2c1.7,3-2.7,5.3-4.3,7.4c-1.1,1.5-1.3,1.8-3.1,2.3
					c-1.6,0.6-2.6,1.1-4,2.1c-0.4-2.1,3.7-2.3,3-4.6c-0.9-0.2-1.2,0.1-1.8,0.3c-1.1,0.4-1.1,0.6-1.9,0.6c-0.6,0-0.3-0.8-1.4-0.2
					c-0.3,0.2-1,1.4-1.2,1.8c-0.8,1.2-1.8,2.3-2.2,3.8c-0.3,0.9,0.2,1.5-0.6,2.2c-0.6,0.7-1.6,0.4-2.1,1.2c-1.2,1.5-1.1,6.8-0.1,8.3
					c0.8,1.2,1.9,1,2.1,2.8c0.3,1.7-0.1,3.4,2.4,2.8c0.4-1.7-0.9-3.1-1.5-4.5c3.3-0.3,3.1,1.1,4.3,3.7c1,2,2.2,3.2,2.4,5.5
					c0.2,2.8-0.2,4.5,1.5,6.9c0.7,0.9,1.3,2,2.1,2.8c1.2,1,2.2,0.6,3.4,1.2c2.2,1.1-0.1,3.4-1.1,5.1c-0.9,1.7-1.8,3.8-2.9,5.3
					c-2.4,3.4-6.1,5.4-9.3,8.1c-2.6,2.1-4.3,4.3-6.2,7.1l-3.1,4c-4.4,2-1.2,7.5-3.1,10.4c-1.9,2.9-4.9,5.9-7.5,8
					c-1.4,1.2-3.1,1.4-4.2,3c-0.4,0.7-0.3,1.4-1.1,2c-0.8,0.7-1.4,0.4-2.1,1.2c-0.6,0.6-0.9,1.2-1.4,1.7c-0.6,0.6-1.4,1.1-1.5,1.9
					c-0.2,1.7,2,3.1,1.5,5.1c-2.8,0.9-3.1-4.3-6.7-1.2c-1,0.9-1.5,1.7-2.6,2.3c-1.2,0.6-1.9,1.3-2.9,2.4c-2,2.6-2,5.4-3.7,8
					c-0.7,1.1-1.4,2.1-2.4,2.9c-1.4,1-2.9,1.3-2.4,3.5c3.4-0.2-2.6,7.7-3.2,8.7c-1.8,2.9-2.3,6-3.7,8.9c-4.2-0.3-0.9,4.4-1.8,6.8
					c-1.5-0.2-1.7,0.4-2.1,1.6c-0.2,0.7,0.3,1.3-0.3,1.8c-0.3,0.3-1.5,0-1.9,0.3c-0.8,0.4-1.1,1.4-1.8,1.8c-1,0.6-2.6,0.6-3.7,0.8
					c-2.3,0.4-2.9,1.8-4.3,3.8c-1.6,2.1-3.3,3.2-5.9,3.8c-2.4,0.6-4,0.9-6.2,2.1c-1.9,1.1-4.1,1.7-6,2.7c-1.7,1-3.8,2-5.2,3.1
					c-1.6,1.2-2.9,3.3-4,5c-0.7,1.1-1.1,2.2-1.5,3.4c-0.7,1.7-0.3,2.7-0.3,4.3c0,2.8-1.1,5.9-1.6,8.7c-0.3,1.8,0.2,2.2,0.7,4
					c0.4,1.6-0.4,3.2,0,4.9c0.3,1.3,1.4,2.1,1.9,3.3c0.6,1.2,0.7,2.7,1.4,3.8c-1.2,0.3-1.9-0.9-2.7-1.5c-0.9,2.6,4.4,3.9,6.1,4.4
					c0,2-4.6,0.2-6.1,0.6c-0.9,0.2-5.2,1.8-4.6,3c0.9,1.6,4.9-0.4,5.9-0.8c2.1-0.8,4,0.7,6-0.3c0.6,1,0,2.8,1.4,3.3
					c2,0.8,1.4-1.8,1.5-3c4.2-2,3.2,1.4,3.4,4.2c2.1,0.3,0.9-3,2.4-3.7c1.4-0.6,1.2,0.8,2,1.1c0.9,0.3,2.1,0,3.1,0.1
					c-0.1,0.4,0.2,1.1,0.1,1.5c1-0.1,2.9-4.4,4-1.2c0.2,0.7-0.4,1.5,0.2,2.6c0.4,0.7,1.4,1.1,1.6,1.7c0.3,1-0.2,2.1-0.1,2.9
					c0.2,0.9,0.9,1.5,1,2.3c0.2,1.2-0.4,1.9-0.6,2.9c-0.1,1.1,0.3,1.9,0.2,3c-1.2,0.3-1.4,1.7-2.7,1.5c0-0.3-0.1-0.6-0.1-0.9
					c-1.5,0.8-1.5,1.4-1.5,3c-0.7,0-1.3-0.2-1.8-0.6c-0.3,1.1-0.7,2.7-2,1.3c-0.3,0.4-0.7,0.3-1,0.6c-0.2-1.6-0.4-2.3-0.9-3.8
					c-0.6-1.5,0.3-2.8-0.1-4.2c-2.7-0.4-0.2-4.2-2.7-4.1c-2.6,0.1-1,3.2-1.2,4.4c-0.1,0.8-0.9,1.4-0.8,2.3c0.2,1.1,1.1,1.5,1.3,2.4
					c0.1,0.3-0.6,0.7-0.3,1.3c0.2,0.8,0.4,0.4,0.9,1c0.7,0.9,1.6,0.9,1.3,2.3c-1.2,0.1-2.1-0.1-3.3-0.3c-1.1-0.2-2.8,0.3-3.7,0.1
					c-1.6-0.3,0-0.8-1.1-1.8c-0.8-0.9-2.1-0.1-3.1-0.7c-0.7-0.3-1.2-1.3-1.7-1.7c-0.8-0.7-1.9-1-2.4-1.5c-0.8-0.8-1-1.9-0.7-2.9
					c0.3-0.9,1.4-1.4,1.4-2.1c-1.1-0.2-2.8,0.4-3.7,0.9c-1.6,0.7-2.7,1-4.4,1.3c-1.3,0.2-7.1,1.7-7.4,1.6l-2.8,1
					c-0.9,0.7-2.1,0.8-3.1,1c-0.9,0.1-2.6,0.9-3.4,0.7c-3.1-1.1,2.7-2.9,3.8-3.3c3.9-1.5,9-1.3,12-4.6c-2.7-1.2-4.2,0.8-6.4-0.4
					c-1.6-0.9-3.7-3.1-5.5-3c-1,0-1.1,0.7-1.8,0.9c-0.7,0.2-1.3-0.1-1.8,0c-1.4,0.2-2,0.9-2.7,1.9c-1.3,2.1-1.1,4.2-1,6.4
					c0.1,5.4-8,4.7-11.4,6.3c-4.2,1.9-7.8,4.6-12,6.1c-1.4,0.6-2.9,1.3-4.3,1.9c-1.6,0.8-3.4,1.1-4.9,2c-2.8,1.8-5,4.9-8.3,4.4
					c-1.9-0.3-2.7,0.3-4.3,1.6c-1.9,1.4-2.8,2.1-5.2,2.3c-1.6,0.2-3.2,1-4.6,1.9c-1.3,1-2.6,3.1-4.3,3.3c-0.4-2.2-5.2,1.9-6.2,2.8
					c-2.2,1.9-5.1,4.5-7.7,5.9c-0.4,0.2-0.8,0.9-1.2,0.9c-0.7,0.1-0.9-0.9-1.8-0.6c-0.9,0.3-1.9,2.3-2.6,3.1c-1.8,2.2-3.8,4.5-5.2,7
					c4.1,2.8-1.1,9-2.4,11.9c-0.8,1.5-0.7,1.2-1.9,2.1c-1.5,1.2-0.9,0.6-0.6,2c0.4,2.1-0.4,4.4-0.4,6.9c0,2.3,1.1,4.2,1.3,6.5
					c0.1,1.2,0,2.4,0,3.8c0,0.4,0.2,1.6,0,1.8c-0.6,0.8-1.2,0.2-1.6,0.6c-1.3,1.4,1.3,3.4,1.6,5.2c0.4,2.4-0.1,5.1-0.8,7.4
					c-1,3.7-3.4,8-6,10.9c-0.7,0.8-1.6,1.2-2.1,2c-0.7,1-0.7,1.7-1.6,2.4c-0.9,0.8-2.1,0.9-2.9,1.8c-0.7,0.8-0.7,2-1.5,2.8
					c-0.4,0.3-1.2,0.1-1.7,0.4c-0.4,0.3-0.7,0.8-1,1.2c-0.8,1-1.2,1.9-1.7,3c-0.9,1.9-1.3,4-2.1,5.9c-0.9,1.9-1.9,4-2.7,6
					c-0.3,0.9-0.7,2.3-0.4,3.3c0.4,1.5,0.9,1.2,2.4,1.3c0.3,2.4-1.5,2.8-2.7,4.6c-0.8,1.1-0.7,1.5-0.7,2.4c-0.1,1,0.3,2.4-0.4,3.3
					c-0.6,0.7-1.6,0.8-2.3,1.4c-0.8,0.8-1.2,1.8-1.3,2.7c-0.2,1.2,0.4,2.1-1,2.8c-0.9,0.4-2.3-0.3-3-0.7c-0.8,1.2-0.1,2.1,1.1,2.4
					c0.1,0.2,0.3,1,0.3,1.1c-1.1,0.6-1.9,2.1-3,2.2c-1.1,0.1-1-0.8-1.8-1c-0.8-0.1-1.5,0.2-2.1,0.4c-0.7,2.1,1.8,1.4,2.7,2.4
					c-0.7,1-1.8,1.6-1,3c-0.6,0.3-1.5,0.1-1.8,0.3c-0.6,0.3-0.6,1.4-1.2,1.6c-0.9,0.4-2.3,0-3.4,0.2c-1,3.5,3.4,1.8,4.1,4.3
					c0.1-0.2,0.8-1.3,1.2-1.3c1.5,0.1,0.8,1,1.6,1.5c1,0.7,3.5-0.1,3.7,1.5c-1.4-0.1-3.5,0.6-4.6,1.3c-1.4,1-2.1,2.4-3.8,3.1
					c-1.9,0.8-2.4,0.1-4,1.9c-1,1.2-2.3,2.7-2.2,4.2c1.2,0.2,3.4-1.1,4.6-1.5c1.6-0.6,2.6-2,4.6-1.9c0-1,2-3.5,2.8-4.1
					c1.3-1,3.2-0.4,3.5-2.7c2.4-0.4,0.7,3.3,0.6,4.3c-0.1,1.7,1,3.5,0.6,5.1c-1.5,1.1-2,0.2-3.5-0.3c-1.8-0.7-2.4,0.7-2.9,2.4
					c-1.8,0.6-3.9,0.2-5.8,0.3c-2,0.1-3.2,1.8-5.2,1.3c-0.9-0.2-1.5-0.9-2.4-1.1c-1.2-0.1-1.8,0.3-2.9,0.6c-1.9,0.6-3.3,0.3-5,1.4
					c0.3,0.3,0.7,0.2,1.2,0.2l-5.2,2.4c-3.5-0.1-6.9,6-8,8.7c-1,2.1-0.2,4.6-0.9,6.9c-0.7,2.1-2.7,3-4.5,4.2
					c-2.1,1.3-4.3,2.6-6.4,4.1c-1.9,1.3-2.9,2.9-4.6,4.4c-3.2,2.9-7.9,4.1-11.2,7.1c-1.6,1.5-2.7,3.5-3,5.7c-0.3,1.9,0.3,5-1.9,6.1
					c-1,0.4-2.3-0.1-3.4,0.3c-1.2,0.6-1.9,1.9-2.7,2.9c-1.4,1.7-2.7,2.9-4.6,3.8c-1.3,0.7-1.9,0.8-3.4,0.9c-1.5,0.1-1.6-0.2-3.1-0.7
					c-1.4-0.4-2,0.1-3.4,0.7c-0.9,0.3-2.6,0.4-3.3,1c-2.2,1.8,2.1,4.6-1.3,4.4c-0.8-0.1-2-1.1-2.8-1.3c-1.3-0.2-2.2,0-3.2,0.7
					c-0.8,0.4-0.2,1.1-1.3,1.2c-0.7,0.1-1.6-0.9-2.1-1.1c-1.7-0.7-2.6-0.6-4.1,0.3c-2.7,1.6-5,2.1-8.2,1.9c-0.3-1.2,0.6-3.9-2.1-3
					c-0.1,2.3-0.8,3.4-3.1,4.1c-3.1,0.8-1.8-2.9-4.4-2.8c-0.1,1.1,1,1.8,0.6,3.1c-0.6,1.6-1.7,1.2-3,0.9c-1.2-0.3-2.6-0.3-3.7-0.7
					c-1-0.3-1.6-1.3-2.6-1.5c-2.7-0.6-4.7,3.2-5.2-1c-0.3-2.6-0.9-4.8-1.3-7.4c-1.9-1.3-4.4,1.8-6.4,1.8c-1.3,0-2-0.7-3.4-0.4
					c-1.3,0.2-2.6,1-4,0.7c0.7-1.2,3-1.8,0.9-2.7c-1.3-0.6-4.1,0-5.4,0c1.6,0.6,2.4,1.5,1.8,3.2c-0.8,2-1.2,0.9-2.6,1
					c-1.5,0-2.7,0.9-4.3,0.9c-1.5,0-3-0.3-4.6-0.3c-1.2,0-3.5,0.6-3.8-1c-0.3-1.5,2.2-1.6,3.2-1.5c1.5,0.1,1.6,1.1,2.9,1.6
					c1.5,0.6,2.9-0.4,4.4-0.8c0.6-2.4-4.8-3.1-6.4-3c-2.4,0-4.8,1.5-6.5-1.2c-1.3,1.3-3.8,1-2,3.3c0.4,0.7,1.5,0.8,1.8,1.6
					c0.3,0.9,0.1,2.4-1,2.4c-0.9,0-2.2-2.8-2.8-3.4c-0.4-0.6-1.2-1.5-1.8-1.9c-0.7-0.6-2.3-0.7-2.9-1.2c-0.8-0.9-0.8-1.5,0.7-2.1
					c1.4-0.7,1.2,0.3,2.2,0.6c1.4,0.3,0.4,0.9,1.7-0.2c0.8-0.7,1.2-1.6,1.8-2.2c1.5-1.5,3.1-2.1,2.4-4.4c-0.3-1.1-1.6-4.1-3-3.1
					c-0.7,1.4-0.4,2.6-1.5,3.8c-1.4,1.5-2,1.7-2.9,0.2c-0.7-1.2-0.7-2.1-1.8-3.1c-1.1-1-2.2-1.4-3.2-2.7c-1.6-2.2-1.1-4.9-4.3-5.5
					c-3-0.6-6.9,0.3-9.5,1.3c1.8,2.2,0.9,2.2-1.6,2c-2-0.2-4.1-0.4-6.1-0.2c-0.6,1.3-2.2,3-3.8,2.7c0.1-0.4-0.2-1.1-0.1-1.5
					c-1.6-0.2-2.9,1.3-4.6,0.9c-1.7-0.6-1.5-1.8-1.5-2.7l-1.8-2.1c-0.3-0.2-3.7-1-3.7-1.5c-0.2-1.7,3.8-1.1,3.1-3.8
					c-0.8-3-6-3.7-5.5-7.4c-3-0.7-5.8-2.2-8.7-3.1c-3.2-0.9-6.5-1.3-10.1-1c0.1,1-0.1,1.8-0.4,2.7c-0.8,0.3-2.1,0.4-2.7,1.1
					c-0.8,0.9-0.3,2.4-0.4,3.5c-1.4,1-3.5,1.1-5.2,1.3c-2,0.3-3.9,1.1-5.9,1c-0.8,0-1.7-0.7-2.4-0.7c-1.4,0-1.6,0.3-2.8,0.9
					c-2.3,1-10.4-2.3-13.3-2.8c-3.4-0.6-7.3-0.7-10.8-0.9c-3.3-0.2-6.5-0.4-9.5-1.2c-2.3-0.7-5.3-2.8-4.6-5.8
					c1.6-0.7,3.1-0.3,4.6-1.4c1.3-0.9,2.1-1.9,2.8-3.3c1.1-2.3,2.8-5.8,2.4-8.5c-0.3,1.1-0.9,3.8-1.6,4.4c-0.7,0.7-1.5,0.4-2.1,1
					c-0.9,0.7-0.3,2.1-2,1.6c0-0.7-0.1-1.4-0.1-2c-1.7-0.1-3.7,2.7-5.4,3.1c-4,1-2.4-1.8-1.7-4.2c0.4-1.1,0-2.6,0.7-3.7
					c0.6-1,2-1.3,2.9-1.9c1.2-0.8,1.9-1.8,3.3-2.1c1-0.3,2.7,0,3.4-0.4c-1.7-1.5-3.3,0-5.1-0.1c-0.1-1.2-0.2-2.2,0.4-3.1
					c0.8-1.1,2.3-1.3,2.8-2.8c0.4-1.4-0.2-2.6-1.8-2c-1.4,0.6-1.4,1.9-1.7,3c-0.9,2.2-2.9,3.5-4.4,5.1c-2,2-3.5,1.5-6.1,2.1
					c-1,0.2-2.1,0.3-3.1,0.7c-1,0.3-1.5,1.4-2.3,1.6c-2.3,0.7-2.1-4.9-2.4-6.5c-0.6-2.1,0.1-4.5,0.6-6.9c0.6-2.9,0.9-3.8,4.1-3.7
					c1.6,0,3.1-0.2,4.6-0.7c0.8-0.2,1.3-0.8,2.1-0.7c0.8,0.1,1.4,0.8,2.1,1c1.9,0.6,3-0.8,4.6-1.2c1.7-0.4,3.8-0.1,5.5-0.3
					c3.3-0.6,5.7-2.7,9.2-2.4c2.2,0.1,2.8-0.6,4.6-2.1c1.3-1.2,3.2-1.7,4.4-2.8c-1.6-2-7-0.7-9.3-0.7c-1.8,0-3.1,0.3-4.7,0.9
					c-1.2,0.4-2.4,1.3-3.5,1.6c-0.3-2.2,0.6-4.4,2.7-4.9c1.6-0.3,4.8-0.1,5.8-1.8c-2-1.2-5.2-0.1-7.4,0c-1.7,0.1-1.9,0.1-1.8-1.9
					c0-1,0.2-3,1-3.7c0.7-0.6,3-1.1,4-1.4c1.2-0.4,2.4-1.1,3.8-1.2c1.7-0.2,6.1,1.6,7.1,0.1c-1-0.4-2.2-0.6-2.7-1.5
					c1.1-0.8,2.4-0.7,3.7-1.3c1-0.6,1.6-1.6,2.7-2.1c-2,0-4.6,0.9-6.3,1.8c-2.2,1.3-4.4,2-6.9,2.9c-2.1,0.8-4.6,0.3-6.9,0.9
					c-2.4,0.6-4.4,1.4-4.3-2.1c0-1.8,0.8-1.6,1.8-2.8c1.1-1.2,0.8-1.5,0.9-3.1c0.1-1.6,1.2-5.5,2.4-6.2c1.5-0.8,5.9,0,7.4,0.3
					c2.3,0.6,4.2,1.9,6.1,3.3c0.7-2.1-2-6.8-4.4-6.1c-0.3,1.7-1.7,0.6-2.6,0c-1.2-0.9-2.7-1.1-3.8-1.8c-1.2-0.9-0.8-0.8-0.3-2.1
					c0.3-1,0.8-2,1.5-2.9c0.8-0.9,4.5-2.9,5.7-2.3c1.1,0.4,1.1,1.8,1.6,2.7c1,1.5,1.5,1.2,3.2,1.4c0.3,1.3-1.6,1.5-1.7,2.7
					c1.3,0,1.8-1.2,3-1.5c1.5-0.4,2.4,0.7,3.4,1.5c1.1,0.9,2.1,1.2,1.7,2.9c-0.3,1.4-2.6,1.7-2,3.3c1.1,0.6,3.3,0.6,3.9-0.6
					c1-1.8-0.7-3.4,2.2-2.2c2.7,1.1,3.7,5.3,6.1,5.9c3.3-4.5-15.3-10.5-8.5-14.3c1.6-0.9,2.8-0.9,4.5-0.8c2,0.2,3.2-0.9,4.9,0
					c1.4,0.7,2.1,2,3.8,2.8c1,0.4,4.4,1.2,3-1.2c-1.5-0.7-3.9,0.1-4.3-1.9c-0.3-1.7,1.8-2.8,1.8-4.3c-2.6-0.2-4.9,1.3-7.4,1.8
					c-2.4,0.4-5.4,1.2-8,0.9c0.1-1-0.3-2.3-0.8-3.3c-0.7-1.3-1.2-1.2-2.1-2.1c-1.1-1.2-1.6-5.8-0.2-6.9c0.7-0.6,3.2-0.4,4.1-0.1
					c1.2,0.4,2.1,1.7,3.1,2.4c1.3,1.1,4.4,3.5,5.8,1.4c-1-0.8-2-0.1-3-1c-0.8-0.6-0.9-1.5-1.5-2.3c-1.2-1.7-2.9-2.2-4.6-2.8
					c-0.6-2.1,3.5-7.2,5.4-6c2.4,1.4,2.9,5.9,3.1,8.2c3.9,0.8,0.8-1.5,1.7-2.8c0.8-1,4.4,1,5.5,0c2.3-1.7-1.9-2.6-3-2.7
					c-2.2-0.2-3.1-0.4-4.6-2.1c-0.9-1.1-2.4-3.1-1.8-4.3c1.1-1.9,3.8-0.3,5.1,0.1c1.8,0.7,3.8,1.3,5.5,1.9c0.9,0.3,4.8,2.6,4-0.2
					c-1.7-0.7-3.2-1.6-4.8-2.2c-1.5-0.6-4.5-1.1-5.5-2.4c-1.9-2.4,6.2-6.3,8.5-6.2c0.1-2.3,0.6-2.6,2.6-3.5c1.7-0.9,3-1.9,4.9-2.2
					c0.8,1.3,0.7,2.2,0.9,3.7c0.2,1.1,1.1,2,1.3,3.1c0.2,1.3-0.1,2.6,0.2,3.8c0.3,1.2,0.9,1.9,0.8,3.3c1.3,0.1,2.6-0.1,3.7,0.7
					c0.6-1.8-0.8-5.2-3-4.9c-0.3-1.3,0.6-2.1,0.6-3.3c0.1-1.3-0.4-2.2-1-3.3c-1.1-2-1.9-4.9,0.1-6.9l1.8-1.5
					c-0.6-0.9,2.7-0.7,3.4-0.3c1,0.3,2.6,1.7,2.4,2.8c-0.1,1.1-1.4,2-1.6,3.3c-0.2,1.1,0,3,1.8,2.4c0.4-1.3,0.6-4,2.1-4.3
					c0.7-2.9-5.8-6-4.1-8.3c1-1.3,3.8-0.7,4.4,0.1c1.1,1.2,1.1,3.4,3.3,2.7c0.6-2.8-5-2.3-3.9-5.1c0.7-1.7,4.6-2.9,5.7-1.6
					c1.2-2.3,1.2-4,3.5-5.4c1.5-1,4.2-3.3,6.1-2.9c1.1,0.2,1.6,1.4,2.2,2.1c0.9,1.1,1.7,1.8,2.8,2.7c1.4,1.1,4,2.8,4.1,4.7
					c1.1-1,0.7-3.1-0.1-4.3c-1.1-1.6-2.6-1.4-3.5-2.9c-1-1.4-0.6-3.2-1.1-4.8c-0.5-1.6-1.9-3.3-1.8-5c0.2-3.9,5-5.3,7.7-7.1
					c2.2-1.5,6.3-5.2,7.4-7.9c-0.7-0.4-1-1.1-0.9-1.8c2.1-0.1,11.3,0.4,7.7-3.5c-0.7-0.7-1.8-0.9-1.5-2c0.2-0.8,2-1.2,2.7-1.3
					c2.7-0.4,2.9,0.1,4.3-2.2c0.4-0.8,0.7-1.5,1.4-2.1c1.1-0.9,1.4-0.4,2.3-0.7c1.8-0.6,3.2-1.9,4.4-3.5c0.9-1.2,2.2-2.6,2.3-4.1
					c0.1-1.2-1.1-0.8,0-1.8c0.4-0.4,2.1-0.8,2.8-1c0.7-1.2,0-1.8-0.9-2.7c1.1-0.1,1.8-0.4,3-0.3c1,0.1,1.7,0.8,2.9,0.6
					c1.8-0.3,4-1.1,5.9-1.5c0.6-0.1,2.6-0.7,3-1c0.9-0.9,0.1-1.4,1.3-2.1c0.9-0.4,2.4-0.2,3.3-0.7c1.1-0.4,1.4-1.7,2.8-1.2
					c0.7,1.3,0.3,1.9,1.6,2.7c0.8,0.6,2.1,0.9,3.1,1c2,0.3,4.6-1,6.5-1.5c4.3-1.2,7.3-5,10.2-8l2.4-1c2,0.1,4.3-1.1,5.7-2.4
					c1-0.9,1.3-1.9,1.8-2.8c0.8-1.2,0.7-1.3,2.1-1.8c4.4-1.7,8.2-4.4,12.4-6.8c1.9-1.1,3.9-2.1,5.8-3.2c2-1.2,2.6-3.2,4.4-4.4
					c2.1-1.4,4.8-0.1,7.1-1.3c0.8-0.4,1.4-1.3,2.1-1.6c1.2-0.6,2.6-0.3,3.7-1c0.3-0.2,0.6-1.2,0.8-1.2c0.8-0.1,0.9,0.6,1.4,0.7
					c1.3,0.3,1.7,0.7,3.1,0.1c1.6-0.6,3.4-1.5,4.8-2.6c2.9-2.4,6.3-6.5,7.1-10.3c1.6,1.9,2.3-2.1,3.2-3.2c1.4-1.6,2.8-2.6,4.7-3.3
					c2-0.8,4.2-1.4,6.2-2.1c0.8-0.3,2.1-0.8,2.7-1.3c1.3-1.3,0.1-1.8,0.4-3.3c0.4-1.8,3-2.9,4.4-4c1.8-1.4,3.1-2.3,5.5-2.6
					c0.4,0,0.7-0.6,1.3-0.3c0.4,0.1,0.7,0.8,1,0.9c1.3,0.2,1.2-0.2,2.1-1.4c1.3-1.4,5.4-3.3,4.8-5.2c-2.4-0.3-4.4,1.7-6.2,3.3
					c-2.7-1.1-0.1-2.9,1-3.9c1.3-1.2,2.7-3.5,4.2-4.2c0.7-0.2,2-0.2,2.9-0.2c1.1-0.1,1.6-0.1,2.8,0c0.8,0.1,1.9,0,2.3-0.7
					c0.8-1.1,0-1.6-1.2-1.9c2.4-3.1,7.7-5.5,11.3-6.8c2.4-0.8,4.4-2.1,6.8-3.4c2.1-1.2,4.6-1.9,6.9-3c1.9-1,3.7-3,5.5-4.2
					c2.1-1.4,3.4-2.9,4.8-4.9c2.3-3.7,5.3-8.1,8.8-10.9c2-1.7,4.6-2.4,6.5-4.4c1.5-1.5,1.9-3.5,3.1-5.2c1.3-2.1,3-4,4.3-6.2
					c1.2-2,1.6-4.1,2.7-6.2c1-1.9,2.8-3.5,3.8-5.5c0.6-1.3,0.1-2.4,0.3-3.8c0.3-1.2,1.1-1.7,1.6-2.8c2.3-4.2,2.8-9.1,3.7-13.5
					c0.7-3.1,1.8-5.7,2.9-8.7c0.6-1.4,1-2.8,1.8-4c1-1.4,2.1-1.8,2.3-3.4c0.7-3.8,1.3-6.2,2.8-9.5c0.8-1.6,1-3.1,1.8-4.4
					c1.4-2.1,1-1.8-1.1-2.8c-0.4-1.4,0.2-4.1,0.7-5.4c2.7-0.2,5.4,0.2,8.2,0.2l3.4-0.7c0.6-1.1,1.2-0.7,1.9-0.8c0.1,0,0.7,0.2,1,0.1
					c0.3,0,0.8-0.3,1.1-0.4c1.3-0.6,3-1.4,4.1-2.1c2.6-1.8,5.3-5.5,8-6.7c0.1,0.4,0.4,0.8,0.4,1.2c2.4-1.6,4.1-6.4,5.9-8.9
					c2-2.7,2-6.5,4-9c1.1-1.4,3-1.5,4.3-2.3c2.2-1.4,1.8-2.7,2.4-5c0.3-1.4,0.2-4.1,0.9-5.2c0.9-1.5,2.9-1.6,4.1-3.1
					c-2.8-2-2-5.1-2.1-8.5c0-1.4-0.8-3.1-0.7-4.7c0-1.6,1.1-2.6,1.5-4c-0.2-0.1-0.4-0.1-0.6-0.1l0.3-1.3c0-3.4-0.7-6.7-0.7-10.2
					c0-1.7-0.1-3.5,0-5.2c0.2-2.2,0.8-2.4,3-2.4c0.3-1,0.3-1.9,0.4-3c0.6,0.1,1.2,0.3,1.7,0.6c0.9-1,0.1-2.4,0.8-3.7
					c0.7,0,1.4-0.1,2-0.1c-0.1-0.8,0-1.7,0.4-2.3c1.5-0.3,2.1,0.2,3.5-0.4c1.8-0.9,2.2-2,3.5-3.3c0.6-0.7,0.4-0.4,1.3-1
					c0.2-0.1,0.9,0,1.5-0.3c1-0.7,2.2-2.2,3.1-3.1c2.3-2.3,7-10.2,11.1-9.4c0.4,1.4-2.3,3.5-0.7,4.4c0.3-0.6,0.7-1.5,1.1-1.7
					c0.9-0.6,1.1,0.1,1.7,0c1.5-0.2,1.8-0.7,2-2.4c1.4,0.1,3.8-1.6,1.7-2.8c-1.5-0.9-3.1,1.6-4.5,1.7c-0.8-2.7,4.8-5.1,6.7-5.9
					c2.6-1.2,6-1.6,9-1.4c3.1,0.2,6.5-0.3,9.6,0.2c2.7,0.6,5.1,3.5,7.9,3.4c-6.7,0-13.2-1.2-19.9-0.6c-1.7,3.5-2.6,7.7-2.9,11.6
					c-1.4,0.2-1.6-1.7-3-1.5c-0.4,1.7,1.4,3.8,3,4.1c0.4,1.7-0.3,3.7-0.2,5.4c0.6-0.3,0.8-0.6,1-1.2c0.3,0,0.6-0.1,0.9,0
					c0.9,1.5,0.1,2.2,1.6,3.3c0.9,0.7,1.8,1.4,2.8,2c0.6,0.3,1.4,0.4,1.8,0.7c0.9,0.7,0.6,0.7,1.2,1.6c0.8,1,2.7,1.1,2.9,2.3
					c2.4,0.3,3.2-2.2,5.4-1.5c0-1.4,0.2-3.7,2.2-2.6c1.5-1.5,1.9-2.1,3.8-0.2c1.4,1.5,1.1,3.5,1.4,5.2c-0.3,0-0.6,0.1-0.9,0.1
					c-0.3,0.6-0.4,1.1-0.3,1.7c1.1,0.2,2.9-1.4,3.8,0c0.7,1-0.4,0.9-0.4,1.6c0,1,0.6,1.8,0.3,2.8c-2.9,0.8,0.2,3.7,0,4.9
					c-2.8,0.9-3.2,1.4-4.2,4c0.6,0,1.2-0.1,1.7-0.2c0.8,1.7,0.6,3.5,1,5.2c0.4,1.5,1.6,2.8,1.8,4.3c-0.4-0.1-1.8-1.3-2.1-1.2
					c-1,0.2-0.9,2-1,2.8c-0.1,1-0.1,2.1,0.6,2.9c1,1.1,1.5,0.2,2.4,0.4c1.9,0.4,1.1,2.9,1.3,5c0.1,0.9,0.6,1.7,0.2,2.7
					c-0.2,1-1.2,1.2-0.9,2.4c2,1,5.3,2.1,7.7,1.3c1.3-0.4,2-1.5,3.1-2.1c1.1-0.7,2.2-0.8,3.4-1.4c1.8-1.1,3.9-3,5.1-4.6
					c0.8-1,1.1-2.3,1.8-3.1c0.8-0.9,1.9-1.1,2.6-2L520.6,603.6z"/>
				<path class="st2" d="M8.4,1007.6c-0.9,0.1-3.9,3.7-3.4,4.6c1,2.2,4.4-1.6,5.3-2.3c1-1,3.2-4.3,4.6-2.2c0.4,0.8-0.1,2.9,0,3.8
					c0.1,1.3,0.7,1.9,1,3c1.8,0.6,1.8-1.5,3-1.5c1.3,0,1.3,2,3,1.2c1.9-1,1.4-5,1.3-6.8c-0.2-3-1.3-4.8-4.3-3.8
					c-1.2,0.4-2,0.8-3.4,0.7c-1.3-0.1-2.3-1-3.7-0.6c0,0.7-0.3,0.9-0.4,1.4c-0.3,0.1-0.6,0.1-0.9,0.1L8.4,1007.6z"/>
				<path class="st2" d="M36.3,966c-0.6-0.2-2,1.3-2.2,2.1c-0.7,2.1,1.1,1.7,2.3,3c1.1,1.1,1.2,2.1,2.7,2.9c1,0.4,3.2,1.8,4.3,1.5
					c0.6-1.7-0.2-2.6-0.7-4.3c-0.2-1,0.2-0.9-0.6-1.8c-0.7-0.9-0.9-0.4-1.3-1.5c-0.6-1.4-0.7-3.1-1-4.6c-0.1-0.8,0.9-1.7-0.9-1.5
					c-0.6,0.1-1.1,1-1.3,1.5L36.3,966z"/>
				<path class="st2" d="M103.1,1119.4c-0.4,1.7-4.1,2.2-5.8,2.8c-0.2,2.7,0.8,4.8,0.6,7.5c-1.5,0.3-2.2-0.9-3.7-0.9
					c-1.7,0-2.8,0.9-3.8,2.1c-2.1,2.7-1.3,4.4-1.7,7.4c-0.4,3-2.4,4.1-5,5.1c-2,0.9-1.8,0.9-2.1,3.1c-0.2,1.4-0.4,2.8-0.2,4.3
					c1.9,0.1,4.7,0,6.8-0.2c0.6-0.1,1.1,0.1,1.6-0.2c0.7-0.4,0.3-1,0.7-1.3c0.8-0.8,1.7-1.3,1.5,0.6c3,0.3,6.7-5.3,1.2-4
					c-1,0.2-3.8,1.8-4.4,0.7c-1.2-1.9,3.1-1.1,3.8-1c0.6-1.2,1.1-3.5,2.8-3c0.1,0.3,0.3,0.6,0.4,0.9c1.3-0.7,1.2-2.7,1.2-4
					c1.9-1.1,2.1,0.2,3.1,1.1c1.2,1.2,2.6,1,4.3,1.7c1.3,0.6,2.3,1.6,3.8,1.8c2.4,0.3,2.9-1.9,4.6-3.1c1.3-0.9,3.2-1.1,4.4-2
					c1.3-1.1,1.8-2.1,3.7-2.7c1.7-0.4,3.2,0,4.9,0c1.6,0,2.7-0.6,4.1,0.6c-0.1-0.4,0.1-1,0-1.4c0.9-0.7,1.7-0.3,2,0.6
					c0.1-1.2-1.6-3.1,0.7-3.1c1.4,0,1.9,2.6,3.4,2.1c0.4-0.1,0.9-1,0.9-1.3c-0.1-1.1-0.7-0.7-1.5-1.1c-1.1-0.6-2.8-0.9-2.4-2.4
					c1-0.1,2.1-0.2,3,0.2c0.4-1.3,0.2-2.3,0.3-3.7c0.1-0.7,1-0.7,0.6-1.5c-0.2-0.6-1.4-0.7-1.8-0.8c-2.7-1-4.3,1.8-7.1,1.6
					c-0.8-1.1,0-2,0.9-2.7c-1.3,0.1-2.9-0.4-4-0.8c-1.1-0.3-2.6-1.7-3.7-1.8c-1.2-0.1-1.5,1.2-2.7,1.8c-1.1,0.8-2.3,1-3.5,1.3
					c-0.3-1.9,2.8-2.1,3.4-3.7c0.8-1.7-1.8-4.7,1.8-3.2c1.6,0.7,3.2,1.8,4.7,1.9c1.2,0.1,2.1-0.6,3.3-0.7c1.1-0.1,2.2,0,3.3,0
					c0.3-1.4-1.1-1.1-1.3-2c-0.2-0.9,0.3-1.2,1-1.8c-0.8-0.6-1.5-0.3-2.3-0.8c-1-0.4-1.1-1.1-1.7-1.8c-0.7-0.7-1.5-0.9-2.1-1.5
					c-0.7-0.6-0.8-1.3-1.5-2c-0.8-0.8-1.3-0.4-1.9-1.4c-0.6-1-0.2-1.7-1-2.7c-1-1.2-2.3-2.4-3.5-3.5c-1.4-1.3-3.2-2.9-5.2-2.7
					c-0.7,0.1-1.4,0.7-2.1,1c-1.4,0.4-1.3,0.4-2.9,0c-1.5-0.4-4.1-1.7-5.4-0.7c-1.4,1.1-1.2,4.1-1.4,5.8c-0.2,0-0.3,0.1-0.6,0.1
					c-0.3,1.4,1.1,1.8,0.7,3.1c-0.4,1.5-1.9,1.8-2.2,3.5c1.7,1,2.6,1.3,3.9,2.9c0.9,1.1,2.8,3,1.6,4.6L103.1,1119.4z"/>
				<path class="st2" d="M550.9,568.8c-1.5,1-1.4,3.2-1.2,4.6c0.2,1.6,2.1,3.9,1.8,5.2c-1.9,1.4-4.4-5.4-5.4-1.5
					c-0.3,1.3,0.2,2.1,1.2,2.8c0.4,0.3,1.2-0.3,1.5,0.3c0.4,1-1,1-1.2,1.5c-0.2,0.6-0.7,1.2,0,1.7c0.9,0.9,1.2,0,1.8-0.2
					c1.6-0.3,1.7-0.4,2.8-1.6c1.9-2.1,3.7-2.2,6.4-2.4c0.1-1.4-0.2-2.4,0.1-3.7c0.3-1.1,1.5-2,1.8-3.1c0.4-1.2,0.2-2.8,0.4-4.1
					c0.2-1.4,0.8-2.9,0-4.3c-2,1.3-0.4,6-3.9,5.5c0,1.3,1.7,0.8,1.8,2c-0.8,0.1-2.8,0.4-3.1,0.1c-0.8-0.8-0.1-3.2,0-4
					c-2.1-0.3-2,3-4,2.3c0-0.9,0.4-1.6,0.9-2.4L550.9,568.8z"/>
				<path class="st2" d="M666.1,150.1c-1.5,0-1.1,1.8-0.7,2.6c0.7,1.3,1.9,1.2,0.7,2.7c-1.3,0.2-4.3-1-3.3,1
					c0.8,1.4,3.3,0.4,3.9,1.9c0.3,1-0.6,1.2-0.8,1.8c-0.2,0.7-0.1,1.4-0.4,2c-0.4,1.3-2.2,2.3-1.9,0c-1.3-0.3-1.8,0.7-1.5,1.7
					c1.5,0.6,4.8,0.4,4.3,2.8c0.8,0.2,4.8-1.6,3.1,1.3c1.2-0.1,2.7-0.8,3.3,0.8c0.6,1.4-1.2,2.7,1,3.3c0.8,0.2,1.3-0.6,1.8-0.3
					c1.4,0.4,0.4,0.6,1,1.6c0.6,0.9-0.1,0.8,1,1.3c0.3,0.1,2.1,0.1,2.4,0c2.8-1.4-0.6-4.9-1.8-6.3c-0.8-0.9-1.9-1.4-2.6-2.3
					c-0.8-1.3-0.3-3.2,1.5-2.8c0.1-0.8,0-1.6,0.1-2.3c0.2,0,0.3-0.1,0.6-0.1c0.3-0.3,0.6-1.1,0.7-1.4c-1.6-0.6-10-3.2-4.9-4.4
					c0.2-1.7-2.7-1.8-3.4-3c-0.9-1.4-0.2-3.3-2.7-2.2L666.1,150.1z"/>
				<path class="st2" d="M782.8,496.4c1.7-1.8,2.1-8.8,5.4-8.3c0.1-1.8-0.1-3.8,0-5.4c0.2-2.3,1-2.4,2.8-3.4c1.6-0.8,5-6,4.6-8
					c-2.2-0.1-4.1,0.6-6.4-0.3c-2.2-0.9-3-2-4.7-3.7c-1.5,0.6-2.2,2.8-2.4,4.3c-1.5-2.3,0-4.3,1-6.4s-0.2-4.9-0.6-7.1
					c-0.2-1.1-0.1-2.6-0.6-3.4c-0.5-0.8-1.6-1-2.1-1.8c-1.4-2.3,0.3-4.5,1.5-6.1c0.9-1.2,0.6-2,1-3.3c0.6-1.5,1.6-1.2,2.7-1.9
					c1.7-1.2,2.8-3.9,4-5.5c0.8-1.2,1.3-1.9,1.8-3.1c0.7-1.6,0.8-2.2,2.2-3.1c1.2-0.7,2.6-0.8,3.8-1.3c1.2-0.5,2.2-1.4,3.3-2
					c2.2-1.3,4.6-2.2,6.8-3.8c2.3-1.5,4.6-2.8,7.1-4.2c1.2-0.7,1.7-1.3,3.1-1.5c1.5-0.1,1.6,0.6,2.8,1c2.3,0.9,5.1,0.1,7.4-0.2
					c2.6-0.3,4.6,0.1,7.1-0.1c2.3-0.2,4.8-1,7.1-0.3c1.8,0.6,3.8,1.6,5.3,2.7c2.7,1.8,2.8-0.6,5.4-0.9c0.8,2.7-3,6-3.3,8.5
					c-0.4,3,1.4,7.4,2.9,9.9c4.4-2.4,4.6-7.3,7.4-11.1c1.5-1.9,4.7-3.5,1.1-5.2c-2.1-1.1-4.4-1.9-6.9-2.1c2.8-3.3,1.9-6.7,1.9-10.6
					c0-2.3,1-4,1.5-6.2c0.4-1.9,0.3-4.1,0.7-6.2c0.2-1.6,1.8-3.3,1.6-4.7c-0.3-1.6-2.3-2.8-1.9-4.8c0.4-2.2,3.1-3.1,4.9-2.8
					c2.3,0.4,2.8,1.4,4.7,2.7c3.4-2,6.4-5.9,9.5-8.5c1.7-1.4,1.8-3.2,3.5-4.4c1.6-1.3,4.1-2.2,4.6-4.3c0.6-1.9-1-5.5,0.8-7
					c0.9-0.7,2.2,0,2.7-1.3c0.7-1.5-1-1.7-1.3-2.7c-0.8-1.9,1.2-4.1,1.6-6c0.6-2.8-2.2-3.4-2.4-6.1c-0.1-1.2-0.1-2.3,0.4-3.3
					c0.6-1.1,1.8-1.6,2.1-2.9c0.4-2.2-2.4-4.1-1.3-6.3c1-1.7,3.4-1.9,3.5-4.3c0-1.8-1.7-4.2-2.1-5.9c-0.8-2.8,1.7-3.4,2.4-5.9
					c0.8-2.2,0.9-3.7,2.3-5.5c1.4-1.7,2.9-3.4,4.2-5.1c0.8-1,1.1-1.4,1.4-2.6c0.7-2,1-1.4,2.4-2.9c0.9-0.8,0.9-2.1,1.4-3
					c0.5-0.9,1.7-1.7,1.8-2.8c0.1-1.4-3.2-4.9-4.6-4.6l-3.4-1.3c-1.8,0.3-1.5-0.8-2.7-1.3c-1.3-0.7-2.3,0.2-3.8,0.1
					c-2.3-0.3-3.5-2.9-5.2-4c1-0.7,2.3-0.6,1.6-2.1c-0.6-1-1.9-0.9-2.8-1c-2.4-0.2-4.9-0.6-7.4-0.3c-4.8,0.4-9.6-1-14.4-0.6
					c0.1,1.4,2,2.3,0.9,3.9c-0.7,0.9-3.1,1.1-4.1,1.5c-1.3,0.7-2.2,1.1-3.2,1.9c-1.1,0.9-1.9,2-3.1,2.7c-2.9,1.7-5.9-0.2-8.5,2
					c-1,0.9-1.8,1.9-2.6,2.9c-0.6,0.7-0.9,1.2-1.5,1.6c-0.7,0.4-1.3,0-1.8,0.9c4.1,0.8-1.9,7.2-4.3,6.9c-0.4,4.8-2.6,7.5-6.5,10.4
					c-3.1,2.2-7.5,5.5-11.4,5.5c-1.3,0-2.1-0.7-3.4-0.7c-2.1,0-1.4,0.8-2.4,2.1c-1.3,1.6-1,0.4-2.3-0.4c-1.3-0.8-1.9-0.2-3.2-0.3
					c-1.6-0.1-4.3-3.2-5.3-1.8c-0.8,1.1,0.8,2.1,0.3,3.1c-0.6,1.3-2,1.1-3.1,0.7c-1.2-0.4-4-2.2-3.9-3.4c1.3-0.3,3.1,0.3,4.5,0.2
					c0.9-2.7-3.9-2.2-5.2-2.4c-2.1-0.2-4.6-1.2-6.5-1.8c-2.2-0.8-4.7-0.8-7.1-1.6c-2.2-0.9-4.6-2.1-6.9-2.7
					c-4.8-1.3-8.4-3.9-12.5-6.3c-1.6-1-3.2-1.9-4.8-2.9c-2.1-1.4-3.7-2-5.9-2.8c-1.2-0.4-1.7-0.3-2.7-1c-0.8-0.6-1.2-1.2-2.1-1.5
					c-2.1-1-4.5-1.3-6.5-2.4c-1.7-1.1-2.1-2.3-3.3-3.8c-1.2-1.4-3.3-2.1-3.5-4.2c-2.4,0.1,0.3,4.3,0.7,5.5c0.2,0.9,1,3,0.7,3.8
					c-0.3,0.7-2.3,1.5-3,1.2c-2.6-1.3,2-5.4-2.2-5.4c-2.3,0-1.1,0.9-2.1,1.8c-1.5,1.3-1.6-0.4-1.9-1.8c-0.9-0.1-1.5,0.6-2.3,0.6
					c-0.2-1.1-0.3-3-1.4-3.7c-1.5-0.9-3.3,0.9-4.8,0.6c-0.1-1.8,0.7-3.5,0.6-5.1c-0.9,0-1.7,0.4-2.7,0.2c-0.7-1.6-0.9-2.6-0.8-4.2
					c-0.4-0.1-0.9-0.6-1.2-0.7c1.8-0.2,4.6-0.7,6.1-0.1c1.4,0.6,4.3,2.3,3.7,4.3c-0.4-0.1-1.1,0.2-1.5,0.1c-1.2,3.8,7.1,4.2,8.8,4.9
					c-1.5-1.1-1.6-3-2.3-4.4c-0.6-1-3-4.2-3.7-4.3l-2.1-2.8c-1.2-0.7-7.9-1-6.1-3.3c0.6,0.6,1.3,0.8,2,0.6c-2.3-2.9-2.1-7.4-3-11
					c-0.6-2-1.4-4-2.1-5.9c-0.9-2-1.6-2.4-3.7-3.5c0.4-0.1,1.3-0.3,1.8-0.7c0-0.3-0.2-0.9-0.3-1.1c-0.6-0.1-0.9-0.4-1.4-0.4
					c-0.3-1.1-0.6-2.2-0.7-3.3c0.9,0.6,1.3,1.6,2.1,2.3c-0.7-1.6,0-2.6,0.2-4c0.2-1.8,0-1.7-2-1.8c0.2-0.8,0.4-1.3,1.2-1.5
					c0.2-2.4,1.4-5.3,0.3-7.5c-0.8-0.1-1.4,0.3-1.5,1.2c-0.3,0.1-0.6,0-0.9,0c-0.6-3.7,3.8-9.8,0.9-13.3c-0.8-1-1.6-1-2.2-2
					c-0.4-1-0.6-2.1-1.2-3.2c-0.3-0.7-0.8-1.9-1.6-2.1c-0.9-0.1-1.5,1-2.4,0.9c0.1-1.9-2.7-1.4-3.1,0c1,0.9,2,4.9,0,5.2
					c-1.4,0.2-2.6-3.7-2.4-4.6c0.2-1.4,2-4.3,3.3-4.6c0.8-0.2,1.8,1,2.7,0c0.4-0.6,0-2.6,0.1-3.3c1.2-0.1,3.5,1.1,4.3-0.7
					c1.1-2.3-2.1-1.8-3.3-1.9c-0.6-3.5-3.7-0.4-5,0.3c-1.5,0.8-4.6-0.4-6.7-0.2c0.1,1,1.7,1.2,2,2.3c-0.6-0.1-1.2,0.1-1.8,0.1
					c-0.4,1.4-1.6,1.9-2.2,0.6c-0.7-1.4,0.9-3.2,0.3-4.6c-0.7-1.7-6.1-0.4-4-4c1,0.1,1.6,1.1,2.7,0.9c0.2-1.2,0.1-3.9-0.7-4.8
					c-0.9-1.1-2.9-0.7-4.2-1.1c-0.3-1.2,0.9-2.3,2-2.4c0.6-2.2-3.9-7.9-4.6-4.3c-3.1-1-2.2-4.5-5.4-5.2c-1.6-0.3-3.1,0.4-4.6,0.8
					c-1.6,0.2-2.7-0.1-3.1,1.5c-0.7,2.4,1,5.4,2.7,7.2c1.8,1.7,5.8,1.1,6.3,3.5c1.1-0.1,1.9,0.3,3,0.4c0.1,0.2,0.2,0.6,0.3,0.8
					c-0.9,1.8-1,4.3-1.6,6.2c-0.3,1.2-0.7,1.6-0.2,2.9c0.3,1.1,1.1,1.7,1,3c0.9,0.1,2.1-0.8,2.8,0c0.8,0.7-0.2,2-0.7,2.7
					c-1.3,1.6-4.1,0.7-4.9,2c0.6,0.6,1.4,0.8,2,0.8c-0.3,0.1-1,0.6-1.5,0.7c0.1,1.4,2.4,0.3,3.7,1c0,0.7-0.2,1.2-0.7,1.7
					c-1.7,0.6-3.4-0.3-5.1,0.1c-0.4,1.5,1.3,2.9,2.1,3.9c2.4,2.7,5.7,7.1,6.3,10.5c0.4,2.4-0.2,5.1,0,7.7c0.2,2,1.6,4.5,2.6,6.4
					c0.6,1.1,2.4,3.3,2.7,4.3c0.2,1.6-0.9,1.2-1.7,0.6c-1.9-1.5-0.6-5.5-3.2-5.4c-2,0.1-3.8,2.9-5.9,3.5c-2,0.7-4.8,0.3-6.8-0.6
					l-1.8-1.3c-5-3.1-1.6-10.3-1.8-14.7c-0.1-2.6-1.8-3.9-3.8-5.2c-2-1.5-4.4-4.8-5.7-1.3c-2.2-1.6-5,2.8-7.5,1.2
					c-2.5-1.6,0.7-5.2-1.6-6.8c-0.7-0.4-1.5-0.4-2.2-0.9c-0.4-0.2-0.8-0.8-1.2-1c-1-0.6-2.6-1.2-3.1,0.3c-0.7,1.7,1.8,2.2,1.5,3.7
					c-0.2,1.3-2.3,1.2-3.3,1.3c0.6-1.6,0.3-3.5-1.8-3.4c-0.6-1.1,0.1-4.9-1.6-5.1c-1.1-0.1-1.1,4.7-1.5,5.5c-0.1,0.2-0.8,0.3-1,1
					c-0.1,0.3,0,1.2,0,1.5c0,0.7,0.3,3.1-0.7,3.1c-1.7,0-1.7-4.1-1.2-5c1-1.6,2.4-2.9,0.4-4.5c-1.4-1.2-4.4-0.9-6.1-1.3
					c-1.2-0.3-1.8-0.7-2.9,0.1c-0.3,0.2-0.2,1-0.8,1.1c-0.4,0.1-0.9-0.2-1-0.1c-2.3,1-1.6,2.3-2.6,4.6c-0.3,0.1-0.6,0.1-0.9,0
					c-1.2-2.4-0.3-4.2-0.8-6.7c-1-0.1-1.9,0.2-2.7-0.4c0.6-0.9,1.6-0.2,2.3-1c-1.9-2.7-2-0.8-4.4-0.9c0.2-2,2.7-3.7,4.6-3.9
					c3.5-0.6,1.3,3.5,4.3,3.1c-0.3,0.4-0.6,1.1-0.6,1.7c1.7,0.6,2.4-1.4,4.1-1c1.2,0.3,1.3,2.1,3.2,1.6c0.2-1.5-1.2-3.2-1.8-4.6
					c-0.7-1.3-1.1-3-1.5-4.4c-0.4-1.4-0.4-3.4-1.2-4.7c-0.8-1.4-2.4-1.8-2.8-3.3c1.7,0.8,11.3-0.6,10.4-2.2c-0.9-1.8-4,0.7-5,0.8
					c-1.9,0.1-4.2-1.1-6.1-1c0.1-1.2,0.4-2.2,0-3.4c-0.6-1.5-1.2-1.3-0.4-2.8c0.3-0.8,1.9-1.5,1.9-2.7c0.1-1.3-1-2.1-1.8-3
					c2.6,1.4,0.3-3.7,0.7-4.7c1.9,0.3,2.2,2.8,2.7,4.3c0.4,1.3-0.1,1.7,1.3,1c0.6-0.3,1.4-1.3,1.5-1.9c0.7-3.1-5-7.4-2.7-10.2
					c1.5,1.4,7.3,2.7,9.1,1.5c-0.4-3.9-6.5-1.2-5.8-6.1c0.7,0,1.4-0.1,2-0.1c0.7-2-3.2-3-4.6-4c-1.5-1.1-5.4-3.7-5.2-5.5l-1.3-1
					c-0.9,0-1.1-1.6-1.5-2.4c-0.7-1.2-1.9-1.4-2.6-2.3c-1-1.4,0-1.6,0.1-2.9c0.1-1.3-0.3-1.8-0.9-2.9c-0.6-1.2-0.4-1.8-1.9-2.3
					c-1.2-0.3-2.4-0.1-3.7-0.4c-2.3-0.8-3-1.8-3.4-4.3c-0.2-1.3-0.4-2.3-0.7-3.8c-0.1-1-0.7-2.3-0.7-3.1c0.2-2.4,4.1-1.7,2.9-4.7
					c-0.9-1.9-4.4-1.9-6.2-2.3c-3.1-0.8-3.5,0-4.7,2.7c-2.8,1.1-1.8-3.2-1.8-4.6c0-2.1-0.1-4.3,0-6.4c0.7-0.1,1.4-0.1,2,0
					c0.2,1.7-0.3,3.4-0.2,5.1c1.5,0.4,1-0.9,1.9-1.2c0.6-0.2,1.9,0.3,2.7,0.2c1-0.1,1.9-0.4,2.8-0.3c0.9,0.1,1.3,0.9,2.4,0.7
					c-0.1,0.4,0.2,1.1,0.1,1.4c3.1,1,1.8,2.1,3.1,4.6c0.6,1,1.9,2.2,3,1.4c1.2-0.9,0.3-1.8,0.1-2.9c-0.3-1.3-0.3-2.1-0.1-3.4
					c0.1-0.8,0.7-2.2,0.4-3c-0.4-1.6-3.4-2.4-4.9-3.1c0.4-0.9,1.8-1.2,1.7-2.1c-0.1-1.3-1.7-0.9-2.3-1.5c-0.3-0.3,0.1-1-0.3-1.4
					c-0.3-0.3-0.8-0.3-1-0.6c-0.7-0.6-2.2-0.4-1.5-1.9c1-1.9,3.9,0.2,4.9,0.2c1.9,0,2.1-3.3,2.7-3l-1-1.5c-0.7-0.9-1.7-1.3-2.6-2
					c-0.8-0.7-1.1-1.6-1.8-2.1c-1.6-1.2-5.5-0.9-3.9-4.1c1-0.1,2,0,3-0.1c0.1-0.2,0.3-0.6,0.3-0.8c-0.4-1.6-2.1-2.4-2.8-4.1
					c-1.1-2.8-1.2-1.7-3.7-1.5c-2.8,0.2-5.9-5.4-5.2-8c2.6,0.6,2.8,5.5,5.1,4.2c3.4-1.9-2.3-3.9-2-5.4c0.3-0.1,0.7-0.3,0.9-0.3
					c-0.6-1.3-1.8,0.1-2.8-0.3c-1-0.4-1.2-1.8-1.3-2.8c-0.1-2.7,2.2-5.2,0.6-7.7c-1.4,0.7-1.9,1.2-2.4,2.7c-1.4-0.3-1.6-1-2.4,0.7
					c-0.3,0.7,0,2.4-0.9,2.8c-0.6,0.2-4.1-3.3-3.4,0.3c-1.4,0.4-1.8-0.8-3-0.9c-1.1-0.1-1.8,0.8-3,0.7c-0.8,2.2,2.4,2.8,4,3.1
					c2.7,0.4,3.7,0.6,3.3,3.7c-0.9-1.2-1.7-1.4-3-2c0.1,1.1,0,2.3-1.3,2.3c-0.3-0.8-1.2-1.9-1.8-2c-0.1,1.2,0.3,4.3-1.5,4
					c-0.9-1.6,0.1-3.7-0.9-5.2c-1.2-1.8-2.6-1.4-2.9-3.7c-0.2-1.9,0.9-4-1.3-4.6c-1-0.3-1.9,0.3-2.8,0.3c-0.9,0-1.5-0.6-2.4-0.7
					c-0.1-0.2-0.1-0.3,0-0.6c2.3,0.2,4.4-1.8,1.3-2.6c-0.1-1.1,0.7-2.6,1.8-2.8c1.6-0.2,1.5,1.1,2.3,1.8c0.3-0.7,0.7-1.4,1.3-1.8
					c0.6,1.1,0.7,2.9,0.1,4c1.4-0.6,4,0.1,4.5-1.6c0.7-1.6-1.9-3.9-3-4.8c-2.9-2.3-7.7,0.7-10.3-1.7c-1.3-1.1-1-3-2-4.3
					c-1.2-1.5-3.3-1.2-4.3-2.4c-0.6-0.7,0-1.7-0.9-2.6c-0.8-0.8-0.9-0.8-1.9-0.9c-1.4-0.1-3.4,0.8-4.6,1.3c-0.1,1.5-0.1,2.7-0.7,4.1
					c-0.4,1.2-0.7,2.3-1.1,3.5c-1.3,0.2-2.6-0.8-4-1c-0.1-0.3-0.1-0.6,0-0.9c0.7-0.2,1.4-0.4,1.9-0.9c1-0.9,0.4-0.8,0.9-1.9
					c0.7-1.6,2.4-2.9,0.7-4.1c-1.1-0.7-1.2,0.3-1.8-0.9c-0.7-1.1,0.4-1.3-1-1.8c-1.6-0.8-3,1-4.6,0.3c-1.8-0.8-1.3-2.9-3.3-3
					c-0.2,0-0.7,1-1,0.9c-0.8-0.1-0.3-0.7-0.7-0.9c-0.8-0.4-1-1.4-2.1-1c-1.3,0.6-1.2,3.4-0.6,4.3c1,1.3,3,1.1,1.7,3.4
					c-1.3,0.2-1.5-1.2-2.4-1.7c-1.1-0.7-2.1-0.3-3.3-0.1c-0.2,0-0.2,0.1,0,0.3l-3.1-1.5v0.6c-1.1-0.4-1.9-2.2-2.6-3.2
					c-0.4-0.6-2.8-2.9-2.7-3.4c0.1-2.1,6.7-3.2,8-3.1c0.1-0.2,0.1-0.3,0-0.6c-1.6,0.1-0.9-1.3-1.6-2.1c-0.7-0.8-1.8-1.2-2.1,0.2
					c-1.9-0.1-0.1-3.4-1.2-4.4c-0.7-0.6-1.8-0.3-2.2,0.4c-0.3,0.8,0.6,1.3,0.7,1.8c0.2,1.5-0.3,2.9-1.5,3.8
					c-1.6,1.2-2.2-0.2-4.1,0.3c-0.3,2.4,3.3,10.4-1.3,10.2c0.2,2.4-1.8,4.8-2.9,1.5c-1,0.1-1.2,1.5-2.3,1.2
					c-0.3-1.8-0.6-3.1,0.2-4.6c0.6-1.1,3.2-3.1,2.9-4.3c-0.4-1.3-2.9-1.4-3.9-1.7c-1.4-0.7-2.3-1.7-3.5-2.6
					c-2.1-1.6-6.2-3.3-6.7-6.4c-0.7-4.7,4.6,3.2,5.5,3c1.2-4.4-6.9-8.5-9-11.5c-2.3-3.3,0.8-11.1-3.5-13.5c-0.2,2.4,2,7.1-1,8.5
					c-1.1-1.9,0.4-4.9-0.7-6.8c-1,0.7-1.4,1.6-2.3,0.6c-0.7-0.7,0.1-2.3-0.8-2.7c-1.2-0.6-0.8,2-2,1.7c-0.9-0.2-1.2-2-1-2.7
					c2.3-0.1,2.7-0.1,2.8-2.4c0-1.7,0-3,1.6-2.2c1.4,0.7,3.2,7.4,5.4,4.7c0.8-0.9-0.6-3.4-0.6-4.3c-0.1-1.6-0.1-2.8,0.9-4.1
					c0.7-1,2.6-1.5,1.3-2.9c-1-1.1-2.9-0.2-3.1,1.1c-1.7,0.2-3.3,0-4.9-0.3c-1.2-0.2-2.8-0.9-4.1-0.7c-1.3,0.2-1.9,1.3-2.9,2.1
					c-1.2,1-2,1.2-3.7,1c-1.5-0.1-2.8-0.6-4.3-0.7c-0.8-0.1-1.7,0.2-2.3-0.1c-0.7-0.3-0.9-1.1-1.4-1.4c-1.7-1.1-1.9-0.4-2,1.5
					c-0.1,1.9,0.2,2.4-1.8,3.1c-0.4,1.6,0.9,1.4,1.7,1.8c4,1.9,8,5.8,10.5,9.4c1.2,1.6,2.1,3.7,3.3,5.2c1.5,2,3.4,3.8,5.1,5.7
					c3.4,3.8,5.8,8.5,9.1,12.5c1.4,1.7,2.8,3.4,4,5.3c1.4,2,2.3,5.4,4.6,6.8l0.3,3.8c0.7,3.3,0.9,6.7-0.3,9.9
					c-0.4,1.2-1.2,3.4-2.4,4.1c-1.8,1-2.9-1.2-4.6-1c-0.3,3.4,3.4,4.9,5.5,7.1c0.9,0.9,1.6,2.2,2.8,2.7c1.9,0.8,1.8-0.7,3.3-1.4
					c1.6,2-0.7,2.9-1.6,4.3c-0.6,0.8-0.8,3.5,0.8,4c1.9,0.6,1.9-6.4,5.8-5.4c1.1,1.8-3.5,4.4-0.7,4.9c-1.1,1.3-3.2,1.4-2.4,4
					c0.4,1.4,2.2,2.7,3,4c1.3,2,3.1,7.8,6.2,7.1c0.4-1.5,0.4-3.3,0.7-4.9c0.2-1,0.2-1.6,0-2.4c-0.2-0.9-1.1-0.8-0.9-1.8
					c0.6,0,1-0.3,1.5-0.4c-2.2-1.7,1.7-5.1,2.2-1.8c0.8,0.1,2.3,0.3,3,0.1c1.7-0.9,0.2-0.8,0.4-1.9c0.3-2,0.3-0.7,1.2-1
					c0.6-0.1,1.5-0.4,2-0.6c1-0.1,1.9,0.8,2.8-0.3c0.7-0.8,0.3-1.6,0-2.3c-0.7-1.6-2.2-2.7-1.7-4.6c0.8-0.1,1.6-0.1,2.3,0
					c-0.4,1.4-0.8,4.7,0.9,5.4c0.8-1-0.4-3.7,1.3-3.7c1.5,0,0.7,2.3,1.3,3.3c0.9-1.1,1.2-1.8,2.7-1.4c0,1.2-1.2,2.4-1.5,3.7
					c-1,3.3-0.4,0.2-2.7,1c-0.1,0.8-0.8,0.8-1,1.2c-0.4,0.7-0.3,0.7-0.4,1.3c-0.2,1.2,0.6,1.7-0.3,3c-0.7-0.4-2.2-2.9-3-0.9
					c-0.3,0.9,2,2.3,0.6,3.3c-1.4,1-2.1-1.4-2.3-2.1c-0.2-0.6,0.3-1.4-0.3-1.8c-1-0.4-0.9,0.6-1.5,0.8c-1.6,0.6-2.1,0.1-2.4,1.9
					c-0.2,1.4,0.1,2.7-0.3,4c-0.4,1.6-1.1,2.4-2.1,3.4c-1,1-2,1.7-2.1,3.2c2.7,1.2,4.4,4.3,6.2,6.4c1.9,2.3,4,4.7,5.8,7.1
					c4.1,5.2,7.8,10.5,12.1,15.7c3.1,3.7,6,7.2,8.4,11.2c1.3,2.1,2.4,4.5,4.1,6.4c1.3,1.7,2.9,3.1,4.2,4.8c1.4,1.8,1.8,3.9,2.3,6
					c0.6,2.1,1.9,4.3,3,6.2c1.2,2,2.6,3.5,3.1,5.8c0.6,2.3,1,4.4,2.6,6.4c1.1-0.9,2-1.6,3.3-2.1c1.6-0.7,2.9-0.4,4-1.7
					c1.2-1.4,1.1-3.3,0.1-4.6c-0.6-0.8-2.6-3,0.2-2.6c0.7-2.3-3.4-1.7-4.7-3c-1.4-1.3-2-2.9-3.7-4.2c-1.5-1.2-3.5-3.9-0.7-4
					c1.3-0.1,4.5,0.7,5.4,1.4c1.5,1.3,2,3.1,3.8,4.3c0.9,0.7,1.8,0.9,2.3,1.8c0.4,0.8,0.1,2.2,1,2.7c1,0.4,1.8-1,2.3-1.5
					c0.9-0.9,1.7-1,2.6-1.6c2.8-1.9-0.7-4.1-1.9-1.5c-1.1-1.1-2.3-1.2-3-2.8c-0.6-1.2,0.2-1.1-0.9-1.8c-0.4-0.3-1.3-0.2-1.8-0.7
					c-3.3-2.7,2.3-5.2,4.9-4.6c-0.7,1.1-0.9,2.6-0.2,3.5c0.2,0.3,1.1,0.1,1.5,0.7c0.2,0.3,0.1,1.4,0.3,1.8c0.8,0.1,1.7-0.1,2.4,0
					c1.6,0.4,0.8,0.1,0.9,1.5c0.1,1.2-0.1,3.1,1.8,1.8c2.2-1.4,2.3-5.7,2.6-7.9c1.4,0.2,3.1,0.8,3.3,2.3c-1.3,0.3-2.3,1.1-3,2.2
					c-0.7,1.3-0.1,3.4-1,4.6c-1.1,1.4-2.4,0.6-4.1,1.2c-1.5,0.7-2.2,2.7-0.7,3.7c1.3,0.8,3.1-0.4,4-1.3c0.4-0.4,0.7-1.2,1.2-1.6
					c0.7-0.3,1.3,0,1.9-0.2c2.6-0.7,4.3-4.1,7.4-3.3c0.3,1.1-0.2,2-0.7,3c-2.2,0.1-2.4,1.9-4,2.9c-1.2,0.8-1.2-0.2-2.1,1.3
					c-0.7,1-0.4,1.4-1.4,2c-1.8,1.2-3.5,0.7-5.2-0.1c-1.9-0.9-3-0.2-5.1,0c-0.1,1.4-0.2,3.5,0.6,4.6c0.9,1.3,3,0.9,4.3,1.3
					c1.8,0.4,2.4,1.3,4.1,0.7c0.2-0.1,1.6-1,1.7-1.1c0.4-0.4,0.4-1.8,0.8-2c0.8-0.7,3.5,0.2,3.7,1.5c0.2,1.3-2.2,2.3-2.2,3.8
					c0,0.8,0.8,1.2,1,1.8c0.2,0.7,0,1.8,0,2.4c-0.1,1.5-1.1,3.2-0.9,4.6c0.7,0,1.2,0,1.7-0.2c0.2,2.3-1.5,5.8,1.3,6.2
					c0,0.3,0.1,0.6,0,0.9c-2.4,0.7-1.4,6.3-4.5,5.2c0.1-1.2-0.2-2.6-0.8-3.7c-1.2-0.3-1.6,0.8-1.5,1.7c-0.3,0.1-0.8,0.1-1.2,0
					c0.8-1-0.2-1.7-1.2-1.8c-0.6-1.9,2.6-0.8,2.1-2.7c-0.3-1.3-2.6-0.2-2.4-1.8c3.1,0.3-0.7-2.6-1.3-3.1c-1.5-1-3-1.9-3.8-3.4
					c-0.9-1.6-0.4-4.5-3.2-4.1c-1.4,0.2-2.1,2.7-3.4,2.7c-0.1-1,0-2-0.1-3c-3.3-1,0.4,8.8,1.5,10.2c2.1,2.9,4.2,5.8,6.5,8.5
					c5.2,6.2,10.1,13.4,10.4,21.6l1.5,3.1c-0.2,0-0.4,0-0.6,0.1c0.9,1.7,0.9,3.8,1.4,5.5c0.7,1.8,2.4,3.4,2.2,5.4
					c1.4,0.1,6.2-6.7,6.5-2.4c1.3,0,2-3.9,3-4.9c1.4-1.6,3.2-1.9,5.2-2.1c1.9-0.2,4-0.4,5.7-0.6c1.3-0.1,4.5-0.1,3.9,2
					c-1.2,0.4-3.7,3.1-3,4.4s4-0.1,5.4,0.7c0.6,2.3-1.2,2.3,1.3,3.3c1.2,0.4,2.9,0.8,3.8,1.5c0.9,0.8,1.4,2.7,0.2,3.4
					c-1,0.6-2.8-1-3.9-1c-0.6-1.1,0-2.3-1.6-2.4c-1.1,0-1.5,0.9-2,1.6c-0.7,0.8-1,2.1-2.1,2c-0.9-0.1-0.6-1.7-2.1-1.2
					c0,0.9-0.1,1.8-0.4,2.7c-1.5,0-4.4,0.6-4,2.8c1,0.1,4.6-0.9,4.9,0.7c0.3,1.7-3.2,0.8-4,1.5c0.4,1.2,2.7,3.7,1.2,4.9
					c-1.8,1.6-2.7-2-2.8-3.1c-0.2-2.4-0.7-4.2-1.9-6.1c-0.6-0.8-2.1-1.3-2.4-2.1c-0.6-1.3,0.8-1.6,1.1-2.9c0.9-3.5-3-1.4-4.7-1.3
					c-2.3,0.2-4.7-0.7-2.7,2.3c1.3,1.9,1.5,3.5,2.3,5.7c0.8,2,2.7,3.5,3.5,5.4c1,2,1.3,4.4,1.8,6.4c0.6,2,2,4.1,2.4,6.2
					c1.7,0.4,3.9-2.8,4.6-4c1.1-1.8,2.9-4.3,5.4-3.7c0.1,1,0.1,2-0.6,2.8c-0.8,1-1.3,0.3-2.1,1c-2.3,1.6,0.8,4.8-1.9,5.8
					c-1.9,0.8-5.2,0.1-4.9,3.3c0.2,1.9,2,4.2,2.7,5.9c0.8,2.2,1.4,4.4,2.1,6.5c1.6,4.4,3.2,8.4,4.4,12.9c0.3,1.2,0.7,2.2,0.9,3.4
					c0.1,0.6,0,3,0.3,3.4c1.1,1.4,1.6-0.7,2.6-0.9c1-0.3,1.9,0.2,2.7,0.9c0.8-1.6,1.4-4.7,3.8-4.3c0.2,2.1-0.2,3.3-1.5,4.8
					c0.6,0.3,1.1,0.4,1.8,0.4c0.8,2.2-1.8,2-3,1.8c-1.5-0.2-2.6-0.1-4.1,0.3c-2.1,0.7-4.9,4.1-7.1,3.8c-0.2,2.3-0.2,4.7-0.3,7.1
					c-0.1,1.6-0.6,5.2,1.3,6.1c1.8,0.9,2-0.8,2.3-1.8c0.6-1.3,0.3-1.2,1.5-2.1c1.1-1,0.9-1.6,2.1-0.2c0.9,1,0.8,1.2,0.3,2.2
					c-0.4,1.2-1.7,3.9-3,4.4c-1.8,0.8-4.6-0.7-4.6,2.4c0,1,0.3,1.8,1.3,2.3c1.6,0.9,1.2,0,2.1-0.8c2.4-2.1,2.9-0.3,5.4-0.3
					c0.1,0.9,0,1.8,0.1,2.7c0.9-0.2,1.7-0.8,2.7-0.6c-0.1,1.9-1.4,2.4-3.1,2.1c-0.8-0.1-1-0.6-1.8-0.6c-0.6,0-1.5,0.7-2.1,0.7
					c-0.1,0.2-0.1,0.3,0,0.6c2.9-0.4,1.8,4.3-0.3,2.8c-0.7-0.4-0.7-2-1.3-2.7c-0.3-0.3-1.6-1.1-1.9-1.2c-1.3-0.6-1.2-0.1-2.7-0.1
					c-1.2,0-1.5-0.6-2.9-0.2c-2.9,0.9-1,1.8-0.7,4c0.8,4.1-0.9,9-1.5,12.6c-0.6,2.7-0.6,9.5-3.7,10.4c-0.9,4.4-0.2,9.3-1,13.8
					c-0.8,4.4-1.8,9.2-2.1,13.5c-0.2,2.4,0.2,4.8-0.7,7.2c-0.6,1.6-1.7,2.7-2.9,4c-1.4,1.6-2.9,3.1-4.3,4.6
					c-1.2,1.4-2.4,3.3-4.3,4.1l-1.8,1.8c0,0-0.7,0.3-1.3,0.3c-2.2,0-4.8-1-7.4-1c-2.7,0-4.4,0.1-6.8,1.6c-1.9,1.4-3.4,2.7-5.7,3.7
					c-2.6,1.1-4.6,2.3-6.8,4c-3.4,2.6-7.5,5-11.4,6.8c-2.2,1-4.3,1.8-6.2,3.5c-1.8,1.7-2.1,3.5-3,5.5c-0.7,1.4-1,1.9-1,3.7
					c0,1.2-0.1,2.2-0.4,3.3c-0.7,2.4-0.9,4.4,0.8,6.8c2.4,3.7,5.8,5.8,8.8,8.8c1.3,1.3,2.3,2.9,3.9,3.9c2,1.4,4.1,1.6,6.4,2.2
					c2.2,0.7,3.9,1.3,6.4,1.3c2.7,0,5.1,0.6,7.7,1c2.3,0.4,4.8,0.2,6.9,1.5c1.7,1.1,3.5,2.9,4.8,4.4c2.8,3.1,4.9,7.2,7.4,10.4
					c2.8,3.7,6.9,6.5,11,7.2c1.1,0.2,2.6,0.3,3.7,0.7c1,0.2,1.5,1,2.3,1.3c2.2,1,4.6,0.2,7,0c2.6-0.2,4.5,0.1,6.7,1.5
					c1.9,1.4,4,2.2,6,3.5c1.8,1.3,3.4,2.4,5.1,3.9c1.7,1.4,2.8,3.4,4.4,4.8c3.1,2.7,5.8,6.7,7.4,10.4c1,2.1,0.8,4.5,1.2,6.8
					c0.2,1.1,0.9,2.2,1.3,3.4c0.3,1.1,0.2,2.1,0.3,3.3c3.9,0.9,9.6-2.8,10.4-6.8c0.2-0.1,0.3-0.1,0.6,0c0.6,1.9-1.2,5-2.7,6.2
					c-2.1,1.8-4.6,2.1-7.4,2c1.3,2.3-1.6,5.4-1.9,7.7c-0.4,2.3,2,8.5-1.8,8c-0.4,5.1-0.3,10.4-1.6,15.4c-1.3,4.6-4.2,8.3-7.1,12.1
					c-1.4,1.9-2.8,3.9-4.2,5.8c-1.3,1.7-3.5,3.2-4.4,5c-0.7,1.4,0.1,2.1-0.1,3.7c-0.1,1.2-0.9,2.1-1.5,3.1c-0.7,0.9-1.5,2.2-2.4,2.7
					c-1.3,0.6-1.5-0.3-2.8,1.1c-0.9,1-1.6,2.2-1.2,3.3c0.4,0.9,1.7,1.1,2.1,2.1c1,2.6-2.6,3.5-3.2,0.8c-3.7-0.2-7.7,7.3-9.1,9.9
					c-1.4,2.7-2.6,3-5.3,2.7c-2.1-0.2-4.7,1.4-4,4.3c1.2-0.1,3,2.6,4.1,3.3c1.3,0.9,2.9,2.1,4.3,2.8c1.9,0.8,3.1,0.2,4.8-0.7
					c1.1-0.6,0.9-0.4,1.9-0.6c1-0.1,2-0.4,3-0.4c0.1-0.2,0.2-0.6,0.4-0.9c1.6-3.7-3.1-2.4-3.8-4.3s2.9-3.9,4.1-4.3
					c2-0.7,4.6-0.2,4.9,2.3c0.2,2-1.3,4.3-1.9,6.1c-0.3,0.9-1.1,2.1-0.9,3.2c0.2,1.3,1,1.1,0.7,2.4c-0.3,1.1-1.5,1.4-1.3,2.8
					c0.2,1,1.2,1.2,1.9,1.7c2.6,1.8,3.3,2,5.3-0.6c1.3-1.6,2-4,4.4-4h3.4c2.6,0,5,0.9,7.4,1.5c2.7,0.9,3.3,2.6,3.1,5.2
					c-0.4,4.6-1.2,8.9,1.5,13.1c1.5,2.3,3.3,1.7,5.7,1.2c1.1-0.2,1.9-0.6,2.8-1.2c0.7-0.6,0.9-2,1.5-2.4c1.9-1.6,5.1-0.2,7.3-1.1
					c2.2-0.9,4.1-3.4,5.7-5.1c7.3-7.7,17-12.2,25.4-18.4c3.8-2.8,7.9-5.3,10.3-9.4c1.1-1.9,3.3-2.2,4.6-4.4c1.2-1.8,1.4-4.1,2.1-6.1
					c1.4-3.8,2.6-9.1,5.9-11.6c1.7-1.4,3.5-2.1,4.6-4.1c1.1-2.1,0.6-4.3,1.9-6.4c2.3-3.5,5.8-7.2,6.8-11.1c0.6-2.1,2.3-3.2,3.4-5.2
					c0.6-1.1,0.8-2.1,1.2-3.1c0.6-1.5,0.9-1.6,2.2-2.4c2.4-1.5,3.8-4.2,5.7-6.4c1-1.1,2-2.1,3.3-2.6c1.2-0.4,3.4,0.2,4.3-1
					c0.6-0.9,0.1-3.9,0.4-4.8c0.3-1.4,0.8-2.7,1.6-4c1.3-1.9,4.3-5.1,4.2-7.4c-1-0.1-1.4,0.7-2.3,0.6c-1.3-1.6,1-3.2,2.3-4.3
					c1.6-1.3,2.8-1.3,3.5,0.9c1.3,0.3,2.1-1.6,3-2.4c0.9-1,2.2-1.6,3.1-2.7c0.3-0.4,0.9-1.1,1-1.6c0.1-0.7-0.6-1.8-0.6-2.1
					c0.3-1,1.7-1.3,2.1-2.4c0.2-0.7-0.1-1.3,0.2-1.9c0.2-0.6,1.1-1,1.3-1.4c0.7-1.3-0.1-2.8,0.3-4.1c0.3-1.3,1.5-1.9,2-3.1
					c0.6-1.2,0.6-2.8,1-4L782.8,496.4z"/>
			</g>
		</g>
	</g>
	<polyline class="st3" points="561.4,93.8 673.6,42.9 673.6,7.5 772.5,7.5 	"/>
	<polyline class="st3" points="614,219.5 686.4,187.1 686.4,7.6 	"/>
	<polyline class="st3" points="843.1,175.8 727,175.8 727,328.5 	"/>
	<line class="st3" x1="662.8" y1="295" x2="359.3" y2="295"/>
	<line class="st3" x1="576.7" y1="427.9" x2="359.3" y2="427.9"/>
	<line class="st3" x1="814.4" y1="617.7" x2="637.8" y2="617.7"/>
	<polyline class="st3" points="715.1,617.7 715.1,449.7 798,417.9 	"/>
	<line class="st3" x1="684.1" y1="617.2" x2="684.1" y2="490.4"/>
	<line class="st3" x1="491" y1="1078.5" x2="147.9" y2="1078.5"/>
	<line class="st3" x1="174.2" y1="1077.3" x2="174.2" y2="939.3"/>
	<g class="st0">
		<defs>
			<rect id="SVGID_7_" y="0" width="904.2" height="1151"/>
		</defs>
		<clipPath id="SVGID_8_">
			<use xlink:href="#SVGID_7_"  style="overflow:visible;"/>
		</clipPath>
		<path class="st4" d="M807.1,398.5c0,6.1-11.5,22.6-11.5,22.6s-11.5-16.4-11.5-22.6c0-6.1,5.1-11.1,11.5-11.1
			C801.9,387.4,807.1,392.3,807.1,398.5"/>
		<path class="st5" d="M801.1,398.5c0,2.9-2.4,5.3-5.5,5.3c-3,0-5.5-2.4-5.5-5.3c0-2.9,2.4-5.3,5.5-5.3
			C798.6,393.2,801.1,395.6,801.1,398.5"/>
		<path class="st4" d="M572.9,72.6c0,6.1-11.5,22.6-11.5,22.6s-11.5-16.4-11.5-22.6c0-6.1,5.1-11.1,11.5-11.1
			C567.7,61.4,572.9,66.4,572.9,72.6"/>
		<path class="st5" d="M566.8,72.6c0,2.9-2.4,5.3-5.5,5.3c-3,0-5.5-2.4-5.5-5.3c0-2.9,2.4-5.3,5.5-5.3
			C564.4,67.3,566.8,69.6,566.8,72.6"/>
		<path class="st4" d="M695.6,467.8c0,6.1-11.5,22.6-11.5,22.6s-11.5-16.4-11.5-22.6c0-6.1,5.1-11.1,11.5-11.1
			C690.4,456.7,695.6,461.7,695.6,467.8"/>
		<path class="st5" d="M689.5,467.8c0,2.9-2.4,5.3-5.5,5.3c-3,0-5.5-2.4-5.5-5.3c0-2.9,2.4-5.3,5.5-5.3
			C687.1,462.5,689.5,464.9,689.5,467.8"/>
		<path class="st4" d="M160.1,1055.4c0,6.1-11.5,22.6-11.5,22.6s-11.5-16.4-11.5-22.6s5.1-11.1,11.5-11.1
			C154.9,1044.3,160.1,1049.2,160.1,1055.4"/>
		<path class="st5" d="M154,1055.4c0,2.9-2.4,5.3-5.5,5.3c-3,0-5.5-2.4-5.5-5.3s2.4-5.3,5.5-5.3C151.6,1050.1,154,1052.4,154,1055.4
			"/>
		<path class="st4" d="M185,920.5c0,6.1-11.5,22.6-11.5,22.6S162,926.6,162,920.5s5.1-11.1,11.5-11.1
			C179.9,909.4,185,914.4,185,920.5"/>
		<path class="st5" d="M179,920.5c0,2.9-2.4,5.3-5.5,5.3c-3,0-5.5-2.4-5.5-5.3s2.4-5.3,5.5-5.3C176.5,915.2,179,917.6,179,920.5"/>
		<path class="st6" d="M588.2,407c0,6.1-11.5,22.6-11.5,22.6s-11.5-16.4-11.5-22.6c0-6.1,5.1-11.1,11.5-11.1
			C583.1,395.9,588.2,400.8,588.2,407"/>
		<path class="st5" d="M582.2,407c0,2.9-2.4,5.3-5.5,5.3c-3,0-5.5-2.4-5.5-5.3c0-2.9,2.4-5.3,5.5-5.3
			C579.7,401.7,582.2,404.1,582.2,407"/>
		<path class="st6" d="M648.5,594.7c0,6.1-11.5,22.6-11.5,22.6s-11.5-16.4-11.5-22.6c0-6.1,5.1-11.1,11.5-11.1
			C643.3,583.5,648.5,588.5,648.5,594.7"/>
		<path class="st5" d="M642.5,594.7c0,2.9-2.4,5.3-5.5,5.3c-3,0-5.5-2.4-5.5-5.3c0-2.9,2.4-5.3,5.5-5.3
			C640,589.4,642.5,591.7,642.5,594.7"/>
		<path class="st6" d="M514.2,618.9c0,6.1-11.5,22.6-11.5,22.6s-11.5-16.4-11.5-22.6c0-6.1,5.1-11.1,11.5-11.1
			C509.1,607.8,514.2,612.8,514.2,618.9"/>
		<path class="st5" d="M508.2,618.9c0,2.9-2.4,5.3-5.5,5.3c-3,0-5.5-2.4-5.5-5.3c0-2.9,2.4-5.3,5.5-5.3
			C505.7,613.7,508.2,616,508.2,618.9"/>
		<path class="st6" d="M491.2,816.4c0,6.1-11.5,22.6-11.5,22.6s-11.5-16.4-11.5-22.6s5.1-11.1,11.5-11.1
			C486.1,805.3,491.2,810.3,491.2,816.4"/>
		<path class="st5" d="M485.2,816.4c0,2.9-2.4,5.3-5.5,5.3c-3,0-5.5-2.4-5.5-5.3c0-2.9,2.4-5.3,5.5-5.3
			C482.7,811.1,485.2,813.5,485.2,816.4"/>
		<path class="st6" d="M327.5,1005.6c0,6.1-11.5,22.6-11.5,22.6s-11.5-16.4-11.5-22.6c0-6.1,5.1-11.1,11.5-11.1
			C322.4,994.4,327.5,999.4,327.5,1005.6"/>
		<path class="st5" d="M321.5,1005.6c0,2.9-2.4,5.3-5.5,5.3c-3,0-5.5-2.4-5.5-5.3c0-2.9,2.4-5.3,5.5-5.3
			C319,1000.3,321.5,1002.6,321.5,1005.6"/>
		<path class="st6" d="M738.7,325.3c0,6.1-11.5,22.6-11.5,22.6s-11.5-16.4-11.5-22.6c0-6.1,5.1-11.1,11.5-11.1
			C733.6,314.2,738.7,319.2,738.7,325.3"/>
		<path class="st5" d="M732.7,325.3c0,2.9-2.4,5.3-5.5,5.3c-3,0-5.5-2.4-5.5-5.3c0-2.9,2.4-5.3,5.5-5.3
			C730.2,320,732.7,322.4,732.7,325.3"/>
		<path class="st6" d="M675.8,273.4c0,6.1-11.5,22.6-11.5,22.6s-11.5-16.4-11.5-22.6c0-6.1,5.1-11.1,11.5-11.1
			C670.6,262.3,675.8,267.2,675.8,273.4"/>
		<path class="st5" d="M669.8,273.4c0,2.9-2.4,5.3-5.5,5.3c-3,0-5.5-2.4-5.5-5.3c0-2.9,2.4-5.3,5.5-5.3
			C667.3,268.1,669.8,270.5,669.8,273.4"/>
		<path class="st6" d="M625.5,201.3c0,6.1-11.5,22.6-11.5,22.6s-11.5-16.4-11.5-22.6c0-6.1,5.1-11.1,11.5-11.1
			C620.4,190.2,625.5,195.2,625.5,201.3"/>
		<path class="st5" d="M619.5,201.3c0,2.9-2.4,5.3-5.5,5.3c-3,0-5.5-2.4-5.5-5.3c0-2.9,2.4-5.3,5.5-5.3
			C617,196,619.5,198.4,619.5,201.3"/>
	</g>
	<polyline class="st3" points="701.8,777.1 502.6,777.1 502.6,643.5 	"/>
	<polyline class="st3" points="636,934.1 479.7,934.1 479.7,835.1 	"/>
</g>
</svg>
